/* XPM */
static char *dummy[]={
"64 64 202 2",
".s c #000000",
"#e c #010101",
".L c #020202",
"aC c #030303",
".M c #040404",
".t c #050505",
".N c #060606",
"#V c #070707",
".r c #080808",
"#h c #090909",
".T c #0a0a0a",
"#L c #0b0b0b",
".7 c #0c0c0c",
"aG c #0d0d0d",
".O c #0e0e0e",
".g c #0f0f0f",
".f c #101010",
"av c #111111",
".K c #121212",
"aT c #131313",
".G c #141414",
"#8 c #161616",
".h c #171717",
"bf c #181818",
".F c #191919",
"#Z c #1a1a1a",
".e c #1b1b1b",
"bh c #1c1c1c",
".B c #1d1d1d",
"be c #1e1e1e",
"#u c #202020",
".A c #222222",
"#1 c #232323",
"#R c #242424",
"aH c #252525",
"aN c #262626",
"bc c #272727",
"a5 c #282828",
"at c #292929",
".u c #2a2a2a",
"ar c #2b2b2b",
".U c #2d2d2d",
"aB c #2e2e2e",
"a7 c #303030",
"a3 c #313131",
"aY c #323232",
".6 c #333333",
"#w c #343434",
".i c #353535",
".8 c #363636",
".q c #373737",
"a6 c #383838",
"ax c #393939",
".d c #3b3b3b",
"#C c #3c3c3c",
"a2 c #3d3d3d",
"#r c #3e3e3e",
"#O c #3f3f3f",
"aL c #404040",
".S c #434343",
"a1 c #464646",
"#W c #474747",
"#T c #494949",
"#y c #4a4a4a",
"#9 c #4b4b4b",
"#t c #4d4d4d",
"au c #4e4e4e",
"#o c #4f4f4f",
"#n c #505050",
"aW c #515151",
"ad c #525252",
"ak c #535353",
"#i c #555555",
"#B c #565656",
"aj c #585858",
".V c #5a5a5a",
"aS c #5b5b5b",
"aR c #5c5c5c",
".5 c #5d5d5d",
"#k c #5f5f5f",
"#q c #606060",
".j c #616161",
"b# c #636363",
"ab c #656565",
"#6 c #666666",
"bg c #686868",
"#P c #6a6a6a",
"ae c #6b6b6b",
"a8 c #6c6c6c",
"#X c #6d6d6d",
".c c #6e6e6e",
".v c #6f6f6f",
"#E c #707070",
"ap c #737373",
"#g c #757575",
".H c #767676",
"#I c #777777",
".p c #787878",
".P c #797979",
"aV c #7a7a7a",
".W c #7c7c7c",
"#H c #7d7d7d",
"#f c #7e7e7e",
"a# c #7f7f7f",
"aJ c #818181",
".z c #828282",
".E c #838383",
"#Q c #858585",
".4 c #868686",
"## c #888888",
"al c #898989",
".J c #8a8a8a",
"#S c #8b8b8b",
"aF c #8c8c8c",
"#M c #8e8e8e",
"aE c #8f8f8f",
"#J c #909090",
"#. c #929292",
"aO c #959595",
"#v c #979797",
".k c #989898",
"#3 c #999999",
"#4 c #9a9a9a",
"a. c #9c9c9c",
".b c #9d9d9d",
"bd c #9f9f9f",
"aQ c #a0a0a0",
"aq c #a1a1a1",
"b. c #a2a2a2",
".X c #a3a3a3",
"aA c #a4a4a4",
"as c #a5a5a5",
"#0 c #a6a6a6",
".3 c #a7a7a7",
"ai c #a9a9a9",
"az c #ababab",
"aZ c #acacac",
"aP c #adadad",
"ao c #b0b0b0",
".w c #b2b2b2",
"ag c #b4b4b4",
"#5 c #b7b7b7",
".o c #bababa",
"af c #bbbbbb",
"aU c #bcbcbc",
"#j c #bdbdbd",
"bb c #bebebe",
".9 c #c0c0c0",
"#N c #c1c1c1",
".Y c #c2c2c2",
"aD c #c3c3c3",
"a0 c #c4c4c4",
".2 c #c8c8c8",
"aI c #c9c9c9",
".Z c #cacaca",
".R c #cbcbcb",
"aw c #cccccc",
".l c #cdcdcd",
"#K c #cfcfcf",
".0 c #d0d0d0",
".1 c #d1d1d1",
"a9 c #d2d2d2",
".a c #d5d5d5",
"#p c #d6d6d6",
"ah c #d7d7d7",
".C c #d8d8d8",
"aa c #dadada",
"#a c #dbdbdb",
"#2 c #dcdcdc",
"am c #dddddd",
".D c #dedede",
"#d c #dfdfdf",
"#x c #e0e0e0",
"an c #e2e2e2",
"#Y c #e3e3e3",
".y c #e4e4e4",
"a4 c #e5e5e5",
"#z c #e6e6e6",
"aX c #e7e7e7",
"#7 c #e8e8e8",
"#l c #e9e9e9",
".x c #eaeaea",
"#s c #ebebeb",
"#A c #ececec",
"ay c #eeeeee",
"#U c #efefef",
".n c #f0f0f0",
".Q c #f1f1f1",
"ac c #f2f2f2",
"#D c #f3f3f3",
"#F c #f4f4f4",
"#m c #f5f5f5",
"ba c #f6f6f6",
".m c #f7f7f7",
"#b c #f8f8f8",
"aM c #f9f9f9",
"#c c #fafafa",
".# c #fbfbfb",
".I c #fcfcfc",
"aK c #fdfdfd",
"#G c #fefefe",
"Qt c none",
"QtQtQtQtQtQtQtQtQtQtQtQtQtQtQtQtQtQtQtQtQtQtQt.#.a.b.c.d.e.f.g.g.g.g.g.h.i.j.k.l.mQtQtQtQtQtQtQtQtQtQtQtQtQtQtQtQtQtQtQtQtQtQtQt",
"QtQtQtQtQtQtQtQtQtQtQtQtQtQtQtQtQtQtQtQt.n.o.p.q.r.s.s.s.s.s.s.s.s.s.s.s.s.s.s.t.u.v.w.xQtQtQtQtQtQtQtQtQtQtQtQtQtQtQtQtQtQtQtQt",
"QtQtQtQtQtQtQtQtQtQtQtQtQtQtQtQtQtQt.y.z.A.s.s.s.s.s.s.s.s.s.s.s.s.s.s.s.s.s.s.s.s.s.s.B.p.CQtQtQtQtQtQtQtQtQtQtQtQtQtQtQtQtQtQt",
"QtQtQtQtQtQtQtQtQtQtQtQtQtQtQtQt.D.E.F.s.s.s.s.s.s.s.s.s.s.s.s.s.s.s.s.s.s.s.s.s.s.s.s.s.s.G.H.aQtQtQtQtQtQtQtQtQtQtQtQtQtQtQtQt",
"QtQtQtQtQtQtQtQtQtQtQtQtQtQt.I.J.K.s.s.s.s.s.s.s.s.s.s.s.s.L.M.N.N.M.M.s.s.s.s.s.s.s.s.s.s.s.s.O.P.QQtQtQtQtQtQtQtQtQtQtQtQtQtQt",
"QtQtQtQtQtQtQtQtQtQtQtQtQt.R.S.s.s.s.s.s.s.s.s.s.T.U.V.W.X.Y.Z.0.1.Z.2.3.4.5.6.7.s.s.s.s.s.s.s.s.s.8.9QtQtQtQtQtQtQtQtQtQtQtQtQt",
"QtQtQtQtQtQtQtQtQtQtQtQt#..O.s.s.s.s.s.s.s.s.i###a#bQtQtQtQtQtQtQtQtQtQtQtQt#c#d#..S#e.s.s.s.s.s.s.s.M#fQtQtQtQtQtQtQtQtQtQtQtQt",
"QtQtQtQtQtQtQtQtQtQt.m#g.s.s.s.s.s.s.s#h#i.w#cQtQtQtQtQtQtQtQtQtQtQtQtQtQtQtQtQtQtQt#j#k.O.s.s.s.s.s.s.s#k#lQtQtQtQtQtQtQtQtQtQt",
"QtQtQtQtQtQtQtQtQt#m#n.s.s.s.s.s.s.s#o.RQtQtQtQtQtQtQtQtQtQtQtQtQtQtQtQtQtQtQtQtQtQtQtQt#p#q.s.s.s.s.s.s.s#r#sQtQtQtQtQtQtQtQtQt",
"QtQtQtQtQtQtQtQt#m#t.s.s.s.s.s.s#u#vQtQtQtQtQtQtQtQtQtQtQtQtQtQtQtQtQtQtQtQtQtQtQtQtQtQtQtQt.3.U.s.s.s.s.s.s#w#xQtQtQtQtQtQtQtQt",
"QtQtQtQtQtQtQt.m#o.s.s.s.s.s.s#y#zQtQtQtQtQtQtQtQtQtQtQtQtQtQtQtQtQtQtQtQtQtQtQtQtQtQtQtQtQtQt#A#B.s.s.s.s.s.s#C#DQtQtQtQtQtQtQt",
"QtQtQtQtQtQtQt#E.s.s.s.s.s.s.v#FQtQtQtQtQtQtQtQtQtQtQtQtQtQtQtQtQtQtQtQtQtQtQtQtQtQtQtQtQtQtQtQt#G#H.s.s.s.s.s.s#B.mQtQtQtQtQtQt",
"QtQtQtQtQtQt#..s.s.s.s.s.s#IQtQtQtQtQtQtQtQtQtQtQtQtQtQtQtQtQtQtQtQtQtQtQtQtQtQtQtQtQtQtQtQtQtQtQtQt#J.s.s.s.s.s.s.HQtQtQtQtQtQt",
"QtQtQtQtQt#K#L.s.s.s.s.s#IQtQtQtQtQtQtQtQtQtQtQtQtQtQtQtQtQtQtQtQtQtQtQtQtQtQtQtQtQtQtQtQtQtQtQtQtQtQt#M.s.s.s.s.s.r#NQtQtQtQtQt",
"QtQtQtQt.I#O.s.s.s.s.s#PQtQtQtQtQtQtQtQtQtQtQtQtQtQtQtQtQtQtQt.1.R.#QtQtQtQtQtQtQtQtQtQtQtQtQtQtQtQtQtQt#Q.s.s.s.s.s#R.xQtQtQtQt",
"QtQtQtQt#S.s.s.s.s.s#T#FQtQtQtQtQtQtQtQtQtQtQtQtQtQtQtQtQt#U#B#V.t#W#AQtQtQtQtQtQtQtQtQtQtQtQtQtQtQtQtQtQt#q.s.s.s.s.s#XQtQtQtQt",
"QtQtQt#Y.O.s.s.s.s#Z.xQtQtQtQtQtQtQtQtQtQtQtQtQtQtQtQtQtQt#0.s.s.s.s#MQtQtQtQtQtQtQtQtQtQtQtQtQtQtQtQtQtQt#U#1.s.s.s.s#L#2QtQtQt",
"QtQtQt.z.s.s.s.s.s#3QtQtQtQtQtQtQtQtQtQtQtQtQtQtQtQtQtQtQt#4.s.s.s.s.WQtQtQtQtQtQtQtQtQtQtQtQtQtQtQtQtQtQtQt#5#V.s.s.s.s#6QtQtQt",
"QtQt#7#8.s.s.s.s#9QtQtQtQtQtQtQtQtQtQtQtQtQtQtQtQtQtQtQtQta..s.s.s.sa#QtQtQtQtQtQtQtQtQtQtQtQtQtQtQtQtQtQtQtQt#X.s.s.s.s.M.RQtQt",
"QtQt.E.s.s.s.s#h.0QtQtQtQtQtQtQtQtQtQtQtQtQtQtQtQtQtQtQtQta..s.s.s.sa#QtQtQtQtQtQtQtQtQtQtQtQtQtQtQtQtQtQtQtQtaa.T.s.s.s.sabQtQt",
"Qtac#u.s.s.s.sadQtQtQtQtQtQtQtQtQtQtQtQtQtQtQtQtQtQtQtQtQta..s.s.s.sa#QtQtQtQtQtQtQtQtQtQtQtQtQtQtQtQtQtQtQtQtQtae.s.s.s.s#Z.nQt",
"Qtaf.s.s.s.s.sagQtQtQtQtQtQtQtQtQtQtQtQtQtQtQtQtQtQtQtQtQta..s.s.s.sa#QtQtQtQtQtQtQtQtQtQtQtQtQtQtQtQtQtQtQtQtQtah#L.s.s.s.saiQt",
"Qt.P.s.s.s.s.6.#QtQtQtQtQtQtQtQtQtQtQtQtQtQtQtQtQtQtQtQtQta..s.s.s.sa#QtQtQtQtQtQtQtQtQtQtQtQtQtQtQtQtQtQtQtQtQtQtaj.s.s.s.sakQt",
".#.8.s.s.s.salQtQtQtQtQtQtQtQtQtQtQtQtQtQtQtQtQtQtQtQtQtQta..s.s.s.sa#QtQtQtQtQtQtQtQtQtQtQtQtQtQtQtQtQtQtQtQtQtQt.X.s.s.s.s#8#s",
"#p.t.s.s.s.ramQtQtQtQtQtQtQtQtQtQtQtQtQtQtQtQtQtQtQtQtQtQta..s.s.s.sa#QtQtQtQtQtQtQtQtQtQtQtQtQtQtQtQtQtQtQtQtQtQtan#h.s.s.s.sao",
"a..s.s.s.s.U.#QtQtQtQtQtQtQtQtQtQtQtQtQtQtQtQtQtQtQtQtQtQta..s.s.s.sa#QtQtQtQtQtQtQtQtQtQtQtQtQtQtQtQtQtQtQtQtQtQt.I.8.s.s.s.s.P",
"ap.s.s.s.s.VQtQtQtQtQtQtQtQtQtQtQtQtQtQtQtQtQtQtQtQtQtQtQta..s.s.s.sa#QtQtQtQtQtQtQtQtQtQtQtQtQtQtQtQtQtQtQtQtQtQtQtap.s.s.s.s.V",
"#9.s.s.s.s#HQtQtQtQtQtQtQtQtQtQtQtQtQtQtQtQtQtQtQtQtQtQtQta..s.s.s.sa#QtQtQtQtQtQtQtQtQtQtQtQtQtQtQtQtQtQtQtQtQtQtQtaq.s.s.s.s#C",
"ar.s.s.s.s.XQtQtQtQtQtQtQtQtQtQtQtQtQtQtQtQtQtQtQtQtQtQtQtas.s.s.s.s.4QtQtQtQtQtQtQtQtQtQtQtQtQtQtQtQtQtQtQtQtQtQtQt.2.M.s.s.sat",
".g.s.s.s.L#jQtQtQtQtQtQtQtQtQt#F.3a.a.a.a.a.a.a.a.a.a.a.a.#k.s.s.s.saua.a.a.a.a.a.a.a.a.a.a.a.as#UQtQtQtQtQtQtQtQtQt#Y#L.s.s.sav",
".g.s.s.s.MawQtQtQtQtQtQtQtQt#c#i.s.s.s.s.s.s.s.s.s.s.s.s.s.s.s.s.s.s.s.s.s.s.s.s.s.s.s.s.s.s.s.saxayQtQtQtQtQtQtQtQtac.f.s.s.s.O",
".g.s.s.s.M.ZQtQtQtQtQtQtQtQt.1.s.s.s.s.s.s.s.s.s.s.s.s.s.s.s.s.s.s.s.s.s.s.s.s.s.s.s.s.s.s.s.s.s.sazQtQtQtQtQtQtQtQt.n.g.s.s.s.g",
".g.s.s.s.M.ZQtQtQtQtQtQtQtQt.Z.s.s.s.s.s.s.s.s.s.s.s.s.s.s.s.s.s.s.s.s.s.s.s.s.s.s.s.s.s.s.s.s.s.saAQtQtQtQtQtQtQtQt.n.g.s.s.s.g",
".g.s.s.s.M.RQtQtQtQtQtQtQtQt.m#W.s.s.s.s.s.s.s.s.s.s.s.s.s.s.s.s.s.s.s.s.s.s.s.s.s.s.s.s.s.s.s.saB#zQtQtQtQtQtQtQtQt.Q.g.s.s.s.g",
".O.s.s.saCaDQtQtQtQtQtQtQtQtQt#UaEa#a#a#a#a#a#a#a#a#a#a#a#au.s.s.s.s#Oa#a#a#a#a#a#a#a#a#a#a#a#aF#lQtQtQtQtQtQtQtQtQt#laG.s.s.s.O",
"aH.s.s.s.saAQtQtQtQtQtQtQtQtQtQtQtQtQtQtQtQtQtQtQtQtQtQtQt.3.s.s.s.s##QtQtQtQtQtQtQtQtQtQtQtQtQtQtQtQtQtQtQtQtQtQtQtaI.M.s.s.s#u",
"#W.s.s.s.saJQtQtQtQtQtQtQtQtQtQtQtQtQtQtQtQtQtQtQtQtQtQtQta..s.s.s.sa#QtQtQtQtQtQtQtQtQtQtQtQtQtQtQtQtQtQtQtQtQtQtQt#0.s.s.s.sax",
"#P.s.s.s.s.5QtQtQtQtQtQtQtQtQtQtQtQtQtQtQtQtQtQtQtQtQtQtQta..s.s.s.sa#QtQtQtQtQtQtQtQtQtQtQtQtQtQtQtQtQtQtQtQtQtQtQt.p.s.s.s.s#B",
".k.s.s.s.s#waKQtQtQtQtQtQtQtQtQtQtQtQtQtQtQtQtQtQtQtQtQtQta..s.s.s.sa#QtQtQtQtQtQtQtQtQtQtQtQtQtQtQtQtQtQtQtQtQtQt#GaL.s.s.s.s.H",
"#K.t.s.s.s#LanQtQtQtQtQtQtQtQtQtQtQtQtQtQtQtQtQtQtQtQtQtQta..s.s.s.sa#QtQtQtQtQtQtQtQtQtQtQtQtQtQtQtQtQtQtQtQtQtQt#z#L.s.s.s.s.3",
"aMaN.s.s.s.saOQtQtQtQtQtQtQtQtQtQtQtQtQtQtQtQtQtQtQtQtQtQta..s.s.s.sa#QtQtQtQtQtQtQtQtQtQtQtQtQtQtQtQtQtQtQtQtQtQtaP.s.s.s.s.g#z",
"Qt.v.s.s.s.s#CaKQtQtQtQtQtQtQtQtQtQtQtQtQtQtQtQtQtQtQtQtQta..s.s.s.sa#QtQtQtQtQtQtQtQtQtQtQtQtQtQtQtQtQtQtQtQtQtQt.j.s.s.s.s#9Qt",
"Qtag.s.s.s.s#e.9QtQtQtQtQtQtQtQtQtQtQtQtQtQtQtQtQtQtQtQtQta..s.s.s.sa#QtQtQtQtQtQtQtQtQtQtQtQtQtQtQtQtQtQtQtQtQtan.O.s.s.s.saQQt",
"Qt#A#Z.s.s.s.saRQtQtQtQtQtQtQtQtQtQtQtQtQtQtQtQtQtQtQtQtQta..s.s.s.sa#QtQtQtQtQtQtQtQtQtQtQtQtQtQtQtQtQtQtQtQtQt#I.s.s.s.s#8#7Qt",
"QtQt#I.s.s.s.s.7amQtQtQtQtQtQtQtQtQtQtQtQtQtQtQtQtQtQtQtQta..s.s.s.sa#QtQtQtQtQtQtQtQtQtQtQtQtQtQtQtQtQtQtQtQt.y.g.s.s.s.saSQtQt",
"QtQt#aaT.s.s.s.s.5QtQtQtQtQtQtQtQtQtQtQtQtQtQtQtQtQtQtQtQta..s.s.s.sa#QtQtQtQtQtQtQtQtQtQtQtQtQtQtQtQtQtQtQtQt.W.s.s.s.s.LaUQtQt",
"QtQtQtaV.s.s.s.s.saiQtQtQtQtQtQtQtQtQtQtQtQtQtQtQtQtQtQtQt#4.s.s.s.s.WQtQtQtQtQtQtQtQtQtQtQtQtQtQtQtQtQtQtQt.2#L.s.s.s.saWQtQtQt",
"QtQtQt.C.T.s.s.s.sat#UQtQtQtQtQtQtQtQtQtQtQtQtQtQtQtQtQtQt.X.s.s.s.s.JQtQtQtQtQtQtQtQtQtQtQtQtQtQtQtQtQtQt#D.i.s.s.s.s#h#KQtQtQt",
"QtQtQtQt.P.s.s.s.s.s#iaKQtQtQtQtQtQtQtQtQtQtQtQtQtQtQtQtQt#sax.s.saBaXQtQtQtQtQtQtQtQtQtQtQtQtQtQtQtQtQtQt.p.s.s.s.s.s.5QtQtQtQt",
"QtQtQtQtacaY.s.s.s.s.s#HQtQtQtQtQtQtQtQtQtQtQtQtQtQtQtQtQtQtacaZ#0#lQtQtQtQtQtQtQtQtQtQtQtQtQtQtQtQtQtQt#3.L.s.s.s.s.e#2QtQtQtQt",
"QtQtQtQtQta0#e.s.s.s.s#e#JQtQtQtQtQtQtQtQtQtQtQtQtQtQtQtQtQtQtQtQtQtQtQtQtQtQtQtQtQtQtQtQtQtQtQtQtQtQt#0.L.s.s.s.s.s.wQtQtQtQtQt",
"QtQtQtQtQtQta#.s.s.s.s.s.s#MQtQtQtQtQtQtQtQtQtQtQtQtQtQtQtQtQtQtQtQtQtQtQtQtQtQtQtQtQtQtQtQtQtQtQtQt#0#L.s.s.s.s.s#6QtQtQtQtQtQt",
"QtQtQtQtQtQtQt.5.s.s.s.s.s.s#QQtQtQtQtQtQtQtQtQtQtQtQtQtQtQtQtQtQtQtQtQtQtQtQtQtQtQtQtQtQtQtQtQtQt#3#e.s.s.s.s.sa1#FQtQtQtQtQtQt",
"QtQtQtQtQtQtQt#sa2.s.s.s.s.s.s.j#AQtQtQtQtQtQtQtQtQtQtQtQtQtQtQtQtQtQtQtQtQtQtQtQtQtQtQtQtQtQt#Uap.s.s.s.s.s.sa3a4QtQtQtQtQtQtQt",
"QtQtQtQtQtQtQtQt#saY.s.s.s.s.s.sa5agQtQtQtQtQtQtQtQtQtQtQtQtQtQtQtQtQtQtQtQtQtQtQtQtQtQtQtQta0a6.s.s.s.s.s.s#1#xQtQtQtQtQtQtQtQt",
"QtQtQtQtQtQtQtQtQt#d#r.s.s.s.s.s.s.t.v.aQtQtQtQtQtQtQtQtQtQtQtQtQtQtQtQtQtQtQtQtQtQtQtQt.D#f#L.s.s.s.s.s.sa7.DQtQtQtQtQtQtQtQtQt",
"QtQtQtQtQtQtQtQtQtQt#D#B.s.s.s.s.s.s.s.Oa8a9QtQtQtQtQtQtQtQtQtQtQtQtQtQtQtQtQtQtQtQtam.P.K.s.s.s.s.s.s.s#W#YQtQtQtQtQtQtQtQtQtQt",
"QtQtQtQtQtQtQtQtQtQtQt#b.H#h.s.s.s.s.s.s.saG.Vb.#x.#QtQtQtQtQtQtQtQtQtQtQtQt#G#Yaib#av.s.s.s.s.s.s.s.s#6baQtQtQtQtQtQtQtQtQtQtQt",
"QtQtQtQtQtQtQtQtQtQtQtQtQtbbbc.s.s.s.s.s.s.s.s.s#L.qapbd.2an.nac.n.n#7.2as#IaL.O.s.s.s.s.s.s.s.s.sbeaoQtQtQtQtQtQtQtQtQtQtQtQtQt",
"QtQtQtQtQtQtQtQtQtQtQtQtQtQt#7.c.O.s.s.s.s.s.s.s.s.s.s.s.M.7.gbf.K.gaG.M.s.s.s.s.s.s.s.s.s.s.s#h#kaaQtQtQtQtQtQtQtQtQtQtQtQtQtQt",
"QtQtQtQtQtQtQtQtQtQtQtQtQtQtQtQt#pbg.N.s.s.s.s.s.s.s.s.s.s.s.s.s.s.s.s.s.s.s.s.s.s.s.s.s.s.s#o.RQtQtQtQtQtQtQtQtQtQtQtQtQtQtQtQt",
"QtQtQtQtQtQtQtQtQtQtQtQtQtQtQtQtQtQtaI#6bh.s.s.s.s.s.s.s.s.s.s.s.s.s.s.s.s.s.s.s.s.s.sbf.V.oQtQtQtQtQtQtQtQtQtQtQtQtQtQtQtQtQtQt",
"QtQtQtQtQtQtQtQtQtQtQtQtQtQtQtQtQtQtQtQt#A.3#i.F.s.s.s.s.s.s.s.s.s.s.s.s.s.s.s.saT#tbd#zQtQtQtQtQtQtQtQtQtQtQtQtQtQtQtQtQtQtQtQt",
"QtQtQtQtQtQtQtQtQtQtQtQtQtQtQtQtQtQtQtQtQtQtQt#laoaV.Va2.uav.g.g.g.g.faHax#i.H.3a4QtQtQtQtQtQtQtQtQtQtQtQtQtQtQtQtQtQtQtQtQtQtQt"};
