/* XPM */
static char *dummy[]={
"64 64 200 2",
".q c #000000",
"#e c #010101",
"#C c #020202",
"ae c #030303",
".D c #040404",
"ai c #050505",
"#b c #060606",
"#9 c #070707",
".T c #080808",
".O c #090909",
".r c #0a0a0a",
".y c #0b0b0b",
".N c #0c0c0c",
".H c #0d0d0d",
"af c #0e0e0e",
".f c #0f0f0f",
".3 c #101010",
"ao c #111111",
".g c #121212",
".x c #141414",
"#F c #151515",
"#t c #161616",
"an c #171717",
"#W c #181818",
"#j c #191919",
".e c #1a1a1a",
".6 c #1b1b1b",
"#S c #1c1c1c",
"#y c #1d1d1d",
"aN c #1e1e1e",
"#I c #202020",
"aw c #212121",
".I c #222222",
"aY c #232323",
"#a c #242424",
"aS c #252525",
"#H c #262626",
"#w c #272727",
"aX c #282828",
"#M c #292929",
"au c #2a2a2a",
"ah c #2b2b2b",
"aK c #2c2c2c",
".M c #2d2d2d",
"#B c #2e2e2e",
"a9 c #303030",
"a0 c #313131",
".h c #333333",
"a# c #353535",
".d c #373737",
"#E c #383838",
"aU c #393939",
"b# c #3b3b3b",
".S c #3c3c3c",
"a1 c #3d3d3d",
".s c #3e3e3e",
".U c #414141",
"aV c #424242",
"ax c #434343",
"bc c #444444",
"#m c #454545",
"aa c #464646",
".E c #484848",
"aA c #494949",
".2 c #4a4a4a",
"#2 c #4b4b4b",
".J c #4c4c4c",
".p c #4d4d4d",
"at c #4e4e4e",
".L c #505050",
"aJ c #535353",
"av c #545454",
".i c #555555",
"#O c #565656",
".C c #595959",
".K c #5a5a5a",
"am c #5c5c5c",
"#5 c #5d5d5d",
"#8 c #5e5e5e",
"aP c #5f5f5f",
".c c #606060",
".z c #616161",
"a6 c #626262",
"#o c #656565",
"aB c #666666",
"ay c #676767",
"bd c #6a6a6a",
".P c #6b6b6b",
"#Z c #6c6c6c",
"a7 c #6d6d6d",
".7 c #6e6e6e",
".w c #6f6f6f",
"#k c #707070",
"a8 c #717171",
"aq c #727272",
"#U c #737373",
"#f c #747474",
"ba c #757575",
"## c #7c7c7c",
".V c #7d7d7d",
"al c #7e7e7e",
"#1 c #7f7f7f",
".j c #818181",
"ak c #828282",
"#K c #838383",
".1 c #848484",
"#i c #858585",
"az c #868686",
"#l c #888888",
"#c c #898989",
".b c #8a8a8a",
"#d c #8e8e8e",
"be c #8f8f8f",
"#0 c #909090",
".t c #949494",
"#6 c #959595",
"bb c #969696",
"#V c #979797",
"#q c #999999",
"a4 c #9b9b9b",
"aW c #9c9c9c",
".o c #9d9d9d",
"#Y c #9e9e9e",
"ad c #a0a0a0",
"#r c #a2a2a2",
"aL c #a3a3a3",
"#s c #a4a4a4",
"#Q c #a5a5a5",
"ap c #a6a6a6",
".5 c #a7a7a7",
"aH c #a8a8a8",
".k c #ababab",
"as c #aeaeae",
"a2 c #afafaf",
".W c #b1b1b1",
".a c #b2b2b2",
"#N c #b3b3b3",
".4 c #b4b4b4",
".0 c #b7b7b7",
"aQ c #b9b9b9",
"#u c #bababa",
"b. c #bcbcbc",
"#T c #bfbfbf",
"aO c #c0c0c0",
"aG c #c1c1c1",
"bf c #c2c2c2",
".F c #c3c3c3",
"#z c #c4c4c4",
".R c #c6c6c6",
".A c #c7c7c7",
"#v c #c8c8c8",
"aj c #c9c9c9",
"#x c #cacaca",
"ac c #cbcbcb",
".B c #cccccc",
"#7 c #cdcdcd",
"#n c #cecece",
"#L c #d0d0d0",
".v c #d1d1d1",
".8 c #d2d2d2",
"a3 c #d3d3d3",
"#3 c #d4d4d4",
"#P c #d5d5d5",
"#A c #d8d8d8",
"#G c #d9d9d9",
".u c #dadada",
"ag c #dbdbdb",
"aE c #dcdcdc",
".l c #dddddd",
".X c #dedede",
"a. c #dfdfdf",
"#. c #e1e1e1",
".n c #e2e2e2",
".# c #e3e3e3",
"#4 c #e4e4e4",
"#g c #e5e5e5",
"a5 c #e6e6e6",
"#R c #e8e8e8",
"#J c #e9e9e9",
"aT c #eaeaea",
"aM c #ebebeb",
".Q c #ececec",
"#h c #eeeeee",
"aR c #efefef",
"ab c #f0f0f0",
"aZ c #f1f1f1",
"aF c #f2f2f2",
"aC c #f3f3f3",
"aD c #f4f4f4",
".Y c #f5f5f5",
".G c #f6f6f6",
"#D c #f7f7f7",
".Z c #f8f8f8",
"ar c #f9f9f9",
"#X c #fafafa",
"aI c #fbfbfb",
"#p c #fcfcfc",
".m c #fdfdfd",
".9 c #fefefe",
"Qt c none",
"QtQtQtQtQtQtQtQtQtQtQtQtQtQtQtQtQtQtQtQtQtQtQtQtQtQtQtQtQtQtQtQtQtQtQtQtQtQtQtQtQtQtQtQtQtQtQtQtQtQtQtQtQtQtQtQtQtQtQtQtQtQtQtQt",
"QtQtQtQtQtQtQtQtQtQtQtQtQtQtQtQtQtQtQtQtQtQtQtQtQtQtQtQtQtQtQtQtQtQtQtQtQtQtQtQtQtQtQtQtQtQtQtQtQtQtQtQtQtQtQtQtQtQtQtQtQtQtQtQt",
"QtQtQtQtQtQtQtQtQtQtQtQtQtQtQtQtQtQtQtQtQtQtQtQtQtQtQtQtQtQtQtQtQtQtQtQtQtQtQtQtQtQtQtQtQtQtQtQtQtQtQtQtQtQtQtQtQtQtQtQtQtQtQtQt",
"QtQtQtQtQtQtQtQtQtQtQtQtQtQtQtQtQtQtQtQtQtQtQtQt.#.a.b.c.d.e.f.f.f.f.g.h.i.j.k.l.mQtQtQtQtQtQtQtQtQtQtQtQtQtQtQtQtQtQtQtQtQtQtQt",
"QtQtQtQtQtQtQtQtQtQtQtQtQtQtQtQtQtQtQtQtQt.n.o.p.g.q.q.q.q.q.q.q.q.q.q.q.q.q.q.r.s.t.uQtQtQtQtQtQtQtQtQtQtQtQtQtQtQtQtQtQtQtQtQt",
"QtQtQtQtQtQtQtQtQtQtQtQtQtQtQtQtQtQtQt.v.w.x.q.q.q.q.q.q.q.q.q.q.q.q.q.q.q.q.q.q.q.q.y.z.AQtQtQtQtQtQtQtQtQtQtQtQtQtQtQtQtQtQtQt",
"QtQtQtQtQtQtQtQtQtQtQtQtQtQtQtQtQt.B.C.y.q.q.q.q.q.q.q.q.q.q.q.q.q.q.q.q.q.q.q.q.q.q.q.q.D.E.FQtQtQtQtQtQtQtQtQtQtQtQtQtQtQtQtQt",
"QtQtQtQtQtQtQtQtQtQtQtQtQtQtQt.G.j.H.q.q.q.q.q.q.q.q.q.r.I.J.K.c.z.K.L.M.N.q.q.q.q.q.q.q.q.q.O.P.QQtQtQtQtQtQtQtQtQtQtQtQtQtQtQt",
"QtQtQtQtQtQtQtQtQtQtQtQtQtQt.R.S.q.q.q.q.q.q.q.T.U.V.W.X.YQtQtQtQtQtQt.Z.n.0.1.2.3.q.q.q.q.q.q.q.M.4QtQtQtQtQtQtQtQtQtQtQtQtQtQt",
"QtQtQtQtQtQtQtQtQtQtQtQtQt.5.3.q.q.q.q.q.q.6.7.8.9QtQtQtQtQtQtQtQtQtQtQtQtQtQtQt#.###a.q.q.q.q.q.q#b#cQtQtQtQtQtQtQtQtQtQtQtQtQt",
"QtQtQtQtQtQtQtQtQtQtQtQt#d#e.q.q.q.q.q.N#f#gQtQtQtQtQtQtQtQtQtQtQtQtQtQtQtQtQtQtQtQt#h#i#j.q.q.q.q.q.q#kQtQtQtQtQtQtQtQtQtQtQtQt",
"QtQtQtQtQtQtQtQtQtQtQt#l.q.q.q.q.q.q#m#nQtQtQtQtQtQtQtQtQtQtQtQtQtQtQtQtQtQtQtQtQtQtQtQt.l.i.q.q.q.q.q.q#o#pQtQtQtQtQtQtQtQtQtQt",
"QtQtQtQtQtQtQtQtQtQt#d.q.q.q.q.q.O#q.mQtQtQtQtQtQtQtQtQtQtQtQtQtQtQtQtQtQtQtQtQtQtQtQtQtQtQt#r.3.q.q.q.q.q.wQtQtQtQtQtQtQtQtQtQt",
"QtQtQtQtQtQtQtQtQt#s.q.q.q.q.q#t#uQtQtQtQtQtQtQtQtQtQtQtQtQtQtQtQtQtQtQtQtQtQtQtQtQtQtQtQtQtQt#v#w.q.q.q.q.q#iQtQtQtQtQtQtQtQtQt",
"QtQtQtQtQtQtQtQt#x.f.q.q.q.q#y#zQtQtQtQtQtQtQtQtQtQtQtQtQtQtQtQtQtQtQtQtQtQtQtQtQtQtQtQtQtQtQtQt#A#B.q.q.q.q#C.aQtQtQtQtQtQtQtQt",
"QtQtQtQtQtQtQt#D#E.q.q.q.q#F#zQtQtQtQtQtQtQtQtQtQtQtQtQtQtQtQtQtQtQtQtQtQtQtQtQtQtQtQtQtQtQtQtQtQt#G#H.q.q.q.q#I#JQtQtQtQtQtQtQt",
"QtQtQtQtQtQtQt.j.q.q.q.q.O.0QtQtQtQtQtQtQtQtQtQtQtQtQtQtQtQt.X#l#K#nQtQtQtQtQtQtQtQtQtQtQtQtQtQtQtQt#n.x.q.q.q.q.cQtQtQtQtQtQtQt",
"QtQtQtQtQtQt#L.N.q.q.q.q#qQtQtQtQtQtQtQtQtQtQtQtQtQtQtQtQt#h#M.q.q#F#GQtQtQtQtQtQtQtQtQtQtQtQtQtQtQtQt.a#C.q.q.q#e#NQtQtQtQtQtQt",
"QtQtQtQtQtQt#O.q.q.q.q.U.9QtQtQtQtQtQtQtQtQtQtQtQtQtQtQtQt#x.q.q.q.q#rQtQtQtQtQtQtQtQtQtQtQtQtQtQtQtQtQt.z.q.q.q.q#E#pQtQtQtQtQt",
"QtQtQtQtQt#P.T.q.q.q.N.8QtQtQtQtQtQtQtQtQtQtQtQtQtQtQtQtQt#x.D.q.q.q#QQtQtQtQtQtQtQtQtQtQtQtQtQtQtQtQtQt#R#S.q.q.q#e#TQtQtQtQtQt",
"QtQtQtQtQt.7.q.q.q.q#UQtQtQtQtQtQtQtQtQtQtQtQtQtQtQtQtQtQt#x.D.q.q.q#QQtQtQtQtQtQtQtQtQtQtQtQtQtQtQtQtQtQt#V.q.q.q.q.2.mQtQtQtQt",
"QtQtQtQt#g.f.q.q.q#W#JQtQtQtQtQtQtQtQtQtQtQtQtQtQtQtQtQtQt#x.D.q.q.q#QQtQtQtQtQtQtQtQtQtQtQtQtQtQtQtQtQtQt#X.M.q.q.q#C.BQtQtQtQt",
"QtQtQtQt#Y.q.q.q.q#ZQtQtQtQtQtQtQtQtQtQtQtQtQtQtQtQtQtQtQt#x.D.q.q.q#QQtQtQtQtQtQtQtQtQtQtQtQtQtQtQtQtQtQtQt#0.q.q.q.q#1QtQtQtQt",
"QtQtQtQt#2.q.q.q.T#3QtQtQtQtQtQtQtQtQtQtQtQtQtQtQtQtQtQtQt#x.D.q.q.q#QQtQtQtQtQtQtQtQtQtQtQtQtQtQtQtQtQtQtQt.Q#j.q.q.q#H.ZQtQtQt",
"QtQtQt#4.H.q.q.q.UQtQtQtQtQtQtQtQtQtQtQtQtQtQtQtQtQtQtQtQt#x.D.q.q.q#QQtQtQtQtQtQtQtQtQtQtQtQtQtQtQtQtQtQtQtQt#5.q.q.q#e#xQtQtQt",
"QtQtQt.W.q.q.q.q.VQtQtQtQtQtQtQtQtQtQtQtQtQtQtQtQtQtQtQtQt#x.D.q.q.q#QQtQtQtQtQtQtQtQtQtQtQtQtQtQtQtQtQtQtQtQt#q.q.q.q.q#6QtQtQt",
"QtQtQt#c.q.q.q#e.WQtQtQtQtQtQtQtQtQtQtQtQtQtQtQtQtQtQtQtQt#x.D.q.q.q#QQtQtQtQtQtQtQtQtQtQtQtQtQtQtQtQtQtQtQtQt#7.D.q.q.q#ZQtQtQt",
"QtQtQt#8.q.q.q#9a.QtQtQtQtQtQtQtQtQtQtQtQtQtQtQtQtQtQtQtQt#x.D.q.q.q#QQtQtQtQtQtQtQtQtQtQtQtQtQtQtQtQtQtQtQtQt.Y.6.q.q.q.2QtQtQt",
"QtQtQta#.q.q.q#I#DQtQtQtQtQtQtQtQtQtQtQtQtQtQtQtQtQtQtQtQt.v.D.q.q.q.kQtQtQtQtQtQtQtQtQtQtQtQtQtQtQtQtQtQtQtQt.9aa.q.q.q.MQtQtQt",
"QtQtQt#F.q.q.q.2.9QtQtQtQtQtQtQtQtabac#x#x#x#x#x#x#x#x#x#xadae.q.q.q#K#x#x#x#x#x#x#x#x#x#x#x.QQtQtQtQtQtQtQtQtQt.w.q.q.q#tQtQtQt",
"QtQtQtaf.q.q.q#5QtQtQtQtQtQtQtQtagahai.D.D.D.D.D.D.D.D.D.Dae.q.q.q.qae.D.D.D.D.D.D.D.D.D.D.D.IajQtQtQtQtQtQtQtQtak.q.q.qafQtQtQt",
"QtQtQt.f.q.q.q.KQtQtQtQtQtQtQtQt.1.q.q.q.q.q.q.q.q.q.q.q.q.q.q.q.q.q.q.q.q.q.q.q.q.q.q.q.q.q.q.cQtQtQtQtQtQtQtQt#1.q.q.q.fQtQtQt",
"QtQtQt.f.q.q.q.KQtQtQtQtQtQtQtQtal.q.q.q.q.q.q.q.q.q.q.q.q.q.q.q.q.q.q.q.q.q.q.q.q.q.q.q.q.q.q.CQtQtQtQtQtQtQtQt#1.q.q.q.fQtQtQt",
"QtQtQtaf.q.q.qamQtQtQtQtQtQtQtQt#7an.q.q.q.q.q.q.q.q.q.q.q.q.q.q.q.q.q.q.q.q.q.q.q.q.q.q.q.q.f.0QtQtQtQtQtQtQtQt.j.q.q.qafQtQtQt",
"QtQtQtao.q.q.q.p.9QtQtQtQtQtQtQtQt.uap#Q#Q#Q#Q#Q#Q#Q#Q#Q#Q#Kae.q.q.q.P#Q#Q#Q#Q#Q#Q#Q#Q#Q#Q#Q#PQtQtQtQtQtQtQtQtQtaq.q.q.q.3QtQtQt",
"QtQtQt.h.q.q.q#warQtQtQtQtQtQtQtQtQtQtQtQtQtQtQtQtQtQtQtQt#P.D.q.q.qasQtQtQtQtQtQtQtQtQtQtQtQtQtQtQtQtQtQtQtQt.9at.q.q.qauQtQtQt",
"QtQtQtav.q.q.q.r.#QtQtQtQtQtQtQtQtQtQtQtQtQtQtQtQtQtQtQtQt#x.D.q.q.q#QQtQtQtQtQtQtQtQtQtQtQtQtQtQtQtQtQtQtQtQt#Daw.q.q.qaxQtQtQt",
"QtQtQt#1.q.q.q#e.0QtQtQtQtQtQtQtQtQtQtQtQtQtQtQtQtQtQtQtQt#x.D.q.q.q#QQtQtQtQtQtQtQtQtQtQtQtQtQtQtQtQtQtQtQtQt#3.D.q.q.qayQtQtQt",
"QtQtQt.k.q.q.q.qazQtQtQtQtQtQtQtQtQtQtQtQtQtQtQtQtQtQtQtQt#x.D.q.q.q#QQtQtQtQtQtQtQtQtQtQtQtQtQtQtQtQtQtQtQtQt#r.q.q.q.q#dQtQtQt",
"QtQtQta..T.q.q.qaAQtQtQtQtQtQtQtQtQtQtQtQtQtQtQtQtQtQtQtQt#x.D.q.q.q#QQtQtQtQtQtQtQtQtQtQtQtQtQtQtQtQtQtQtQtQtaB.q.q.q.q#zQtQtQt",
"QtQtQt#p.S.q.q.qafa.QtQtQtQtQtQtQtQtQtQtQtQtQtQtQtQtQtQtQt#x.D.q.q.q#QQtQtQtQtQtQtQtQtQtQtQtQtQtQtQtQtQtQtQtaC.I.q.q.q#yaDQtQtQt",
"QtQtQtQt.t.q.q.q.q##QtQtQtQtQtQtQtQtQtQtQtQtQtQtQtQtQtQtQt#x.D.q.q.q#QQtQtQtQtQtQtQtQtQtQtQtQtQtQtQtQtQtQtQt#Y.q.q.q.q#UQtQtQtQt",
"QtQtQtQtaE.T.q.q.q#IaFQtQtQtQtQtQtQtQtQtQtQtQtQtQtQtQtQtQt#x.D.q.q.q#QQtQtQtQtQtQtQtQtQtQtQtQtQtQtQtQtQtQt.9#E.q.q.q.qaGQtQtQtQt",
"QtQtQtQtQt#8.q.q.q.qazQtQtQtQtQtQtQtQtQtQtQtQtQtQtQtQtQtQt#x.D.q.q.q#QQtQtQtQtQtQtQtQtQtQtQtQtQtQtQtQtQtQtaH.q.q.q.q.SaIQtQtQtQt",
"QtQtQtQtQtac.D.q.q.q#t.nQtQtQtQtQtQtQtQtQtQtQtQtQtQtQtQtQt#x.D.q.q.q#QQtQtQtQtQtQtQtQtQtQtQtQtQtQtQtQtQtaD#M.q.q.q.q.kQtQtQtQtQt",
"QtQtQtQtQtQtaA.q.q.q.qaJQtQtQtQtQtQtQtQtQtQtQtQtQtQtQtQtQtaj.q.q.q.q#rQtQtQtQtQtQtQtQtQtQtQtQtQtQtQtQtQt#f.q.q.q.qaKarQtQtQtQtQt",
"QtQtQtQtQtQt.A.T.q.q.q.qaLQtQtQtQtQtQtQtQtQtQtQtQtQtQtQtQtaMaN.q.q.r#PQtQtQtQtQtQtQtQtQtQtQtQtQtQtQtQtaO#b.q.q.q.qaHQtQtQtQtQtQt",
"QtQtQtQtQtQtQt.P.q.q.q.q.f#xQtQtQtQtQtQtQtQtQtQtQtQtQtQtQtQtac#oaPaQQtQtQtQtQtQtQtQtQtQtQtQtQtQtQtQta.#a.q.q.q.q#2QtQtQtQtQtQtQt",
"QtQtQtQtQtQtQtaR#M.q.q.q.qaS#GQtQtQtQtQtQtQtQtQtQtQtQtQtQtQtQtQtQtQtQtQtQtQtQtQtQtQtQtQtQtQtQtQtQtaTaU.q.q.q.q#F.lQtQtQtQtQtQtQt",
"QtQtQtQtQtQtQtQt.0#b.q.q.q.q#B#AQtQtQtQtQtQtQtQtQtQtQtQtQtQtQtQtQtQtQtQtQtQtQtQtQtQtQtQtQtQtQtQtaTaV.q.q.q.q.qaWQtQtQtQtQtQtQtQt",
"QtQtQtQtQtQtQtQtQt#c.q.q.q.q.qaX#7QtQtQtQtQtQtQtQtQtQtQtQtQtQtQtQtQtQtQtQtQtQtQtQtQtQtQtQtQtQt.l.S.q.q.q.q.q#ZQtQtQtQtQtQtQtQtQt",
"QtQtQtQtQtQtQtQtQtQt#k.q.q.q.q.q#t.aQtQtQtQtQtQtQtQtQtQtQtQtQtQtQtQtQtQtQtQtQtQtQtQtQtQtQtQt#uaY.q.q.q.q.q.iarQtQtQtQtQtQtQtQtQt",
"QtQtQtQtQtQtQtQtQtQtQt#o.q.q.q.q.q#C.z#4QtQtQtQtQtQtQtQtQtQtQtQtQtQtQtQtQtQtQtQtQtQtQtQtaZ#f#b.q.q.q.q.q#OarQtQtQtQtQtQtQtQtQtQt",
"QtQtQtQtQtQtQtQtQtQtQt#p.w.q.q.q.q.q.q#I#6.ZQtQtQtQtQtQtQtQtQtQtQtQtQtQtQtQtQtQtQtQt#pap#B.q.q.q.q.q.q.i.ZQtQtQtQtQtQtQtQtQtQtQt",
"QtQtQtQtQtQtQtQtQtQtQtQtQt#i#C.q.q.q.q.q.qa0#d#JQtQtQtQtQtQtQtQtQtQtQtQtQtQtQtQtabaWa1.q.q.q.q.q.q.q#Z#DQtQtQtQtQtQtQtQtQtQtQtQt",
"QtQtQtQtQtQtQtQtQtQtQtQtQtQta2aS.q.q.q.q.q.q.q.6#5#q#7aCQtQtQtQtQtQtQtQt.Ya3adaB#a.q.q.q.q.q.q.q#Wa4QtQtQtQtQtQtQtQtQtQtQtQtQtQt",
"QtQtQtQtQtQtQtQtQtQtQtQtQtQtQta5a6.q.q.q.q.q.q.q.q.qaiaN.Ea7#1az.j#1a8.p.I#9.q.q.q.q.q.q.q.q.qat#GQtQtQtQtQtQtQtQtQtQtQtQtQtQtQt",
"QtQtQtQtQtQtQtQtQtQtQtQtQtQtQtQtQta2a1.q.q.q.q.q.q.q.q.q.q.q.q.q.q.q.q.q.q.q.q.q.q.q.q.q.qa9apQtQtQtQtQtQtQtQtQtQtQtQtQtQtQtQtQt",
"QtQtQtQtQtQtQtQtQtQtQtQtQtQtQtQtQtQt#pb..p#b.q.q.q.q.q.q.q.q.q.q.q.q.q.q.q.q.q.q.q.q#eb#aHaCQtQtQtQtQtQtQtQtQtQtQtQtQtQtQtQtQtQt",
"QtQtQtQtQtQtQtQtQtQtQtQtQtQtQtQtQtQtQtQtQt#x#1aX.D.q.q.q.q.q.q.q.q.q.q.q.q.q.q#C#Iba#TaIQtQtQtQtQtQtQtQtQtQtQtQtQtQtQtQtQtQtQtQt",
"QtQtQtQtQtQtQtQtQtQtQtQtQtQtQtQtQtQtQtQtQtQtQt.Gajbb.7.J.Man.f.f.f.f.xaKbcbdbebfaCQtQtQtQtQtQtQtQtQtQtQtQtQtQtQtQtQtQtQtQtQtQtQt",
"QtQtQtQtQtQtQtQtQtQtQtQtQtQtQtQtQtQtQtQtQtQtQtQtQtQtQtQtQtQtQtQtQtQtQtQtQtQtQtQtQtQtQtQtQtQtQtQtQtQtQtQtQtQtQtQtQtQtQtQtQtQtQtQt",
"QtQtQtQtQtQtQtQtQtQtQtQtQtQtQtQtQtQtQtQtQtQtQtQtQtQtQtQtQtQtQtQtQtQtQtQtQtQtQtQtQtQtQtQtQtQtQtQtQtQtQtQtQtQtQtQtQtQtQtQtQtQtQtQt",
"QtQtQtQtQtQtQtQtQtQtQtQtQtQtQtQtQtQtQtQtQtQtQtQtQtQtQtQtQtQtQtQtQtQtQtQtQtQtQtQtQtQtQtQtQtQtQtQtQtQtQtQtQtQtQtQtQtQtQtQtQtQtQtQt"};
