/* XPM */
static char *dummy[]={
"64 64 206 2",
".s c #000000",
"#e c #010101",
".L c #020202",
"aJ c #030303",
".M c #040404",
".t c #050505",
".N c #060606",
"#2 c #070707",
".r c #080808",
"#h c #090909",
".T c #0a0a0a",
"#L c #0b0b0b",
".7 c #0c0c0c",
"aG c #0d0d0d",
".O c #0e0e0e",
".g c #0f0f0f",
".f c #101010",
"aF c #111111",
".K c #121212",
"aq c #131313",
".G c #141414",
"ap c #151515",
"#5 c #161616",
".h c #171717",
"bk c #181818",
".F c #191919",
"#W c #1a1a1a",
".e c #1b1b1b",
"ak c #1c1c1c",
".B c #1d1d1d",
"af c #1e1e1e",
"#u c #202020",
".A c #222222",
"#Y c #232323",
"#R c #242424",
"aL c #252525",
"aU c #262626",
"ag c #272727",
"bc c #282828",
"aE c #292929",
".u c #2a2a2a",
"aD c #2b2b2b",
".U c #2d2d2d",
"a0 c #2e2e2e",
"am c #303030",
"bb c #313131",
"a8 c #323232",
".6 c #333333",
"#w c #343434",
".i c #353535",
".8 c #363636",
".q c #373737",
"bd c #383838",
"aQ c #393939",
".d c #3b3b3b",
"#C c #3c3c3c",
"ba c #3d3d3d",
"#r c #3e3e3e",
"#O c #3f3f3f",
"aS c #404040",
".S c #434343",
"b# c #464646",
"aN c #474747",
"a. c #484848",
"#T c #494949",
"#y c #4a4a4a",
"#6 c #4b4b4b",
"#t c #4d4d4d",
"#o c #4f4f4f",
"#n c #505050",
"a7 c #515151",
"ac c #525252",
"as c #535353",
"#i c #555555",
"#B c #565656",
"ar c #585858",
"a4 c #595959",
".V c #5a5a5a",
"aY c #5b5b5b",
"a3 c #5c5c5c",
".5 c #5d5d5d",
"#k c #5f5f5f",
"#q c #606060",
".j c #616161",
"ao c #626262",
"bh c #636363",
"aa c #656565",
"#3 c #666666",
"#8 c #676767",
"bl c #686868",
"#P c #6a6a6a",
"ah c #6b6b6b",
"be c #6c6c6c",
"#U c #6d6d6d",
".c c #6e6e6e",
".v c #6f6f6f",
"#E c #707070",
"aA c #737373",
"#g c #757575",
".H c #767676",
"#I c #777777",
".p c #787878",
".P c #797979",
"a6 c #7a7a7a",
".W c #7c7c7c",
"#H c #7d7d7d",
"#f c #7e7e7e",
"b. c #7f7f7f",
"aO c #818181",
".z c #828282",
".E c #838383",
"#Q c #858585",
".4 c #868686",
"## c #888888",
"at c #898989",
".J c #8a8a8a",
"#S c #8b8b8b",
"#M c #8e8e8e",
"#J c #909090",
"#. c #929292",
"aV c #959595",
"aw c #969696",
"#v c #979797",
".k c #989898",
"#0 c #999999",
"az c #9c9c9c",
".b c #9d9d9d",
"aH c #9e9e9e",
"au c #9f9f9f",
"a2 c #a0a0a0",
"aC c #a1a1a1",
"bg c #a2a2a2",
".X c #a3a3a3",
"aM c #a4a4a4",
"bj c #a5a5a5",
"aP c #a6a6a6",
".3 c #a7a7a7",
"an c #a9a9a9",
"aI c #aaaaaa",
"aX c #adadad",
"aK c #afafaf",
"ay c #b0b0b0",
"aW c #b1b1b1",
".w c #b2b2b2",
"aj c #b4b4b4",
"a1 c #b5b5b5",
"#1 c #b7b7b7",
".o c #bababa",
"ai c #bbbbbb",
"a5 c #bcbcbc",
"#j c #bdbdbd",
"bi c #bebebe",
".9 c #c0c0c0",
"#N c #c1c1c1",
".Y c #c2c2c2",
"al c #c3c3c3",
"a9 c #c4c4c4",
".2 c #c8c8c8",
"aB c #c9c9c9",
".Z c #cacaca",
".R c #cbcbcb",
"ad c #cccccc",
".l c #cdcdcd",
"#K c #cfcfcf",
".0 c #d0d0d0",
".1 c #d1d1d1",
"bf c #d2d2d2",
".a c #d5d5d5",
"#p c #d6d6d6",
"#9 c #d7d7d7",
".C c #d8d8d8",
"ae c #d9d9d9",
"a# c #dadada",
"#a c #dbdbdb",
"#Z c #dcdcdc",
"av c #dddddd",
".D c #dedede",
"#d c #dfdfdf",
"#x c #e0e0e0",
"ax c #e2e2e2",
"#V c #e3e3e3",
".y c #e4e4e4",
"aZ c #e5e5e5",
"#z c #e6e6e6",
"#4 c #e8e8e8",
"#l c #e9e9e9",
".x c #eaeaea",
"#s c #ebebeb",
"#A c #ececec",
"#X c #efefef",
".n c #f0f0f0",
".Q c #f1f1f1",
"ab c #f2f2f2",
"#D c #f3f3f3",
"#F c #f4f4f4",
"#m c #f5f5f5",
"#7 c #f6f6f6",
".m c #f7f7f7",
"#b c #f8f8f8",
"aT c #f9f9f9",
"#c c #fafafa",
".# c #fbfbfb",
".I c #fcfcfc",
"aR c #fdfdfd",
"#G c #fefefe",
"Qt c none",
"QtQtQtQtQtQtQtQtQtQtQtQtQtQtQtQtQtQtQtQtQtQtQt.#.a.b.c.d.e.f.g.g.g.g.g.h.i.j.k.l.mQtQtQtQtQtQtQtQtQtQtQtQtQtQtQtQtQtQtQtQtQtQtQt",
"QtQtQtQtQtQtQtQtQtQtQtQtQtQtQtQtQtQtQtQt.n.o.p.q.r.s.s.s.s.s.s.s.s.s.s.s.s.s.s.t.u.v.w.xQtQtQtQtQtQtQtQtQtQtQtQtQtQtQtQtQtQtQtQt",
"QtQtQtQtQtQtQtQtQtQtQtQtQtQtQtQtQtQt.y.z.A.s.s.s.s.s.s.s.s.s.s.s.s.s.s.s.s.s.s.s.s.s.s.B.p.CQtQtQtQtQtQtQtQtQtQtQtQtQtQtQtQtQtQt",
"QtQtQtQtQtQtQtQtQtQtQtQtQtQtQtQt.D.E.F.s.s.s.s.s.s.s.s.s.s.s.s.s.s.s.s.s.s.s.s.s.s.s.s.s.s.G.H.aQtQtQtQtQtQtQtQtQtQtQtQtQtQtQtQt",
"QtQtQtQtQtQtQtQtQtQtQtQtQtQt.I.J.K.s.s.s.s.s.s.s.s.s.s.s.s.L.M.N.N.M.M.s.s.s.s.s.s.s.s.s.s.s.s.O.P.QQtQtQtQtQtQtQtQtQtQtQtQtQtQt",
"QtQtQtQtQtQtQtQtQtQtQtQtQt.R.S.s.s.s.s.s.s.s.s.s.T.U.V.W.X.Y.Z.0.1.Z.2.3.4.5.6.7.s.s.s.s.s.s.s.s.s.8.9QtQtQtQtQtQtQtQtQtQtQtQtQt",
"QtQtQtQtQtQtQtQtQtQtQtQt#..O.s.s.s.s.s.s.s.s.i###a#bQtQtQtQtQtQtQtQtQtQtQtQt#c#d#..S#e.s.s.s.s.s.s.s.M#fQtQtQtQtQtQtQtQtQtQtQtQt",
"QtQtQtQtQtQtQtQtQtQt.m#g.s.s.s.s.s.s.s#h#i.w#cQtQtQtQtQtQtQtQtQtQtQtQtQtQtQtQtQtQtQt#j#k.O.s.s.s.s.s.s.s#k#lQtQtQtQtQtQtQtQtQtQt",
"QtQtQtQtQtQtQtQtQt#m#n.s.s.s.s.s.s.s#o.RQtQtQtQtQtQtQtQtQtQtQtQtQtQtQtQtQtQtQtQtQtQtQtQt#p#q.s.s.s.s.s.s.s#r#sQtQtQtQtQtQtQtQtQt",
"QtQtQtQtQtQtQtQt#m#t.s.s.s.s.s.s#u#vQtQtQtQtQtQtQtQtQtQtQtQtQtQtQtQtQtQtQtQtQtQtQtQtQtQtQtQt.3.U.s.s.s.s.s.s#w#xQtQtQtQtQtQtQtQt",
"QtQtQtQtQtQtQt.m#o.s.s.s.s.s.s#y#zQtQtQtQtQtQtQtQtQtQtQtQtQtQtQtQtQtQtQtQtQtQtQtQtQtQtQtQtQtQt#A#B.s.s.s.s.s.s#C#DQtQtQtQtQtQtQt",
"QtQtQtQtQtQtQt#E.s.s.s.s.s.s.v#FQtQtQtQtQtQtQtQtQtQtQtQtQtQtQtQtQtQtQtQtQtQtQtQtQtQtQtQtQtQtQtQt#G#H.s.s.s.s.s.s#B.mQtQtQtQtQtQt",
"QtQtQtQtQtQt#..s.s.s.s.s.s#IQtQtQtQtQtQtQtQtQtQtQtQtQtQtQtQtQtQtQtQtQtQtQtQtQtQtQtQtQtQtQtQtQtQtQtQt#J.s.s.s.s.s.s.HQtQtQtQtQtQt",
"QtQtQtQtQt#K#L.s.s.s.s.s#IQtQtQtQtQtQtQtQtQtQtQtQtQtQtQtQtQtQtQtQtQtQtQtQtQtQtQtQtQtQtQtQtQtQtQtQtQtQt#M.s.s.s.s.s.r#NQtQtQtQtQt",
"QtQtQtQt.I#O.s.s.s.s.s#PQtQtQtQtQtQtQtQtQtQtQtQtQtQtQtQtQtQtQtQtQtQtQtQtQtQtQtQtQtQtQtQtQtQtQtQtQtQtQtQt#Q.s.s.s.s.s#R.xQtQtQtQt",
"QtQtQtQt#S.s.s.s.s.s#T#FQtQtQtQtQtQtQtQtQtQtQtQtQtQtQtQtQtQtQtQtQtQtQtQtQtQtQtQtQtQtQtQtQtQtQtQtQtQtQtQtQt#q.s.s.s.s.s#UQtQtQtQt",
"QtQtQt#V.O.s.s.s.s#W.xQtQtQtQtQtQtQtQtQtQtQtQtQtQtQtQtQtQtQtQtQtQtQtQtQtQtQtQtQtQtQtQtQtQtQtQtQtQtQtQtQtQt#X#Y.s.s.s.s#L#ZQtQtQt",
"QtQtQt.z.s.s.s.s.s#0QtQtQtQtQtQtQtQtQtQtQtQtQtQtQtQtQtQtQtQtQtQtQtQtQtQtQtQtQtQtQtQtQtQtQtQtQtQtQtQtQtQtQtQt#1#2.s.s.s.s#3QtQtQt",
"QtQt#4#5.s.s.s.s#6QtQtQtQtQtQtQtQtQtQtQtQtQtQtQtQtQtQtQtQtQtQtQtQtQtQtQtQtQtQtQtQtQt#DQtQtQtQtQtQtQtQtQtQtQtQt#U.s.s.s.s.M.RQtQt",
"QtQt.E.s.s.s.s#h.0QtQtQtQtQtQtQtQtQtQt#7#M#B#8.RQtQtQtQtQtQtQtQtQtQtQtQtQtQtQtQt#9.V#Wa.#KQtQtQtQtQtQtQtQtQtQta#.T.s.s.s.saaQtQt",
"Qtab#u.s.s.s.sacQtQtQtQtQtQtQtQtQtQtQt#M.s.s.s#5adQtQtQtQtQtQtQtQtQtQtQtQtQtQtaeaf.s.s.sag#FQtQtQtQtQtQtQtQtQtQtah.s.s.s.s#W.nQt",
"Qtai.s.s.s.s.sajQtQtQtQtQtQtQtQtQtQtQt#n.s.s.s.sakalQtQtQtQtQtQtQtQtQtQtQtQt#pam.s.s.s.s.s.ZQtQtQtQtQtQtQtQtQtQt#9#L.s.s.s.sanQt",
"Qt.P.s.s.s.s.6.#QtQtQtQtQtQtQtQtQtQtQtao.s.s.s.s.sapadQtQtQtQtQtQtQtQtQtQtaeaf.s.s.s.s.saq#zQtQtQtQtQtQtQtQtQtQtQtar.s.s.s.sasQt",
".#.8.s.s.s.satQtQtQtQtQtQtQtQtQtQtQtQt.Z#5.s.s.s.s.sakalQtQtQtQtQtQtQtQt#pam.s.s.s.s.s.tauQtQtQtQtQtQtQtQtQtQtQtQt.X.s.s.s.s#5#s",
"#p.t.s.s.s.ravQtQtQtQtQtQtQtQtQtQtQtQtQt.R.e.s.s.s.s.sapadQtQtQtQtQtQtaeaf.s.s.s.s.s.sawQtQtQtQtQtQtQtQtQtQtQtQtQtax#h.s.s.s.say",
"az.s.s.s.s.U.#QtQtQtQtQtQtQtQtQtQtQtQtQtQtal#5.s.s.s.s.sakalQtQtQtQt#pam.s.s.s.s.s.tawQtQtQtQtQtQtQtQtQtQtQtQtQtQt.I.8.s.s.s.s.P",
"aA.s.s.s.s.VQtQtQtQtQtQtQtQtQtQtQtQtQtQtQtQt.R.e.s.s.s.s.sapadQtQtaeaf.s.s.s.s.s.sawQtQtQtQtQtQtQtQtQtQtQtQtQtQtQtQtaA.s.s.s.s.V",
"#6.s.s.s.s#HQtQtQtQtQtQtQtQtQtQtQtQtQtQtQtQtQtal#5.s.s.s.s.sakaB#Zam.s.s.s.s.s.tawQtQtQtQtQtQtQtQtQtQtQtQtQtQtQtQtQtaC.s.s.s.s#C",
"aD.s.s.s.s.XQtQtQtQtQtQtQtQtQtQtQtQtQtQtQtQtQtQt.R.e.s.s.s.s.s.Gak.s.s.s.s.s.sawQtQtQtQtQtQtQtQtQtQtQtQtQtQtQtQtQtQt.2.M.s.s.saE",
".g.s.s.s.L#jQtQtQtQtQtQtQtQtQtQtQtQtQtQtQtQtQtQtQtal#5.s.s.s.s.s.s.s.s.s.s.tawQtQtQtQtQtQtQtQtQtQtQtQtQtQtQtQtQtQtQt#V#L.s.s.saF",
".g.s.s.s.MadQtQtQtQtQtQtQtQtQtQtQtQtQtQtQtQtQtQtQtQt.R.e.s.s.s.s.s.s.s.s.sawQtQtQtQtQtQtQtQtQtQtQtQtQtQtQtQtQtQtQtQtab.f.s.s.s.O",
".g.s.s.s.M.ZQtQtQtQtQtQtQtQtQtQtQtQtQtQtQtQtQtQtQtQtQtaB.F.s.s.s.s.s.saGaHQtQtQtQtQtQtQtQtQtQtQtQtQtQtQtQtQtQtQtQtQt.n.g.s.s.s.g",
".g.s.s.s.M.ZQtQtQtQtQtQtQtQtQtQtQtQtQtQtQtQtQtQtQtQtQt#xaf.s.s.s.s.s.sap.ZQtQtQtQtQtQtQtQtQtQtQtQtQtQtQtQtQtQtQtQtQt.n.g.s.s.s.g",
".g.s.s.s.M.RQtQtQtQtQtQtQtQtQtQtQtQtQtQtQtQtQtQtQtQt#pam.s.s.s.s.s.s.s.s.OaIQtQtQtQtQtQtQtQtQtQtQtQtQtQtQtQtQtQtQtQt.Q.g.s.s.s.g",
".O.s.s.saJalQtQtQtQtQtQtQtQtQtQtQtQtQtQtQtQtQtQtQtaeaf.s.s.s.s.s.s.s.s.s.s.raKQtQtQtQtQtQtQtQtQtQtQtQtQtQtQtQtQtQtQt#laG.s.s.s.O",
"aL.s.s.s.saMQtQtQtQtQtQtQtQtQtQtQtQtQtQtQtQtQtQt#pam.s.s.s.s.s.N.K.s.s.s.s.s#LaIQtQtQtQtQtQtQtQtQtQtQtQtQtQtQtQtQtQtaB.M.s.s.s#u",
"aN.s.s.s.saOQtQtQtQtQtQtQtQtQtQtQtQtQtQtQtQtQtaeaf.s.s.s.s.s.s.b#K.e.s.s.s.s.s.raKQtQtQtQtQtQtQtQtQtQtQtQtQtQtQtQtQtaP.s.s.s.saQ",
"#P.s.s.s.s.5QtQtQtQtQtQtQtQtQtQtQtQtQtQtQtQt#pam.s.s.s.s.s.tawQtQtal#5.s.s.s.s.s#LaIQtQtQtQtQtQtQtQtQtQtQtQtQtQtQtQt.p.s.s.s.s#B",
".k.s.s.s.s#waRQtQtQtQtQtQtQtQtQtQtQtQtQtQtaeaf.s.s.s.s.s.sawQtQtQtQt.R.e.s.s.s.s.s.raKQtQtQtQtQtQtQtQtQtQtQtQtQtQt#GaS.s.s.s.s.H",
"#K.t.s.s.s#LaxQtQtQtQtQtQtQtQtQtQtQtQtQt#pam.s.s.s.s.s.tawQtQtQtQtQtQtal#5.s.s.s.s.s#LaIQtQtQtQtQtQtQtQtQtQtQtQtQt#z#L.s.s.s.s.3",
"aTaU.s.s.s.saVQtQtQtQtQtQtQtQtQtQtQtQt.Caf.s.s.s.s.s.sawQtQtQtQtQtQtQtQt.R.e.s.s.s.s.s.raWQtQtQtQtQtQtQtQtQtQtQtQtaX.s.s.s.s.g#z",
"Qt.v.s.s.s.s#CaRQtQtQtQtQtQtQtQtQtQt#GaY.s.s.s.s.s.tawQtQtQtQtQtQtQtQtQtQtal#5.s.s.s.s.sapaZQtQtQtQtQtQtQtQtQtQtQt.j.s.s.s.s#6Qt",
"Qtaj.s.s.s.s#e.9QtQtQtQtQtQtQtQtQtQt.#a0.s.s.s.s.sawQtQtQtQtQtQtQtQtQtQtQtQt.R.e.s.s.s.s.sa1QtQtQtQtQtQtQtQtQtQtax.O.s.s.s.sa2Qt",
"Qt#A#W.s.s.s.sa3QtQtQtQtQtQtQtQtQtQtaRa4.s.s.saJawQtQtQtQtQtQtQtQtQtQtQtQtQtQtal#5.s.s.s.7#ZQtQtQtQtQtQtQtQtQtQt#I.s.s.s.s#5#4Qt",
"QtQt#I.s.s.s.s.7avQtQtQtQtQtQtQtQtQtQta#.S.gaL.XQtQtQtQtQtQtQtQtQtQtQtQtQtQtQtQt.R.8.gaLaWQtQtQtQtQtQtQtQtQtQt.y.g.s.s.s.saYQtQt",
"QtQt#aaq.s.s.s.s.5QtQtQtQtQtQtQtQtQtQtQtQt.n#7QtQtQtQtQtQtQtQtQtQtQtQtQtQtQtQtQtQt.#.n#7QtQtQtQtQtQtQtQtQtQtQt.W.s.s.s.s.La5QtQt",
"QtQtQta6.s.s.s.s.sanQtQtQtQtQtQtQtQtQtQtQtQtQtQtQtQtQtQtQtQtQtQtQtQtQtQtQtQtQtQtQtQtQtQtQtQtQtQtQtQtQtQtQtQt.2#L.s.s.s.sa7QtQtQt",
"QtQtQt.C.T.s.s.s.saE#XQtQtQtQtQtQtQtQtQtQtQtQtQtQtQtQtQtQtQtQtQtQtQtQtQtQtQtQtQtQtQtQtQtQtQtQtQtQtQtQtQtQt#D.i.s.s.s.s#h#KQtQtQt",
"QtQtQtQt.P.s.s.s.s.s#iaRQtQtQtQtQtQtQtQtQtQtQtQtQtQtQtQtQtQtQtQtQtQtQtQtQtQtQtQtQtQtQtQtQtQtQtQtQtQtQtQtQt.p.s.s.s.s.s.5QtQtQtQt",
"QtQtQtQtaba8.s.s.s.s.s#HQtQtQtQtQtQtQtQtQtQtQtQtQtQtQtQtQtQtQtQtQtQtQtQtQtQtQtQtQtQtQtQtQtQtQtQtQtQtQtQt#0.L.s.s.s.s.e#ZQtQtQtQt",
"QtQtQtQtQta9#e.s.s.s.s#e#JQtQtQtQtQtQtQtQtQtQtQtQtQtQtQtQtQtQtQtQtQtQtQtQtQtQtQtQtQtQtQtQtQtQtQtQtQtQtaP.L.s.s.s.s.s.wQtQtQtQtQt",
"QtQtQtQtQtQtb..s.s.s.s.s.s#MQtQtQtQtQtQtQtQtQtQtQtQtQtQtQtQtQtQtQtQtQtQtQtQtQtQtQtQtQtQtQtQtQtQtQtQtaP#L.s.s.s.s.s#3QtQtQtQtQtQt",
"QtQtQtQtQtQtQt.5.s.s.s.s.s.s#QQtQtQtQtQtQtQtQtQtQtQtQtQtQtQtQtQtQtQtQtQtQtQtQtQtQtQtQtQtQtQtQtQtQt#0#e.s.s.s.s.sb##FQtQtQtQtQtQt",
"QtQtQtQtQtQtQt#sba.s.s.s.s.s.s.j#AQtQtQtQtQtQtQtQtQtQtQtQtQtQtQtQtQtQtQtQtQtQtQtQtQtQtQtQtQtQt#XaA.s.s.s.s.s.sbbaZQtQtQtQtQtQtQt",
"QtQtQtQtQtQtQtQt#sa8.s.s.s.s.s.sbcajQtQtQtQtQtQtQtQtQtQtQtQtQtQtQtQtQtQtQtQtQtQtQtQtQtQtQtQta9bd.s.s.s.s.s.s#Y#xQtQtQtQtQtQtQtQt",
"QtQtQtQtQtQtQtQtQt#d#r.s.s.s.s.s.s.t.v.aQtQtQtQtQtQtQtQtQtQtQtQtQtQtQtQtQtQtQtQtQtQtQtQt.D#f#L.s.s.s.s.s.sam.DQtQtQtQtQtQtQtQtQt",
"QtQtQtQtQtQtQtQtQtQt#D#B.s.s.s.s.s.s.s.ObebfQtQtQtQtQtQtQtQtQtQtQtQtQtQtQtQtQtQtQtQtav.P.K.s.s.s.s.s.s.saN#VQtQtQtQtQtQtQtQtQtQt",
"QtQtQtQtQtQtQtQtQtQtQt#b.H#h.s.s.s.s.s.s.saG.Vbg#x.#QtQtQtQtQtQtQtQtQtQtQtQt#G#VanbhaF.s.s.s.s.s.s.s.s#3#7QtQtQtQtQtQtQtQtQtQtQt",
"QtQtQtQtQtQtQtQtQtQtQtQtQtbiag.s.s.s.s.s.s.s.s.s#L.qaAau.2ax.nab.n.n#4.2bj#IaS.O.s.s.s.s.s.s.s.s.safayQtQtQtQtQtQtQtQtQtQtQtQtQt",
"QtQtQtQtQtQtQtQtQtQtQtQtQtQt#4.c.O.s.s.s.s.s.s.s.s.s.s.s.M.7.gbk.K.gaG.M.s.s.s.s.s.s.s.s.s.s.s#h#ka#QtQtQtQtQtQtQtQtQtQtQtQtQtQt",
"QtQtQtQtQtQtQtQtQtQtQtQtQtQtQtQt#pbl.N.s.s.s.s.s.s.s.s.s.s.s.s.s.s.s.s.s.s.s.s.s.s.s.s.s.s.s#o.RQtQtQtQtQtQtQtQtQtQtQtQtQtQtQtQt",
"QtQtQtQtQtQtQtQtQtQtQtQtQtQtQtQtQtQtaB#3ak.s.s.s.s.s.s.s.s.s.s.s.s.s.s.s.s.s.s.s.s.s.sbk.V.oQtQtQtQtQtQtQtQtQtQtQtQtQtQtQtQtQtQt",
"QtQtQtQtQtQtQtQtQtQtQtQtQtQtQtQtQtQtQtQt#A.3#i.F.s.s.s.s.s.s.s.s.s.s.s.s.s.s.s.saq#tau#zQtQtQtQtQtQtQtQtQtQtQtQtQtQtQtQtQtQtQtQt",
"QtQtQtQtQtQtQtQtQtQtQtQtQtQtQtQtQtQtQtQtQtQtQt#laya6.Vba.uaF.g.g.g.g.faLaQ#i.H.3aZQtQtQtQtQtQtQtQtQtQtQtQtQtQtQtQtQtQtQtQtQtQtQt"};
