/* XPM */
static char *dummy[]={
"64 64 215 2",
".q c #000000",
"#e c #010101",
"#C c #020202",
".D c #040404",
"bj c #050505",
"#b c #060606",
"aq c #070707",
".T c #080808",
".O c #090909",
".r c #0a0a0a",
".y c #0b0b0b",
".N c #0c0c0c",
".H c #0d0d0d",
"ax c #0e0e0e",
".f c #0f0f0f",
".3 c #101010",
"aE c #111111",
".g c #121212",
".x c #141414",
"#F c #151515",
"#t c #161616",
"bq c #171717",
"#1 c #181818",
"#j c #191919",
".e c #1a1a1a",
".6 c #1b1b1b",
"#P c #1c1c1c",
"#y c #1d1d1d",
"ao c #1e1e1e",
"#I c #202020",
"aN c #212121",
".I c #222222",
"bb c #232323",
"#a c #242424",
"aa c #252525",
"#H c #262626",
"#w c #272727",
"ba c #282828",
"a4 c #292929",
"aK c #2a2a2a",
"aH c #2c2c2c",
".M c #2d2d2d",
"#B c #2e2e2e",
"aA c #2f2f2f",
"aQ c #303030",
"aM c #313131",
"aI c #323232",
".h c #333333",
"as c #353535",
".d c #373737",
"#E c #383838",
"a9 c #393939",
"aF c #3a3a3a",
"bn c #3b3b3b",
".S c #3c3c3c",
"be c #3d3d3d",
".s c #3e3e3e",
".U c #414141",
"b. c #424242",
"aO c #434343",
"br c #444444",
"#m c #454545",
"af c #464646",
"aB c #474747",
".E c #484848",
"at c #494949",
".2 c #4a4a4a",
"#3 c #4b4b4b",
".J c #4c4c4c",
".p c #4d4d4d",
"aJ c #4e4e4e",
"ai c #4f4f4f",
".L c #505050",
"#X c #515151",
"an c #525252",
"aV c #535353",
"aL c #545454",
".i c #555555",
"#M c #565656",
"au c #575757",
"az c #585858",
".C c #595959",
".K c #5a5a5a",
"aC c #5c5c5c",
"al c #5d5d5d",
"ah c #5e5e5e",
"aP c #5f5f5f",
".c c #606060",
".z c #616161",
"bi c #626262",
"#5 c #636363",
"aD c #646464",
"#o c #656565",
"#6 c #666666",
"aR c #676767",
"av c #686868",
"bs c #6a6a6a",
".P c #6b6b6b",
"#9 c #6c6c6c",
"bk c #6d6d6d",
".7 c #6e6e6e",
".w c #6f6f6f",
"#k c #707070",
"bl c #717171",
"aG c #727272",
"#R c #737373",
"#f c #747474",
"a. c #757575",
"#Y c #767676",
"a0 c #797979",
"## c #7c7c7c",
".V c #7d7d7d",
"ac c #7f7f7f",
".j c #818181",
"ay c #828282",
".1 c #848484",
"#i c #858585",
"aS c #868686",
"aY c #878787",
"#l c #888888",
"#c c #898989",
".b c #8a8a8a",
"#W c #8d8d8d",
"#d c #8e8e8e",
"bt c #8f8f8f",
"ab c #909090",
"ae c #929292",
"#T c #939393",
".t c #949494",
"am c #959595",
"bp c #969696",
"#0 c #979797",
"#q c #999999",
"bh c #9b9b9b",
"b# c #9c9c9c",
".o c #9d9d9d",
"#8 c #9e9e9e",
"bg c #a0a0a0",
"#r c #a2a2a2",
"a5 c #a3a3a3",
"#s c #a4a4a4",
"bd c #a6a6a6",
".5 c #a7a7a7",
"a2 c #a8a8a8",
".k c #ababab",
"bf c #afafaf",
".W c #b1b1b1",
".a c #b2b2b2",
"#L c #b3b3b3",
".4 c #b4b4b4",
".0 c #b7b7b7",
"#S c #b8b8b8",
"#2 c #b9b9b9",
"#u c #bababa",
"bm c #bcbcbc",
"#Q c #bfbfbf",
"a6 c #c0c0c0",
"aZ c #c1c1c1",
"bu c #c2c2c2",
".F c #c3c3c3",
"#z c #c4c4c4",
".R c #c6c6c6",
".A c #c7c7c7",
"#v c #c8c8c8",
"bo c #c9c9c9",
"#x c #cacaca",
"a3 c #cbcbcb",
".B c #cccccc",
"ap c #cdcdcd",
"#n c #cecece",
"#K c #d0d0d0",
".v c #d1d1d1",
".8 c #d2d2d2",
"a1 c #d3d3d3",
"ad c #d4d4d4",
"#N c #d5d5d5",
"aw c #d6d6d6",
"aT c #d7d7d7",
"#A c #d8d8d8",
"#G c #d9d9d9",
".u c #dadada",
"aX c #dcdcdc",
".l c #dddddd",
".X c #dedede",
"ar c #dfdfdf",
"aU c #e0e0e0",
"#. c #e1e1e1",
".n c #e2e2e2",
".# c #e3e3e3",
"aj c #e4e4e4",
"#g c #e5e5e5",
"#Z c #e6e6e6",
"#O c #e8e8e8",
"#J c #e9e9e9",
"a8 c #eaeaea",
".Q c #ececec",
"ak c #ededed",
"#h c #eeeeee",
"a7 c #efefef",
"#4 c #f0f0f0",
"bc c #f1f1f1",
"#U c #f2f2f2",
"ag c #f3f3f3",
"aW c #f4f4f4",
".Y c #f5f5f5",
".G c #f6f6f6",
"#D c #f7f7f7",
".Z c #f8f8f8",
"a# c #f9f9f9",
"#7 c #fafafa",
"#V c #fbfbfb",
"#p c #fcfcfc",
".m c #fdfdfd",
".9 c #fefefe",
"Qt c none",
"QtQtQtQtQtQtQtQtQtQtQtQtQtQtQtQtQtQtQtQtQtQtQtQtQtQtQtQtQtQtQtQtQtQtQtQtQtQtQtQtQtQtQtQtQtQtQtQtQtQtQtQtQtQtQtQtQtQtQtQtQtQtQtQt",
"QtQtQtQtQtQtQtQtQtQtQtQtQtQtQtQtQtQtQtQtQtQtQtQtQtQtQtQtQtQtQtQtQtQtQtQtQtQtQtQtQtQtQtQtQtQtQtQtQtQtQtQtQtQtQtQtQtQtQtQtQtQtQtQt",
"QtQtQtQtQtQtQtQtQtQtQtQtQtQtQtQtQtQtQtQtQtQtQtQtQtQtQtQtQtQtQtQtQtQtQtQtQtQtQtQtQtQtQtQtQtQtQtQtQtQtQtQtQtQtQtQtQtQtQtQtQtQtQtQt",
"QtQtQtQtQtQtQtQtQtQtQtQtQtQtQtQtQtQtQtQtQtQtQtQt.#.a.b.c.d.e.f.f.f.f.g.h.i.j.k.l.mQtQtQtQtQtQtQtQtQtQtQtQtQtQtQtQtQtQtQtQtQtQtQt",
"QtQtQtQtQtQtQtQtQtQtQtQtQtQtQtQtQtQtQtQtQt.n.o.p.g.q.q.q.q.q.q.q.q.q.q.q.q.q.q.r.s.t.uQtQtQtQtQtQtQtQtQtQtQtQtQtQtQtQtQtQtQtQtQt",
"QtQtQtQtQtQtQtQtQtQtQtQtQtQtQtQtQtQtQt.v.w.x.q.q.q.q.q.q.q.q.q.q.q.q.q.q.q.q.q.q.q.q.y.z.AQtQtQtQtQtQtQtQtQtQtQtQtQtQtQtQtQtQtQt",
"QtQtQtQtQtQtQtQtQtQtQtQtQtQtQtQtQt.B.C.y.q.q.q.q.q.q.q.q.q.q.q.q.q.q.q.q.q.q.q.q.q.q.q.q.D.E.FQtQtQtQtQtQtQtQtQtQtQtQtQtQtQtQtQt",
"QtQtQtQtQtQtQtQtQtQtQtQtQtQtQt.G.j.H.q.q.q.q.q.q.q.q.q.r.I.J.K.c.z.K.L.M.N.q.q.q.q.q.q.q.q.q.O.P.QQtQtQtQtQtQtQtQtQtQtQtQtQtQtQt",
"QtQtQtQtQtQtQtQtQtQtQtQtQtQt.R.S.q.q.q.q.q.q.q.T.U.V.W.X.YQtQtQtQtQtQt.Z.n.0.1.2.3.q.q.q.q.q.q.q.M.4QtQtQtQtQtQtQtQtQtQtQtQtQtQt",
"QtQtQtQtQtQtQtQtQtQtQtQtQt.5.3.q.q.q.q.q.q.6.7.8.9QtQtQtQtQtQtQtQtQtQtQtQtQtQtQt#.###a.q.q.q.q.q.q#b#cQtQtQtQtQtQtQtQtQtQtQtQtQt",
"QtQtQtQtQtQtQtQtQtQtQtQt#d#e.q.q.q.q.q.N#f#gQtQtQtQtQtQtQtQtQtQtQtQtQtQtQtQtQtQtQtQt#h#i#j.q.q.q.q.q.q#kQtQtQtQtQtQtQtQtQtQtQtQt",
"QtQtQtQtQtQtQtQtQtQtQt#l.q.q.q.q.q.q#m#nQtQtQtQtQtQtQtQtQtQtQtQtQtQtQtQtQtQtQtQtQtQtQtQt.l.i.q.q.q.q.q.q#o#pQtQtQtQtQtQtQtQtQtQt",
"QtQtQtQtQtQtQtQtQtQt#d.q.q.q.q.q.O#q.mQtQtQtQtQtQtQtQtQtQtQtQtQtQtQtQtQtQtQtQtQtQtQtQtQtQtQt#r.3.q.q.q.q.q.wQtQtQtQtQtQtQtQtQtQt",
"QtQtQtQtQtQtQtQtQt#s.q.q.q.q.q#t#uQtQtQtQtQtQtQtQtQtQtQtQtQtQtQtQtQtQtQtQtQtQtQtQtQtQtQtQtQtQt#v#w.q.q.q.q.q#iQtQtQtQtQtQtQtQtQt",
"QtQtQtQtQtQtQtQt#x.f.q.q.q.q#y#zQtQtQtQtQtQtQtQtQtQtQtQtQtQtQtQtQtQtQtQtQtQtQtQtQtQtQtQtQtQtQtQt#A#B.q.q.q.q#C.aQtQtQtQtQtQtQtQt",
"QtQtQtQtQtQtQt#D#E.q.q.q.q#F#zQtQtQtQtQtQtQtQtQtQtQtQtQtQtQtQtQtQtQtQtQtQtQtQtQtQtQtQtQtQtQtQtQtQt#G#H.q.q.q.q#I#JQtQtQtQtQtQtQt",
"QtQtQtQtQtQtQt.j.q.q.q.q.O.0QtQtQtQtQtQtQtQtQtQtQtQtQtQtQtQtQtQtQtQtQtQtQtQtQtQtQtQtQtQtQtQtQtQtQtQt#n.x.q.q.q.q.cQtQtQtQtQtQtQt",
"QtQtQtQtQtQt#K.N.q.q.q.q#qQtQtQtQtQtQtQtQtQtQtQtQtQtQtQtQtQtQtQtQtQtQtQtQtQtQtQtQtQtQtQtQtQtQtQtQtQtQt.a#C.q.q.q#e#LQtQtQtQtQtQt",
"QtQtQtQtQtQt#M.q.q.q.q.U.9QtQtQtQtQtQtQtQtQtQtQtQtQtQtQtQtQtQtQtQtQtQtQtQtQtQtQtQtQtQtQtQtQtQtQtQtQtQtQt.z.q.q.q.q#E#pQtQtQtQtQt",
"QtQtQtQtQt#N.T.q.q.q.N.8QtQtQtQtQtQtQtQtQtQtQtQtQtQtQtQtQtQtQtQtQtQtQtQtQtQtQtQtQtQtQtQtQtQtQtQtQtQtQtQt#O#P.q.q.q#e#QQtQtQtQtQt",
"QtQtQtQtQt.7.q.q.q.q#RQtQtQtQtQtQtQtQtQtQt#S###T#UQtQtQtQtQtQtQtQtQtQtQtQtQtQt#V#W#X#Y#ZQtQtQtQtQtQtQtQtQt#0.q.q.q.q.2.mQtQtQtQt",
"QtQtQtQt#g.f.q.q.q#1#JQtQtQtQtQtQtQtQtQt#2#C.q.q#3#4QtQtQtQtQtQtQtQtQtQtQtQt#V#5.q.q.q#6QtQtQtQtQtQtQtQtQt#7.M.q.q.q#C.BQtQtQtQt",
"QtQtQtQt#8.q.q.q.q#9QtQtQtQtQtQtQtQtQtQta..q.q.q.q.2#hQtQtQtQtQtQtQtQtQtQta##5.q.q.q.qaa.ZQtQtQtQtQtQtQtQtQtab.q.q.q.qacQtQtQtQt",
"QtQtQtQt#3.q.q.q.TadQtQtQtQtQtQtQtQtQtQtae.q.q.q.q.qafagQtQtQtQtQtQtQtQt.9ah.q.q.q.q.qai.mQtQtQtQtQtQtQtQtQt.Q#j.q.q.q#H.ZQtQtQt",
"QtQtQtaj.H.q.q.q.UQtQtQtQtQtQtQtQtQtQtQtak.2.q.q.q.q.q.E#UQtQtQtQtQtQt.9#5.q.q.q.q.q#y.vQtQtQtQtQtQtQtQtQtQtQtal.q.q.q#e#xQtQtQt",
"QtQtQt.W.q.q.q.q.VQtQtQtQtQtQtQtQtQtQtQtQt#4.2.q.q.q.q.q.E#DQtQtQtQtQt#5.q.q.q.q.q#y#nQtQtQtQtQtQtQtQtQtQtQtQt#q.q.q.q.qamQtQtQt",
"QtQtQt#c.q.q.q#e.WQtQtQtQtQtQtQtQtQtQtQtQtQt#4af.q.q.q.q.qan#4QtQt#V.P.q.q.q.q.qao#nQtQtQtQtQtQtQtQtQtQtQtQtQtap.D.q.q.q#9QtQtQt",
"QtQtQtah.q.q.qaqarQtQtQtQtQtQtQtQtQtQtQtQtQtQtag.E.q.q.q.q.q.2agQt#5.q.q.q.q.q#yapQtQtQtQtQtQtQtQtQtQtQtQtQtQt.Y.6.q.q.q.2QtQtQt",
"QtQtQtas.q.q.q#I#DQtQtQtQtQtQtQtQtQtQtQtQtQtQtQtagat.q.q.q.q.qauav.q.q.q.q.q#IapQtQtQtQtQtQtQtQtQtQtQtQtQtQtQt.9af.q.q.q.MQtQtQt",
"QtQtQt#F.q.q.q.2.9QtQtQtQtQtQtQtQtQtQtQtQtQtQtQtQt.Yan.q.q.q.q.q.q.q.q.q.q#HawQtQtQtQtQtQtQtQtQtQtQtQtQtQtQtQtQt.w.q.q.q#tQtQtQt",
"QtQtQtax.q.q.qalQtQtQtQtQtQtQtQtQtQtQtQtQtQtQtQtQtQt#4.2.q.q.q.q.q.q.q.q#y#KQtQtQtQtQtQtQtQtQtQtQtQtQtQtQtQtQtQtay.q.q.qaxQtQtQt",
"QtQtQt.f.q.q.q.KQtQtQtQtQtQtQtQtQtQtQtQtQtQtQtQtQtQtQtagaz.q.q.q.q.q.qaAadQtQtQtQtQtQtQtQtQtQtQtQtQtQtQtQtQtQtQtac.q.q.q.fQtQtQt",
"QtQtQt.f.q.q.q.KQtQtQtQtQtQtQtQtQtQtQtQtQtQtQtQtQtQtQtQtav.q.q.q.q.q.qaBakQtQtQtQtQtQtQtQtQtQtQtQtQtQtQtQtQtQtQtac.q.q.q.fQtQtQt",
"QtQtQtax.q.q.qaCQtQtQtQtQtQtQtQtQtQtQtQtQtQtQtQtQtQt#7aD.q.q.q.q.q.q.q.q.h.nQtQtQtQtQtQtQtQtQtQtQtQtQtQtQtQtQtQt.j.q.q.qaxQtQtQt",
"QtQtQtaE.q.q.q.p.9QtQtQtQtQtQtQtQtQtQtQtQtQtQtQtQt.9.P.q.q.q.q.q.q.q.q.q.qaF#OQtQtQtQtQtQtQtQtQtQtQtQtQtQtQtQtQtaG.q.q.q.3QtQtQt",
"QtQtQt.h.q.q.q#wa#QtQtQtQtQtQtQtQtQtQtQtQtQtQtQt.9#5.q.q.q.q.qaH.E.q.q.q.q.qaI.nQtQtQtQtQtQtQtQtQtQtQtQtQtQtQt.9aJ.q.q.qaKQtQtQt",
"QtQtQtaL.q.q.q.r.#QtQtQtQtQtQtQtQtQtQtQtQtQtQt.9#5.q.q.q.q.q#y#N.G.2.q.q.q.q.qaM.nQtQtQtQtQtQtQtQtQtQtQtQtQtQt#DaN.q.q.qaOQtQtQt",
"QtQtQtac.q.q.q#e.0QtQtQtQtQtQtQtQtQtQtQtQtQt#7aP.q.q.q.q.q#w#nQtQt#4an.q.q.q.q.qaQ#.QtQtQtQtQtQtQtQtQtQtQtQtQtad.D.q.q.qaRQtQtQt",
"QtQtQt.k.q.q.q.qaSQtQtQtQtQtQtQtQtQtQtQtQt#VaD.q.q.q.q.qaoaTQtQtQtQt#D.E.q.q.q.q.qaI#.QtQtQtQtQtQtQtQtQtQtQtQt#r.q.q.q.q#dQtQtQt",
"QtQtQtar.T.q.q.qatQtQtQtQtQtQtQtQtQtQtQt.GaD.q.q.q.q.qaoapQtQtQtQtQtQt#U.E.q.q.q.q.qaIaUQtQtQtQtQtQtQtQtQtQtQt#6.q.q.q.q#zQtQtQt",
"QtQtQt#p.S.q.q.qaxarQtQtQtQtQtQtQtQtQtQtab.q.q.q.q.qaoapQtQtQtQtQtQtQtQtagaf.q.q.q.q.qaV.mQtQtQtQtQtQtQtQtQtag.I.q.q.q#yaWQtQtQt",
"QtQtQtQt.t.q.q.q.q##QtQtQtQtQtQtQtQtQtQtaC.q.q.q.q#y#nQtQtQtQtQtQtQtQtQtQt#h.2.q.q.q.q#j.YQtQtQtQtQtQtQtQtQt#8.q.q.q.q#RQtQtQtQt",
"QtQtQtQtaX.T.q.q.q#I#UQtQtQtQtQtQtQtQtQtaY.q.q.q#y#nQtQtQtQtQtQtQtQtQtQtQtQt#4.2.q.q.q.s#pQtQtQtQtQtQtQtQt.9#E.q.q.q.qaZQtQtQtQt",
"QtQtQtQtQtah.q.q.q.qaSQtQtQtQtQtQtQtQtQt#ha0aB.ca1QtQtQtQtQtQtQtQtQtQtQtQtQtQt#4aGaBaC.vQtQtQtQtQtQtQtQtQta2.q.q.q.q.S#VQtQtQtQt",
"QtQtQtQtQta3.D.q.q.q#t.nQtQtQtQtQtQtQtQtQtQtQtQtQtQtQtQtQtQtQtQtQtQtQtQtQtQtQtQtQtQtQtQtQtQtQtQtQtQtQtQtaWa4.q.q.q.q.kQtQtQtQtQt",
"QtQtQtQtQtQtat.q.q.q.qaVQtQtQtQtQtQtQtQtQtQtQtQtQtQtQtQtQtQtQtQtQtQtQtQtQtQtQtQtQtQtQtQtQtQtQtQtQtQtQtQt#f.q.q.q.qaHa#QtQtQtQtQt",
"QtQtQtQtQtQt.A.T.q.q.q.qa5QtQtQtQtQtQtQtQtQtQtQtQtQtQtQtQtQtQtQtQtQtQtQtQtQtQtQtQtQtQtQtQtQtQtQtQtQtQta6#b.q.q.q.qa2QtQtQtQtQtQt",
"QtQtQtQtQtQtQt.P.q.q.q.q.f#xQtQtQtQtQtQtQtQtQtQtQtQtQtQtQtQtQtQtQtQtQtQtQtQtQtQtQtQtQtQtQtQtQtQtQtQtar#a.q.q.q.q#3QtQtQtQtQtQtQt",
"QtQtQtQtQtQtQta7a4.q.q.q.qaa#GQtQtQtQtQtQtQtQtQtQtQtQtQtQtQtQtQtQtQtQtQtQtQtQtQtQtQtQtQtQtQtQtQtQta8a9.q.q.q.q#F.lQtQtQtQtQtQtQt",
"QtQtQtQtQtQtQtQt.0#b.q.q.q.q#B#AQtQtQtQtQtQtQtQtQtQtQtQtQtQtQtQtQtQtQtQtQtQtQtQtQtQtQtQtQtQtQtQta8b..q.q.q.q.qb#QtQtQtQtQtQtQtQt",
"QtQtQtQtQtQtQtQtQt#c.q.q.q.q.qbaapQtQtQtQtQtQtQtQtQtQtQtQtQtQtQtQtQtQtQtQtQtQtQtQtQtQtQtQtQtQt.l.S.q.q.q.q.q#9QtQtQtQtQtQtQtQtQt",
"QtQtQtQtQtQtQtQtQtQt#k.q.q.q.q.q#t.aQtQtQtQtQtQtQtQtQtQtQtQtQtQtQtQtQtQtQtQtQtQtQtQtQtQtQtQt#ubb.q.q.q.q.q.ia#QtQtQtQtQtQtQtQtQt",
"QtQtQtQtQtQtQtQtQtQtQt#o.q.q.q.q.q#C.zajQtQtQtQtQtQtQtQtQtQtQtQtQtQtQtQtQtQtQtQtQtQtQtQtbc#f#b.q.q.q.q.q#Ma#QtQtQtQtQtQtQtQtQtQt",
"QtQtQtQtQtQtQtQtQtQtQt#p.w.q.q.q.q.q.q#Iam.ZQtQtQtQtQtQtQtQtQtQtQtQtQtQtQtQtQtQtQtQt#pbd#B.q.q.q.q.q.q.i.ZQtQtQtQtQtQtQtQtQtQtQt",
"QtQtQtQtQtQtQtQtQtQtQtQtQt#i#C.q.q.q.q.q.qaM#d#JQtQtQtQtQtQtQtQtQtQtQtQtQtQtQtQt#4b#be.q.q.q.q.q.q.q#9#DQtQtQtQtQtQtQtQtQtQtQtQt",
"QtQtQtQtQtQtQtQtQtQtQtQtQtQtbfaa.q.q.q.q.q.q.q.6al#qapagQtQtQtQtQtQtQtQt.Ya1bg#6#a.q.q.q.q.q.q.q#1bhQtQtQtQtQtQtQtQtQtQtQtQtQtQt",
"QtQtQtQtQtQtQtQtQtQtQtQtQtQtQt#Zbi.q.q.q.q.q.q.q.q.qbjao.EbkacaS.jacbl.p.Iaq.q.q.q.q.q.q.q.q.qaJ#GQtQtQtQtQtQtQtQtQtQtQtQtQtQtQt",
"QtQtQtQtQtQtQtQtQtQtQtQtQtQtQtQtQtbfbe.q.q.q.q.q.q.q.q.q.q.q.q.q.q.q.q.q.q.q.q.q.q.q.q.q.qaQbdQtQtQtQtQtQtQtQtQtQtQtQtQtQtQtQtQt",
"QtQtQtQtQtQtQtQtQtQtQtQtQtQtQtQtQtQt#pbm.p#b.q.q.q.q.q.q.q.q.q.q.q.q.q.q.q.q.q.q.q.q#ebna2agQtQtQtQtQtQtQtQtQtQtQtQtQtQtQtQtQtQt",
"QtQtQtQtQtQtQtQtQtQtQtQtQtQtQtQtQtQtQtQtQt#xacba.D.q.q.q.q.q.q.q.q.q.q.q.q.q.q#C#Ia.#Q#VQtQtQtQtQtQtQtQtQtQtQtQtQtQtQtQtQtQtQtQt",
"QtQtQtQtQtQtQtQtQtQtQtQtQtQtQtQtQtQtQtQtQtQtQt.Gbobp.7.J.Mbq.f.f.f.f.xaHbrbsbtbuagQtQtQtQtQtQtQtQtQtQtQtQtQtQtQtQtQtQtQtQtQtQtQt",
"QtQtQtQtQtQtQtQtQtQtQtQtQtQtQtQtQtQtQtQtQtQtQtQtQtQtQtQtQtQtQtQtQtQtQtQtQtQtQtQtQtQtQtQtQtQtQtQtQtQtQtQtQtQtQtQtQtQtQtQtQtQtQtQt",
"QtQtQtQtQtQtQtQtQtQtQtQtQtQtQtQtQtQtQtQtQtQtQtQtQtQtQtQtQtQtQtQtQtQtQtQtQtQtQtQtQtQtQtQtQtQtQtQtQtQtQtQtQtQtQtQtQtQtQtQtQtQtQtQt",
"QtQtQtQtQtQtQtQtQtQtQtQtQtQtQtQtQtQtQtQtQtQtQtQtQtQtQtQtQtQtQtQtQtQtQtQtQtQtQtQtQtQtQtQtQtQtQtQtQtQtQtQtQtQtQtQtQtQtQtQtQtQtQtQt"};
