/* XPM */
static char *dummy[]={
"64 64 234 2",
".i c #000000",
"#b c #000001",
"bw c #000003",
"ar c #000004",
"aV c #010101",
"#T c #010109",
"aO c #020202",
"aM c #020203",
"#9 c #030303",
"bb c #03030b",
".q c #040404",
"bJ c #04040b",
".Y c #050505",
"a4 c #060006",
"#t c #060606",
"#a c #060609",
".v c #070707",
"aB c #071010",
"#n c #090909",
".A c #0a0a0a",
"ax c #0b0b0b",
".c c #0d0d0d",
"ab c #0e0e0e",
".h c #0f0f0f",
".p c #101010",
".j c #111111",
"ak c #121212",
"#S c #131313",
"#X c #141414",
"bD c #151515",
"bh c #161616",
".M c #171717",
"#q c #181818",
"#3 c #191919",
"#K c #191921",
"aS c #191a1a",
"an c #1b1b1b",
"be c #1c1c1c",
".3 c #1d1d1d",
"#E c #1d1d21",
"a7 c #1f1f1f",
".T c #1f1f28",
".D c #202020",
"b# c #212121",
"aj c #232323",
"bv c #23232b",
"a2 c #242424",
"aF c #242429",
"#W c #252525",
".m c #262626",
"#F c #262629",
"bM c #272727",
".w c #2a2a2a",
"bm c #2b2b2b",
"aa c #2c2c2d",
".d c #2c2c40",
"#h c #2d2d2d",
"as c #2e2e2e",
".7 c #2f2f38",
".P c #303030",
".Z c #323232",
"b. c #333333",
"#l c #33333d",
"bo c #353535",
"bH c #363636",
"#N c #373737",
"aI c #383838",
"#x c #393939",
"#2 c #3a3a3a",
".I c #3b3b3b",
"bF c #3c3c3c",
"aW c #3e3e3e",
"aC c #3f3f3f",
"aL c #414c4c",
"#y c #43434d",
".z c #454545",
"#k c #464646",
"#c c #474747",
".r c #474763",
"aP c #484848",
"bf c #494949",
"a. c #4a4a58",
"#r c #4c4c4c",
"bt c #4d4d4d",
".g c #4d4d62",
"am c #4e4e4e",
"aq c #4e4e57",
"#I c #4f4f4f",
"#g c #505050",
"a3 c #513d51",
".2 c #525252",
"bC c #535353",
"bz c #54545d",
".U c #555555",
"aZ c #575757",
"bi c #585858",
".L c #5a5a5a",
"#P c #5e5e5e",
"#U c #5f5f6f",
"ay c #606060",
"#B c #626270",
"aX c #636363",
"bK c #646464",
".E c #656565",
"#8 c #666666",
"aN c #676767",
"ba c #6a6a79",
"#f c #6b6b6b",
"#v c #6f6f6f",
"bs c #707070",
"bj c #727272",
"#m c #737373",
".8 c #747474",
"ag c #757575",
"#H c #767676",
"bu c #777777",
".u c #797979",
".X c #7a7a7a",
".# c #7a7a83",
"bB c #7b7b7b",
"bE c #7d7d7d",
".Q c #7d7d90",
"a1 c #7f7a7f",
".n c #7f7f7f",
"ae c #808080",
"#L c #828282",
"#6 c #838383",
"aw c #85858a",
"aE c #868686",
"bI c #868687",
".H c #878787",
"#R c #898989",
"bk c #8a8a8a",
"#o c #8c8c8c",
"bq c #8d8d8d",
"#u c #8f8f8f",
"aA c #909191",
"aU c #919191",
"bc c #949494",
"#Y c #9797a4",
".S c #9797ac",
"#C c #989898",
"a8 c #999999",
"## c #9a9a9a",
"a5 c #9c9c9c",
"bx c #9d9d9d",
".4 c #9e9e9e",
".b c #a19a9f",
".o c #a3a3a3",
"#J c #a3a3af",
".B c #a4a4a4",
"ad c #a7a7a7",
".k c #a8a8a8",
"aR c #a9a9a9",
"al c #aaaaaa",
"bg c #ababb6",
"aD c #afafaf",
"aJ c #b1b1b1",
"bL c #b1b1c1",
"aG c #b1b1c3",
"#p c #b4b4b4",
"bG c #b5b5b5",
"bd c #b6b6b6",
".6 c #b7b7cd",
"#O c #bababa",
"#i c #bcbcbc",
"at c #bcd5d5",
"a6 c #bdbdbd",
".x c #bebebe",
".N c #bfbfbf",
"a9 c #c0c0c0",
".e c #c1c1c3",
"bA c #c3c3c3",
"aY c #c5c5c5",
".C c #c7c7c7",
"#4 c #c8c8c8",
"aK c #c8d3d3",
"#z c #c9c9d6",
"bp c #cacaca",
".l c #cbcbcb",
"#0 c #cccccc",
"aH c #cdcdcd",
"#G c #cecece",
"ah c #d0d0d0",
"ai c #d1d1d1",
"by c #d3d3e1",
".0 c #d4d4d4",
"bl c #d5d5d5",
"br c #d6d6d6",
".s c #d7d7db",
".J c #d9d9d9",
"#j c #dadada",
".y c #dcdcdc",
"#M c #dcdcdf",
"#5 c #dcdce4",
"ap c #dddddd",
"#Q c #dedede",
"a# c #dededf",
".O c #dedee0",
"bN c #e0e0e0",
"#s c #e0e0e5",
"#1 c #e1e1e1",
"aQ c #e2e2e2",
"ac c #e3e3e3",
".f c #e4e4e5",
"#A c #e4e4ec",
"bn c #e5e5e5",
"#D c #e7e7e7",
".F c #e8e8e8",
".V c #e9e9e9",
"#V c #eaeaea",
"az c #ebebeb",
"#d c #ececec",
".t c #ededed",
"au c #efefef",
".a c #efeff3",
".K c #f0f0f0",
"#7 c #f1f1f1",
".1 c #f1f1f2",
"aT c #f2f2f2",
".W c #f4f4f4",
".9 c #f5f5f5",
"av c #f5f5f6",
".G c #f6f6f6",
"#w c #f8f8f8",
".R c #f9f9f9",
"a0 c #faf6fa",
".5 c #fafafa",
"ao c #fbfbfb",
"#. c #fcfcfc",
"#Z c #fcfcfd",
"#e c #fdfdfd",
"af c #fefefe",
"Qt c none",
"QtQtQtQtQtQt.#.aQtQtQtQtQtQtQtQtQtQtQtQtQtQtQtQtQtQtQtQtQtQtQtQtQtQtQtQtQtQtQtQtQtQtQtQtQtQtQtQtQtQtQtQtQtQtQtQtQt.bQtQtQtQtQtQt",
"QtQtQtQtQtQt.c.d.eQtQtQtQtQtQtQtQtQtQtQtQtQtQtQtQtQtQtQtQtQtQtQtQtQtQtQtQtQtQtQtQtQtQtQtQtQtQtQtQtQtQtQtQtQtQt.f.g.hQtQtQtQtQtQt",
"QtQtQtQtQtQt.h.i.j.kQtQtQtQtQtQtQtQtQtQtQtQtQtQtQtQtQtQtQtQtQtQtQtQtQtQtQtQtQtQtQtQtQtQtQtQtQtQtQtQtQtQtQtQt.l.m.i.hQtQtQtQtQtQt",
"QtQtQtQtQtQt.h.i.i.i.nQtQtQtQtQtQtQtQtQtQtQtQtQtQtQtQtQtQtQtQtQtQtQtQtQtQtQtQtQtQtQtQtQtQtQtQtQtQtQtQtQtQt.o.p.i.i.hQtQtQtQtQtQt",
"QtQtQtQtQtQt.h.i.i.i.q.r.sQtQtQtQtQtQtQtQtQtQtQtQtQtQtQtQtQtQtQtQtQtQtQtQtQtQtQtQtQtQtQtQtQtQtQtQtQtQt.t.u.v.i.i.i.hQtQtQtQtQtQt",
"QtQtQtQtQtQt.h.i.i.i.i.i.w.xQtQtQtQtQtQtQtQtQtQtQtQtQtQtQtQtQtQtQtQtQtQtQtQtQtQtQtQtQtQtQtQtQtQtQtQt.y.z.i.i.i.i.i.hQtQtQtQtQtQt",
"QtQtQtQtQtQt.h.i.i.i.i.i.i.A.BQtQtQtQtQtQtQtQtQtQtQtQtQtQtQtQtQtQtQtQtQtQtQtQtQtQtQtQtQtQtQtQtQtQt.C.D.i.i.i.i.i.i.hQtQtQtQtQtQt",
"QtQtQtQtQtQt.h.i.i.i.i.i.i.i.q.E.FQtQtQtQtQtQtQtQtQtQtQtQtQtQtQtQtQtQtQtQtQtQtQtQtQtQtQtQtQtQt.G.H.j.i.i.i.i.i.i.i.hQtQtQtQtQtQt",
"QtQtQtQtQtQt.h.i.i.i.i.i.i.i.i.i.I.JQtQtQtQtQtQtQtQtQtQtQtQtQtQtQtQtQtQtQtQtQtQtQtQtQtQtQtQt.K.L.i.i.i.i.i.i.i.i.i.hQtQtQtQtQtQt",
"QtQtQtQtQtQt.h.i.i.i.i.i.i.i.i.i.i.M.NQtQtQtQtQtQtQtQtQtQtQtQtQtQtQtQtQtQtQtQtQtQtQtQtQtQt.O.P.i.i.i.i.i.i.i.i.i.i.hQtQtQtQtQtQt",
"QtQtQtQtQtQt.h.i.i.i.i.i.i.i.i.i.i.i.h.Q.RQtQtQtQtQtQtQtQtQtQtQtQtQtQtQtQtQtQtQtQtQtQtQt.S.T.i.i.i.i.i.i.i.i.i.i.i.hQtQtQtQtQtQt",
"QtQtQtQtQtQt.h.i.i.i.i.i.i.i.i.i.i.i.i.i.U.VQtQtQtQtQtQtQtQtQtQtQtQtQtQtQtQtQtQtQtQt.W.X.Y.i.i.i.i.i.i.i.i.i.i.i.i.hQtQtQtQtQtQt",
"QtQtQtQtQtQt.h.i.i.i.i.i.i.i.i.i.i.i.i.i.i.Z.0QtQtQtQtQtQtQtQtQtQtQtQtQtQtQtQtQtQt.1.2.i.i.i.i.i.i.i.i.i.i.i.i.i.i.hQtQtQtQtQtQt",
"QtQtQtQtQtQt.h.i.i.i.i.i.i.i.i.i.i.i.i.i.i.i.3.4.5QtQtQtQtQtQtQtQtQtQtQtQtQtQtQt.6.7.i.i.i.i.i.i.i.i.i.i.i.i.i.i.i.hQtQtQtQtQtQt",
"QtQtQtQtQtQt.h.i.i.i.i.i.i.i.i.i.i.i.i.i.i.i.i.i.8.9QtQtQtQtQtQtQtQtQtQtQtQt#.###a#b.i.i.i.i.i.i.i.i.i.i.i.i.i.i.i.hQtQtQtQtQtQt",
"QtQtQtQtQtQt.h.i.i.i.i.i.i.i.i.i.i.i.i.i.i.i.i.i.i#c#dQtQtQtQtQtQtQtQtQtQt#e#f.i.i.i.i.i.i.i.i.i.i.i.i.i.i.i.i.i.i.hQtQtQtQtQtQt",
"QtQtQtQtQtQt#g.i.i.i.i.i.i.i.i.i.i.i.i.i.i.i.i.i.i.i#h#iQtQtQtQtQtQtQtQt#j#k.i.i.i.i.i.i.i.i.i.i.i.i.i.i.i.i.i.i.i#lQtQtQtQtQtQt",
"QtQtQtQtQtQt.9#m.i.i.i.i.i.i.i.i.i.i.i.i.i.i.i.i.i.i.i#n#oQtQtQtQtQtQt#p#q.i.i.i.i.i.i.i.i.i.i.i.i.i.i.i.i.i.i.i#r#sQtQtQtQtQtQt",
"QtQtQtQtQtQtQtQt###t.i.i.i.i.i.i.i.i.i.i.i.i.i.i.i.i.i.i.i.E.RQtQtQt#u.v.i.i.i.i.i.i.i.i.i.i.i.i.i.i.i.i.i.i.i#v#wQtQtQtQtQtQtQt",
"QtQtQtQtQtQtQtQtQt#i#x.i.i.i.i.i.i.i.i.i.i.i.i.i.i.i.i.i.i.i#y#z#A#B.i.i.i.i.i.i.i.i.i.i.i.i.i.i.i.i.i.i.i.c#CQtQtQtQtQtQtQtQtQt",
"QtQtQtQtQtQtQtQtQtQt#D.2.i.i.i.i.i.i.i.i.i.i.i.i.i.i.i.i.i.i#b#E#F#b.i.i.i.i.i.i.i.i.i.i.i.i.i.i.i.i.i.i.Z#GQtQtQtQtQtQtQtQtQtQt",
"QtQtQtQtQtQtQtQtQtQtQtQt#H.i.i.i.i.i.i.i.i.i.i.i.i.i.i.i.i.i.i.i.i.i.i.i.i.i.i.i.i.i.i.i.i.i.i.i.i.i.i#I.9QtQtQtQtQtQtQtQtQtQtQt",
"QtQtQtQtQtQtQtQtQtQtQtQtQt#J#K.i.i.i.i.i.i.i.i.i.i.i.i.i.i.i.i.i.i.i.i.i.i.i.i.i.i.i.i.i.i.i.i.i.i.A#L.9QtQtQtQtQtQtQtQtQtQtQtQt",
"QtQtQtQtQtQtQtQtQtQtQtQtQtQt#M#N.i.i.i.i.i.i.i.i.i.i.i.i.i.i.i.i.i.i.i.i.i.i.i.i.i.i.i.i.i.i.i.i.D#OQtQtQtQtQtQtQtQtQtQtQtQtQtQt",
"QtQtQtQtQtQtQtQtQtQtQtQtQtQtQt.K#P.i.i.i.i.i.i.i.i.i.i.i.i.i.i.i.i.i.i.i.i.i.i.i.i.i.i.i.i.i.i#N#QQtQtQtQtQtQtQtQtQtQtQtQtQtQtQt",
"QtQtQtQtQtQtQtQtQtQtQtQtQtQtQtQt#w#R#S.i.i.i.i.i.i.i.i.i.i.i.i.i.i.i.i.i.i.i.i.i.i.i.i.i.i#T#U#VQtQtQtQtQtQtQtQtQtQtQtQtQtQtQtQt",
"QtQtQtQtQtQtQtQtQtQtQtQtQtQtQtQtQtQt#i#W.i.i.i.i.i.i.i.i.i.i.i.i.i.i.i.i.i.i.i.i.i.i.i.i#X#Y#ZQtQtQtQtQtQtQtQtQtQtQtQtQtQtQtQtQt",
"QtQtQtQtQtQt#0QtQtQtQtQtQtQtQtQtQtQtQt#1#2.i.i.i.i.i.i.i.i.i.i.i.i.i.i.i.i.i.i.i.i.i.i#3#4QtQtQtQtQtQtQtQtQtQtQtQt#5QtQtQtQtQtQt",
"QtQtQtQtQtQt.3#6#wQtQtQtQtQtQtQtQtQtQtQt#7#8#9.i.i.i.i.i.i.i.i.i.i.i.i.i.i.i.i.i.i.ia.a#QtQtQtQtQtQtQtQtQtQtQtQt.BaaQtQtQtQtQtQt",
"QtQtQtQtQtQtab.i#IacQtQtQtQtQtQtQtQtQtQtQtQtad.p.i.i.i.i.i.i.i.i.i.i.i.i.i.i.i.i.qaeafQtQtQtQtQtQtQtQtQtQtQt.9ag.iabQtQtQtQtQtQt",
"QtQtQtQtQtQt.h.i.i.wahQtQtQtQtQtQtQtQtQtQtQtQtaiaj.i.i.i.i.i.i.i.i.i.i.i.i.i.iakalQtQtQtQtQtQtQtQtQtQtQtQt#Dam.i.i.hQtQtQtQtQtQt",
"QtQtQtQtQtQt.h.i.i.ian#CaoQtQtQtQtQtQtQtQtQtQtQtapaqar.i.i.i.i.i.i.i.i.i.i.ias#4QtQtQtQtQtQtQtQtQtQtQtQtatas.i.i.i.hQtQtQtQtQtQt",
"QtQtQtQtQtQt.h.i.i.i.i.i#vauQtQtQtQtQtQtQtQtQtQtQtavawax.i.i.i.i.i.i.i.i.iayazQtQtQtQtQtQtQtQtQtQtQtQtaAaB.i.i.i.i.hQtQtQtQtQtQt",
"QtQtQtQtQtQt.h.i.i.i.i.i.iaC#dQtQtQtQtQtQtQtQtQtQtQtQtaD.h.i.i.i.i.i.i.qaEQtQtQtQtQtQtQtQtQtQtQtQt.5.E.i.i.i.i.i.i.hQtQtQtQtQtQt",
"QtQtQtQtQtQt.h.i.i.i.i.i.i.iaFaGQtQtQtQtQtQtQtQtQtQtQtQtaHaI.i.i.i.ianaJQtQtQtQtQtQtQtQtQtQtQtQtaKaL.i.i.i.i.i.i.i.hQtQtQtQtQtQt",
"QtQtQtQtQtQt.h.i.i.i.i.i.i.i.iaM#R#.QtQtQtQtQtQtQtQtQtQtQt#waNaO.iaPaQQtQtQtQtQtQtQtQtQtQtQtQtaRaS.i.i.i.i.i.i.i.i.hQtQtQtQtQtQt",
"QtQtQtQtQtQt.h.i.i.i.i.i.i.i.i.i.iayaTQtQtQtQtQtQtQtQtQtQtQtQtaU#m.5QtQtQtQtQtQtQtQtQtQtQtQt#RaV.i.i.i.i.i.i.i.i.i.hQtQtQtQtQtQt",
"QtQtQtQtQtQt.h.i.i.i.i.i.i.i.i.i.i.iaW.JQtQtQtQtQtQtQtQtQtQtQtQtQtQtQtQtQtQtQtQtQtQtQtQt#daX.i.i.i.i.i.i.i.i.i.i.i.hQtQtQtQtQtQt",
"QtQtQtQtQtQt.h.i.i.i.i.i.i.i.i.i.i.i.i#qalQtQtQtQtQtQtQtQtQtQtQtQtQtQtQtQtQtQtQtQtQtQtaY.Z.i.i.i.i.i.i.i.i.i.i.i.i.hQtQtQtQtQtQt",
"QtQtQtQtQtQt.h.i.i.i.i.i.i.i.i.i.i.i.i.i.i#LafQtQtQtQtQtQtQtQtQtQtQtQtQtQtQtQtQtQtQt.k.A.i.i.i.i.i.i.i.i.i.i.i.i.i.hQtQtQtQtQtQt",
"QtQtQtQtQtQt.h.i.i.i.i.i.i.i.i.i.i.i.i.i.i.iaZ#dQtQtQtQtQtQtQtQtQtQtQtQtQtQtQtQta0a1.q.i.i.i.i.i.i.i.i.i.i.i.i.i.i.hQtQtQtQtQtQt",
"QtQtQtQtQtQt.h.i.i.i.i.i.i.i.i.i.i.i.i.i.i.i.ia2.xQtQtQtQtQtQtQtQtQtQtQtQtQtQt.ya3a4.i.i.i.i.i.i.i.i.i.i.i.i.i.i.i.hQtQtQtQtQtQt",
"QtQtQtQtQtQt.h.i.i.i.i.i.i.i.i.i.i.i.i.i.i.i.i.i.Ya5QtQtQtQtQtQtQtQtQtQtQtQta6a7.i.i.i.i.i.i.i.i.i.i.i.i.i.i.i.i.i.hQtQtQtQtQtQt",
"QtQtQtQtQtQt.3.i.i.i.i.i.i.i.i.i.i.i.i.i.i.i.i.i.i#t.8.9QtQtQtQtQtQtQtQtQta8ab.i.i.i.i.i.i.i.i.i.i.i.i.i.i.i.i.i.i#3QtQtQtQtQtQt",
"QtQtQtQtQtQta6#h.i.i.i.i.i.i.i.i.i.i.i.i.i.i.i.i.i.i.i#kaiQtQtQtQtQtQtaz.E.i.i.i.i.i.i.i.i.i.i.i.i.i.i.i.i.i.i.i#S.oQtQtQtQtQtQt",
"QtQtQtQtQtQtQt.FaW.i.i.i.i.i.i.i.i.i.i.i.i.i.i.i.i.i.i.i.Ma9QtQtQtQt.yb..i.i.i.i.i.i.i.i.i.i.i.i.i.i.i.i.i.i.ib##0QtQtQtQtQtQtQt",
"QtQtQtQtQtQtQtQt.Gbabb.i.i.i.i.i.i.i.i.i.i.i.i.i.i.i.i.i.i.Abc#.Qtbdbe.i.i.i.i.i.i.i.i.i.i.i.i.i.i.i.i.i.i.ibfaQQtQtQtQtQtQtQtQt",
"QtQtQtQtQtQtQtQtQtQtbgbh.i.i.i.i.i.i.i.i.i.i.i.i.i.i.i.i.i.i.ibibjax.i.i.i.i.i.i.i.i.i.i.i.i.i.i.i.i.i.i#tbk.GQtQtQtQtQtQtQtQtQt",
"QtQtQtQtQtQtQtQtQtQtQtblbm.i.i.i.i.i.i.i.i.i.i.i.i.i.i.i.i.i.i.i.i.i.i.i.i.i.i.i.i.i.i.i.i.i.i.i.i.i.i.jbdQtQtQtQtQtQtQtQtQtQtQt",
"QtQtQtQtQtQtQtQtQtQtQtQtbn.L.i.i.i.i.i.i.i.i.i.i.i.i.i.i.i.i.i.i.i.i.i.i.i.i.i.i.i.i.i.i.i.i.i.i.i.ibobpQtQtQtQtQtQtQtQtQtQtQtQt",
"QtQtQtQtQtQtQtQtQtQtQtQtQtafbqax.i.i.i.i.i.i.i.i.i.i.i.i.i.i.i.i.i.i.i.i.i.i.i.i.i.i.i.i.i.i.i.i#9aNbnQtQtQtQtQtQtQtQtQtQtQtQtQt",
"QtQtQtQtQtQtQtQtQtQtQtQtQtQtQt#p#3.i.i.i.i.i.i.i.i.i.i.i.i.i.i.i.i.i.i.i.i.i.i.i.i.i.i.i.i.i.iaOaUQtQtQtQtQtQtQtQtQtQtQtQtQtQtQt",
"QtQtQtQtQtQtQtQtQtQtQtQtQtQtQtQtbrbo.i.i.i.i.i.i.i.i.i.i.i.i.i.i.i.i.i.i.i.i.i.i.i.i.i.i.i.ibebdQtQtQtQtQtQtQtQtQtQtQtQtQtQtQtQt",
"QtQtQtQtQtQtQtQtQtQtQtQtQtQtQtQtQt.KbsaV.i.i.i.i.i.i.i.i.i.i.i.i.i.i.i.i.i.i.i.i.i.i.i.i.ibtacQtQtQtQtQtQtQtQtQtQtQtQtQtQtQtQtQt",
"QtQtQtQtQtQtQtQtQtQtQtQtQtQtQtQtQtQtQta5.Y.i.i.i.i.i.i.i.i.i.i.i.i.i.i.i.i.i.i.i.i.i.i.ibu.5QtQtQtQtQtQtQtQtQtQtQtQtQtQtQtQtQtQt",
"QtQtQtQtQtQtQtQtQtQtQtQtQtQtQtQtQtQtQtQt#ibvbw.i.i.i.i.i.i.i.i.i.i.i.i.i.i.i.i.i.i.iabbxQtQtQtQtQtQtQtQtQtQtQtQtQtQtQtQtQtQtQtQt",
"QtQtQtQtQtQtQtQtQtQtQtQtQtQtQtQtQtQtQtQtQtbybz.i.i.i.i.i.i.i.i.i.i.i.i.i.i.i.i.i.iaIbAQtQtQtQtQtQtQtQtQtQtQtQtQtQtQtQtQtQtQtQtQt",
"QtQtQtQtQtQtQtQtQtQtQtQtQtQtQtQtQtQtQtQtQtQtafbB.i.i.i.i.i.i.i.i.i.i.i.i.i.i.i.ibC.tQtQtQtQtQtQtQtQtQtQtQtQtQtQtQtQtQtQtQtQtQtQt",
"QtQtQtQtQtQtQtQtQtQtQtQtQtQtQtQtQtQtQtQtQtQtQtQt.4bD.i.i.i.i.i.i.i.i.i.i.i.iaVbE.5QtQtQtQtQtQtQtQtQtQtQtQtQtQtQtQtQtQtQtQtQtQtQt",
"QtQtQtQtQtQtQtQtQtQtQtQtQtQtQtQtQtQtQtQtQtQtQtQtQt#GbF.i.i.i.i.i.i.i.i.i.ib#bGQtQtQtQtQtQtQtQtQtQtQtQtQtQtQtQtQtQtQtQtQtQtQtQtQt",
"QtQtQtQtQtQtQtQtQtQtQtQtQtQtQtQtQtQtQtQtQtQtQtQtQtQt.G.L.i.i.i.i.i.i.i.ibHbnQtQtQtQtQtQtQtQtQtQtQtQtQtQtQtQtQtQtQtQtQtQtQtQtQtQt",
"QtQtQtQtQtQtQtQtQtQtQtQtQtQtQtQtQtQtQtQtQtQtQtQtQtQtQt#.bIbJ.i.i.i.i.ibK#VQtQtQtQtQtQtQtQtQtQtQtQtQtQtQtQtQtQtQtQtQtQtQtQtQtQtQt",
"QtQtQtQtQtQtQtQtQtQtQtQtQtQtQtQtQtQtQtQtQtQtQtQtQtQtQtQtafbLbM.i.i.M#o#wQtQtQtQtQtQtQtQtQtQtQtQtQtQtQtQtQtQtQtQtQtQtQtQtQtQtQtQt",
"QtQtQtQtQtQtQtQtQtQtQtQtQtQtQtQtQtQtQtQtQtQtQtQtQtQtQtQtQtQtbNaP.w#4QtQtQtQtQtQtQtQtQtQtQtQtQtQtQtQtQtQtQtQtQtQtQtQtQtQtQtQtQtQt"};
