/* XPM */
static char *dummy[]={
"64 64 444 2",
"Qt c None",
"#Z c #000000",
"aW c #000000",
"#r c #000000",
"#C c #000000",
".K c #000000",
"cR c #000000",
"dy c #000000",
"#M c #000000",
"cz c #000000",
"cE c #000000",
"#R c #000000",
"cM c #000000",
"ek c #000000",
"#6 c #000000",
"d8 c #000000",
"#H c #000000",
"di c #000000",
".# c #000000",
"eL c #000000",
"bE c #000000",
".n c #000000",
"ed c #000000",
".5 c #000000",
"cw c #000000",
"bV c #000000",
"dv c #000000",
"cm c #000000",
"bT c #000000",
"b8 c #000000",
"ce c #000000",
"bU c #000000",
"as c #000000",
"cQ c #000000",
"aa c #000000",
"dU c #000000",
"eS c #000000",
"eO c #000000",
"aX c #000000",
"aj c #000000",
"e3 c #000000",
".6 c #000000",
"bF c #000000",
"a# c #000000",
".o c #000000",
"ec c #000000",
"cN c #000000",
"dE c #000000",
"er c #000000",
"cJ c #000000",
".J c #000000",
".a c #000000",
"aJ c #000000",
"dw c #000000",
"d1 c #000000",
"bo c #000000",
"b4 c #000000",
".m c #000000",
"eh c #000000",
"bK c #000000",
"#B c #000000",
"#d c #000000",
"eV c #000000",
"cV c #000000",
"b1 c #000000",
"ai c #000000",
"eq c #000000",
"#S c #000000",
"ej c #000000",
"cD c #000000",
"aC c #000000",
"#I c #000000",
"ev c #000000",
"eP c #000000",
"#e c #000000",
"ay c #000000",
"ep c #000000",
".L c #000000",
"ei c #000000",
"cy c #000000",
"d9 c #000000",
".b c #000000",
"b2 c #000000",
"#s c #000000",
"eB c #000000",
"bO c #000000",
"bL c #000000",
"eW c #000000",
"cb c #000000",
".l c #000000",
"aR c #000000",
"ee c #000000",
"cu c #000000",
"#m c #000000",
"ck c #000000",
"c3 c #000000",
".4 c #000000",
"a5 c #000000",
".p c #000000",
"eY c #000000",
".I c #000000",
"e4 c #000000",
"dO c #000000",
"bv c #000000",
"#v c #000000",
"eM c #000000",
"dj c #000000",
"eG c #000000",
".c c #000000",
"b5 c #000000",
"eN c #000000",
"dT c #000000",
"dK c #000000",
"ex c #000000",
"#q c #000000",
"eb c #000000",
"#U c #000000",
"du c #000000",
"d7 c #000000",
"e2 c #000000",
"dV c #000000",
"cO c #000000",
".k c #000000",
"dN c #000000",
"cY c #000000",
"aK c #000000",
"eD c #000000",
"a6 c #000000",
"cF c #000000",
"cU c #000000",
"cS c #000000",
"cI c #000000",
"e5 c #000000",
"ez c #000000",
"dJ c #000000",
"dr c #000000",
"dz c #000000",
"eE c #000000",
"e1 c #000000",
"eT c #000000",
"bw c #000000",
".d c #000000",
"c8 c #000000",
"eZ c #000000",
"bW c #000000",
".q c #000000",
".H c #000000",
"#D c #000000",
"dl c #000000",
"eK c #000000",
"dD c #000000",
"bP c #000000",
"aV c #000000",
".3 c #000000",
"#0 c #000000",
"aD c #000000",
".j c #000000",
"c2 c #000000",
"#N c #000000",
"eH c #000000",
"ds c #000000",
"dq c #000000",
"bY c #000000",
"d. c #000000",
"#G c #000000",
".e c #000000",
"e. c #000000",
"#Q c #000000",
"cA c #000000",
"es c #000000",
"el c #000000",
"eu c #000000",
"bn c #000000",
"b3 c #000000",
".i c #000000",
"d5 c #000000",
".f c #000000",
".r c #000000",
".G c #000000",
".h c #000000",
".g c #000000",
"cl c #000000",
"dM c #000000",
"#w c #000000",
"c7 c #000000",
"aQ c #000000",
"dt c #000000",
"dk c #000000",
"bS c #000000",
"bX c #000000",
"ab c #000000",
"ak c #000000",
".M c #000000",
"#l c #000000",
"cT c #000000",
"#A c #000000",
".s c #000000",
"cX c #030303",
"aI c #000000",
".F c #000000",
".7 c #000000",
"#L c #010101",
"dL c #020202",
".t c #030303",
".N c #040404",
"aM c #050505",
".E c #060606",
"#V c #070707",
".2 c #080808",
"af c #090909",
"aO c #0a0a0a",
"cZ c #0b0b0b",
"cK c #0c0c0c",
"#8 c #0d0d0d",
"bs c #0e0e0e",
".u c #0f0f0f",
"c1 c #101010",
"a7 c #111111",
"et c #121212",
"#f c #131313",
".8 c #151515",
"#Y c #161616",
"bJ c #171717",
".D c #181818",
"ap c #191919",
"bd c #1a1a1a",
"eA c #1c1c1c",
"bx c #1d1d1d",
"#c c #222222",
"aU c #232323",
"eI c #242424",
".v c #252525",
"bq c #262626",
"ci c #272727",
"#k c #282828",
"be c #292929",
"cH c #2a2a2a",
"dH c #2b2b2b",
"cc c #2c2c2c",
"ct c #2d2d2d",
"#1 c #2e2e2e",
"cd c #2f2f2f",
"cp c #303030",
"eR c #313131",
"aE c #323232",
".C c #333333",
"e# c #343434",
"bD c #353535",
".O c #363636",
"bc c #373737",
".1 c #383838",
"dm c #393939",
"#n c #3a3a3a",
".w c #3b3b3b",
"bQ c #3c3c3c",
"b7 c #3d3d3d",
"#P c #3e3e3e",
"em c #3f3f3f",
"cB c #404040",
"#t c #414141",
"bZ c #424242",
"c6 c #434343",
"aq c #444444",
"e0 c #454545",
"eQ c #464646",
"bm c #474747",
".B c #484848",
"#z c #494949",
"ea c #4a4a4a",
".x c #4b4b4b",
"eg c #4c4c4c",
"#5 c #4d4d4d",
"ag c #4e4e4e",
"dd c #4f4f4f",
"bb c #505050",
".A c #515151",
"aw c #535353",
".y c #545454",
"bC c #555555",
"c# c #565656",
".z c #575757",
"#u c #585858",
"dX c #595959",
"cs c #5a5a5a",
"aP c #5b5b5b",
"dh c #5c5c5c",
"dn c #5d5d5d",
"cx c #5e5e5e",
"c0 c #5f5f5f",
"aY c #606060",
"ey c #616161",
"bh c #626262",
"co c #636363",
"dG c #646464",
"dp c #656565",
".9 c #666666",
"d3 c #676767",
"ef c #686868",
"cn c #696969",
"ba c #6a6a6a",
"dA c #6b6b6b",
".P c #6c6c6c",
"da c #6d6d6d",
".0 c #6e6e6e",
"d# c #6f6f6f",
"ac c #707070",
"c9 c #717171",
"b6 c #727272",
"#b c #737373",
"cC c #747474",
"a9 c #757575",
"c4 c #767676",
"al c #777777",
"a. c #787878",
"a3 c #797979",
"dx c #7a7a7a",
"d2 c #7b7b7b",
"dZ c #7c7c7c",
"eo c #7d7d7d",
"cv c #7e7e7e",
"dg c #7f7f7f",
"bi c #808080",
"df c #818181",
"#g c #828282",
"aZ c #838383",
"dc c #848484",
"aH c #858585",
"eX c #868686",
"dW c #878787",
"bN c #888888",
"b# c #898989",
"bp c #8a8a8a",
"bt c #8b8b8b",
"bl c #8c8c8c",
"dB c #8d8d8d",
"by c #8e8e8e",
"#9 c #8f8f8f",
"b0 c #909090",
"cg c #919191",
"aA c #929292",
"#J c #939393",
"am c #949494",
"aG c #959595",
"cW c #969696",
"ah c #979797",
"aT c #989898",
"dS c #999999",
"dR c #9a9a9a",
"dQ c #9b9b9b",
"cq c #9c9c9c",
".Q c #9d9d9d",
"#j c #9e9e9e",
"ad c #a0a0a0",
"at c #a1a1a1",
".Z c #a2a2a2",
"#T c #a3a3a3",
"ae c #a4a4a4",
"cL c #a5a5a5",
"ch c #a6a6a6",
"ar c #a7a7a7",
"eJ c #a8a8a8",
"bf c #aaaaaa",
"ax c #ababab",
"dP c #acacac",
"b. c #adadad",
"aS c #aeaeae",
"bz c #afafaf",
"bI c #b0b0b0",
"do c #b1b1b1",
"cf c #b2b2b2",
"bG c #b3b3b3",
"#K c #b4b4b4",
"a4 c #b5b5b5",
"au c #b6b6b6",
"cP c #b7b7b7",
"az c #bababa",
"cr c #bbbbbb",
"d0 c #bcbcbc",
"bA c #bdbdbd",
"d4 c #bebebe",
"dF c #bfbfbf",
"cj c #c0c0c0",
"#2 c #c1c1c1",
"ca c #c2c2c2",
"bk c #c3c3c3",
"dY c #c4c4c4",
"eU c #c5c5c5",
"#. c #c6c6c6",
".R c #c7c7c7",
"an c #c8c8c8",
"bu c #c9c9c9",
"dI c #cacaca",
"d6 c #cbcbcb",
"bH c #cccccc",
"de c #cdcdcd",
"#a c #cfcfcf",
"a2 c #d0d0d0",
".Y c #d1d1d1",
"#o c #d2d2d2",
"bg c #d3d3d3",
"bR c #d4d4d4",
"#W c #d5d5d5",
"bj c #d6d6d6",
"bM c #d7d7d7",
"aB c #d8d8d8",
"#E c #d9d9d9",
"c5 c #dadada",
"a8 c #dbdbdb",
"eC c #dcdcdc",
"dC c #dddddd",
"#7 c #dedede",
"db c #dfdfdf",
"c. c #e0e0e0",
"#h c #e1e1e1",
"aN c #e2e2e2",
"cG c #e3e3e3",
"ew c #e4e4e4",
"bB c #e5e5e5",
"#p c #e6e6e6",
"aL c #e7e7e7",
"eF c #e8e8e8",
".S c #e9e9e9",
"#x c #eaeaea",
"aF c #ebebeb",
"#F c #ececec",
"#X c #ededed",
"#i c #eeeeee",
"b9 c #efefef",
".X c #f0f0f0",
"#y c #f1f1f1",
"av c #f2f2f2",
"#3 c #f3f3f3",
"#O c #f4f4f4",
"en c #f5f5f5",
".T c #f6f6f6",
"a0 c #f7f7f7",
"ao c #f8f8f8",
"a1 c #f9f9f9",
".W c #fafafa",
"## c #fbfbfb",
".U c #fcfcfc",
"br c #fdfdfd",
"#4 c #fefefe",
".V c #ffffff",
"QtQtQtQtQtQtQtQtQtQtQtQtQtQtQtQtQtQtQtQtQtQtQtQtQtQtQtQtQtQtQtQtQtQtQtQtQtQtQtQtQtQtQtQtQtQtQtQtQtQtQtQtQtQtQtQtQtQtQtQtQtQtQtQt",
"QtQtQtQtQtQtQtQtQtQtQtQtQtQtQtQtQtQtQtQtQtQtQtQt.#.a.b.c.d.e.f.g.g.h.i.j.k.l.m.nQtQtQtQtQtQtQtQtQtQtQtQtQtQtQtQtQtQtQtQtQtQtQtQt",
"QtQtQtQtQtQtQtQtQtQtQtQtQtQtQtQtQtQtQtQtQt.o.p.q.r.s.t.u.v.w.x.y.z.A.B.C.D.E.F.G.H.I.J.KQtQtQtQtQtQtQtQtQtQtQtQtQtQtQtQtQtQtQtQt",
"QtQtQtQtQtQtQtQtQtQtQtQtQtQtQtQtQtQt.K.L.H.M.N.O.P.Q.R.S.T.U.V.V.V.V.V.W.X.Y.Z.0.1.2.s.3.4.5QtQtQtQtQtQtQtQtQtQtQtQtQtQtQtQtQtQt",
"QtQtQtQtQtQtQtQtQtQtQtQtQtQtQtQtQt.6.q.7.8.9#.##.V.V.V.V.V.V.V.V.V.V.V.V.V.V.V.V.U#a#b#c.7.e#dQtQtQtQtQtQtQtQtQtQtQtQtQtQtQtQtQt",
"QtQtQtQtQtQtQtQtQtQtQtQtQtQtQtQt#e.G#f#g#h.V.V.V.V.V.V.V.V.V.V.V.V.V.V.V.V.V.V.V.V.V.V#i#j#k#l#mQtQtQtQtQtQtQtQtQtQtQtQtQtQtQtQt",
"QtQtQtQtQtQtQtQtQtQtQtQtQtQtQt.I.7#n#o.V.V.V.V.V.V.V.V.V.V.V.V.V.V.V.V.V.V.V.V.V.V.V.V.V.V#p.A.7#q#rQtQtQtQtQtQtQtQtQtQtQtQtQtQt",
"QtQtQtQtQtQtQtQtQtQtQtQtQtQt#s.7#t#i.V.V.V.V.V.V.V.V.V.V.V.V.V.V.V.V.V.V.V.V.V.V.V.V.V.V.V.V.W#u.7#vQtQtQtQtQtQtQtQtQtQtQtQtQtQt",
"QtQtQtQtQtQtQtQtQtQtQtQtQt.6#w.1#x.V.V.V.V.V.V.V.V.V.V.V.V.V.V.V.V.V.V.V.V.V.V.V.V.V.V.V.V.V.V#y#z#A#BQtQtQtQtQtQtQtQtQtQtQtQtQt",
"QtQtQtQtQtQtQtQtQtQtQtQt#C#D.8#E.V.V.V.V.V.V.V.V.V.V.V.V.V.V.V.V.V.V.V.V.V.V.V.V.V.V.V.V.V.V.V.V#F#k#G#HQtQtQtQtQtQtQtQtQtQtQtQt",
"QtQtQtQtQtQtQtQtQtQtQtQt#I.7#J.V.V.V.V.V.V.V.V.V.V.V.V.V.V.V.V.V.V.V.V.V.V.V.V.V.V.V.V.V.V.V.V.V.V#K#L.pQtQtQtQtQtQtQtQtQtQtQtQt",
"QtQtQtQtQtQtQtQtQtQtQt#M#N#c#O.V.V.V.V.V.V.V.V.V.V.V.V.V.V.V.V.V.V.V.V.V.V.V.V.V.V.V.V.V.V.V.V.V.V.V#P#Q#RQtQtQtQtQtQtQtQtQtQtQt",
"QtQtQtQtQtQtQtQtQtQtQt#S.7#g.V.V.V.V.V.V.V.V.V.V.V.V.V.V.V.V.V.V.V.V.V.V.V.V.V.V.V.V.V.V.V.V.V.V.V.V#T.7.bQtQtQtQtQtQtQtQtQtQtQt",
"QtQtQtQtQtQtQtQtQtQtQt#U#V#W.V.V.V.V.V.V.V.V.V.V.V.V.V.V.V.V.V.V.V.V.V.V.V.V.V.V.V.V.V.V.V.V.V.V.V.V#X#Y.d#ZQtQtQtQtQtQtQtQtQtQt",
"QtQtQtQtQtQtQtQtQtQt#C#0#1##.V#2#3.V.V.V.V.V.V.V.V.V.V.V.V.V.V.V.V.V.V.V.V.V.V.V.V.V.V.V.V.V.V#4#K#X.V#5.f#6QtQtQtQtQtQtQtQtQtQt",
"QtQtQtQtQtQtQtQtQtQt#H.h.z.V#7#8#g.V.V.V.V.V.V.V.V.V.V.V.V.V.V.V.V.V.V.V.V.V.V.V.V.V.V.V.V.V.V#..t#9.Va.#Aa#QtQtQtQtQtQtQtQtQtQt",
"QtQtQtQtQtQtQtQtQtQtaaabac.Vad.7ae.V.V.V.V.V.V.V.V.V.V.V.V.V.V.V.V.V.V.V.V.V.V.V.V.V.V.V.V.V.V#pafag.Vah.7aiQtQtQtQtQtQtQtQtQtQt",
"QtQtQtQtQtQtQtQtQtQtajakal.Vam.7an.V.V.V.V.V.V.V.V.V.V.V.V.V.V.V.V.V.V.V.V.V.V.V.V.V.V.V.V.V.Vaoapaq.Var.7#IQtQtQtQtQtQtQtQtQtQt",
"QtQtQtQtQtQtQtQtQtQtasab.0.Vat.7au.V.V.V.V.V.V.V.V.V.V.V.V.V.V.V.V.V.V.V.V.V.V.V.V.V.V.V.V.V.Vav#Vaw.Vax.7ayQtQtQtQtQtQtQtQtQtQt",
"QtQtQtQtQtQtQtQtQtQt#H.g.z.Vaz.7aA.V.V.V.V.V.V.V.V.V.V.V.V.V.V.V.V.V.V.V.V.V.V.V.V.V.V.V.V.V.VaB.7.P.Vad.7aCQtQtQtQtQtQtQtQtQtQt",
"QtQtQtQtQtQtQtQtQtQt#CaDaE#4aFaf.B.V.V.V.V.V.V.V.V.V.V.V.V.V.V.V.V.V.V.V.V.V.V.V.V.V.V.V.V.V.VaG.7ae.VaHaIaJQtQtQtQtQtQtQtQtQtQt",
"QtQtQtQtQtQtQtQtQtQtQtaK#8aL.VagaMaN.V.V.V.V.V.V.V.V.V.V.V.V.V.V.V.V.V.V.V.V.V.V.V.V.V.V.V.V#4aqaOaF.VaPaQ.5QtQtQtQtQtQtQtQtQtQt",
"QtQtQtQtQtQtQtQtQtQtQtaR.7aS.VaT.7ar.V.V.V.V.V.V.V.V.V.V.V.V.V.V.V.V.V.V.V.V.V.V.V.V.V.V.V.V#F.2.x.VaoaUaVaWQtQtQtQtQtQtQtQtQtQt",
"QtQtQtQtQtQtQtQtQtQtQtaX#laY.V.R.7aZ.V.V.V.V.V.V.V###3a0.V.V.V.V.V.V.V.V#4ava1.V.V.V.V.V.V.Va2.7a3.Va4.7a5QtQtQtQtQtQtQtQtQtQtQt",
"QtQtQtQtQtQtQtQtQtQtQtQta6a7#xa8.7a9.V.V#Fb.b#babbbcbdbebf.V.V.V.V.V.Vbg#t#Y#1#zbhbi.Zbj.V.Vbk.7bl.Vbmbn.nQtQtQtQtQtQtQtQtQtQtQt",
"QtQtQtQtQtQtQtQtQtQtQtQtbo.7bp#h.7a..Vbkbq.7.7.7.7.7.7.7a7aL.V.V.V.Vbrag.7.7.7.7.7.7.7bsbt.Van.7aAbu#LbvQtQtQtQtQtQtQtQtQtQtQtQt",
"QtQtQtQtQtQtQtQtQtQtQtQtaWbwbxaG.7byaoaU.7.7.7.7.7.7.7.7.7bz.V.V.V.V.Xa7.7.7.7.7.7.7.7.7.7bAbB#LbCbD#QbEQtQtQtQtQtQtQtQtQtQtQtQt",
"QtQtQtQtQtQtQtQtQtQtQtQtQtbFaQ#8.7bGbH.7.7.7.7.7.7.7.7.7.7bI.V.V.V.V.X#f.7.7.7.7.7.7.7.7.7a9.VbJ.7.MbKQtQtQtQtQtQtQtQtQtQtQtQtQt",
"QtQtQtQtQtQtQtQtQtQtQtQtQtQtbL.s.NbMa8.N.7.7.7.7.7.7.7.7.D#x.V.V.V.V#4.z.7.7.7.7.7.7.7.7.7bN.V.w.sbOQtQtQtQtQtQtQtQtQtQtQtQtQtQt",
"QtQtQtQtaWaa#RQtQtQtQtQtQtQtQtbPbJav#4bQ.7.7.7.7.7.7.7.7bt.V.V.V.V.V.Van#V.7.7.7.7.7.7.7#VbR.VbhbS.5QtQtQtQtQtQtQtbT#SbUQtQtQtQt",
"QtQtQtbVbWbXbY#eQtQtQtQtQtQt#M#GbZ#4.V.Q.7.7.7.7.7.7.7.x.U.V.V.V.V.V.V.Vby.7.7.7.7.7.7.7ag.V.Vb0.Fb1QtQtQtQtQtQtb2.i.7b3b4QtQtQt",
"QtQtQtb5.tb6b7.7#mQtQtQtQtQtb8bXba.V.Vb9#k.7.7.7.7.7bxc..V.V.Vbr.W.V.V.V#4c#.7.7.7.7.7.Eca.V.Vau.7cbQtQtQtQtQt#m.7bZae#Y.q#ZQtQt",
"QtQt#CaDcc.V#ycdbSceQtQtQtQtaXaka9.V.V.Van.8.7.7.7.tcf.V.V.V#2cgchae.V.V.V.Sci.7.7.7.7b#.V.V.Vcj#LckQtQtQtQt.#.G#kb9.V.Acl.#QtQt",
"QtQt#R.f.y.V.Vcf.7b5QtQtQtQtcmbXcn.V.V.V.V.Ycocp#tb..V.V.V#7.8cncq.Ncr.V.V.V#Ecsct.xbf.V.V.V.Vcf.7bOQtQtQtQtcu.7ch.V.Vcv#A.oQtQt",
"QtQtcwbScx.V.Vbr.AakcyQtQtQtczcAcB.V.V.V.V.V.Va1#4.V.V.V.VbC.7cC#T.7ci#y.V.V.V.Vao.V.V.V.V.V.Vbt.7#BQtQtQt#d.h#t.U.V.Vbt.7cDQtQt",
"QtcEcF.7bl.V.V.VcGcH.7cIcJQtQtcFcK#h.V.V.V.V.V.V.V.V.V.V#W.E.7a9ae.7.7cL.V.V.V.V.V.V.V.V.V.V.Vaq.gcMQtcNcO#A#Y#a.V.V.VcP.E#GcQQt",
"cRcS.7bi##.V.V.V.VbBa9a7cTcUcJcVabaP#O.V.V.V.V.V.V.V.V.VaG.7.7a9cL.7.7co.V.V.V.V.V.V.V.V.V.VcWcX.cbFcYabcZc0#o.V.V.V.V.VbGc1c2.5",
"c3.tbl.V.V.V.V.V.V.V.VaBc4.DcTcIc2.FbDahc5#4.V.V.V.V.V.VcC.7.7a9ch.7.7c6#4.V.V.V.V.V.Vc.#jbm.7c7c8bS#fc9#o.V.V.V.V.V.V.V.V#K.ucU",
"d.aE.V.V.V.V.V.V.V.V.V.V.V#ha.bsaI.7.7.7aMcBbG.V.V.V.V.Vcn.7.7d#.Z.7.7bQ#4.V.V.V.V#haYaO.7.7.7.7afdaa8.V.V.V.V.V.V.U.V.V.V.V.zc7",
"aKcZaw#gaZcobm#5aZdb.V.V.V.V.Vbga9ap.7.7be.7.7a3a1.V.V.Vdc.7.7#T.YcZ.7dd.V.V.V.VaSbx.7cH.t.7.ubade.V.V.V.V.V#iaT.A.1.ydfdgdh.ucI",
"didjd.dkdkcAdlaDaI.8c9bj.V.V.V.V.VcGdf.Eaw.Adm.7dnbr.V.VbgcHbN.V.VdocHch.V.V.Vad.7ap#Pa3.7dpbM.V.V.V.V.VbBbN.v.7dqdrdsdkdt#Qducw",
"QtQt#MdvdvcE#Z.KdwaK.MbsaPcj.V.V.V.V.Vagc1cCahda.7bG.V.V.Vao.V.V.V.Va0.V.V.V#X.8ctbydx.1bx.U.V.V.V.VbR.0.D.7.qcDcEQtdydv.5cEQtQt",
"QtQtQtQtQtQtQtQtQtQt.adz#l.tdna2.V.V.VaT.7a3dabj.7dA.V.V.V.V.V.V.V.V.V.V.V.VbA.7aA#gdB.Ndp.V.V.VdCa..u.7dDaCQtQtQtQtQtQtQtQtQtQt",
"QtQtQtQtQtQtQtQtQtQtQtQtdEduc7aOc#dF.VdC.7acdGbjdHbcdbav.V.V.V.V.V.V.V#4#yaNd##Ycjbham.7a4.VdIcoa7#AdJ#d#rQtQtQtQtQtQtQtQtQtQtQt",
"QtQtQtQtQtQtQtQtQtQtQtQtQtQtaXdK.fdLddaSaOaY#gb.axcn#5dAc0c9c9a9c9c9acc0acaqdxdfbualbl#LcqaP#VdMdN.aQtQtQtQtQtQtQtQtQtQtQtQtQtQt",
"QtQtQtQtQtQtQtQtQtQtQtQtQtQtQtQtcmdOdM.7dLacdPbNdPcjbp#WcxaealdQaccqb0#b#7#gc5bldRdS#T.7.7bSdTdUQtQtQtQtQtQtQtQtQtQtQtQtQtQtQtQt",
"QtQtQtQtQtQtQtQtQtQtQtQtQtQtQtQtQtQtaXdV.FdW#Eb6.QdXbhc.#bandRdYb0#2bIbtaLd#.9dZdcdod0.7cIa#QtQtQtQtQtQtQtQtQtQtQtQtQtQtQtQtQtQt",
"QtQtQtQtQtQtQtQtQtQtQtQtQtQtQtQtQtQtQtd1aIbpa1.zcWdgc6dG.wc4dp#gdnd2dG#zd3#ndBdZdXbRd4.7.bQtQtQtQtQtQtQtQtQtQtQtQtQtQtQtQtQtQtQt",
"QtQtQtQtQtQtQtQtQtQtQtQtQtQtQtQtQt.5dOd5.7a3.Vda#c.Rbld6awcvcsac.ycCcCco#odf#p#k#z.Wax.7#wd7dEQtQtQtQtQtQtQtQtQtQtQtQtQtQtQtQtQt",
"QtQtQtQtQtQtQtQtQtQtQtQtQtQtQtd8d9e..7e#.2c#.V#Oc0eadXc.#bbHaddI#J#.bGdB.Sbadhc6#h.Vb#.7.waMabebecQtQtQtQtQtQtQtQtQtQtQtQtQtQtQt",
"QtQtQtQtQtQtQtQtQtQtQtQtQtedeebY.7aE#T.Tc6apa0.V.VdP.A.AbDefcxbiaYaHaYbmawegaAa1.V.VeaapaodYaPaOakcUeh#ZQtQtQtQtQtQtQtQtQtQtQtQt",
"QtQtQtQtQt.##deiejbTekaJb5el.7ematen.V.V.Z.7bf.V.V.V.VbjdPb#dxdaef.0eoadd6.W.V.V.VbMaMac.V.V.Va2a9bd.F.Hepedb8cDb2eqbEQtQtQtQtQt",
"QtQtQtQteres.7.7.7dt.raI#Lbmau.U.V.V.V.V#Fet#k.T.V.V.V.V.V.V.V.V.V.V.V.V.V.V.V.V.V.A.7d4.V.V.V.V.VbBdcbJ.7c7dk.7.7.7euevQtQtQtQt",
"QtQtQt#rbWbdblaxambhbCa.d4#4.V.V.V.V.W#T.w.N.7d#.V.V.V.V.V.V.V.V.V.V.V.V.V.V.V.VdB.7.7aUbiew.V.V.V.V.VdbbycxdpaTbI#9aEdtdUQtQtQt",
"QtQtQt.KdsaE.V.V.V.V.V.V.V.V.V.V#4bI.w.7d.#sex.7ey#X.V.V.V.V.V.V.V.V.V.V.V.V#3b6.7ezejc8.FeAaH#x.V.V.V.V.V.V.V.V.V.Va..7.JQtQtQt",
"QtQtQtQtcy.7.z.T.V.V.V.V.V.V.VaSc6.7#GeB#6Qt#r#q.7cc#JeCbr.V.V.V.V.V.V.Vc.aG.C.7eDd8QtQteheE.7#caZeF.V.V.V.V.V.V.V#9#Va6#CQtQtQt",
"QtQtQtQtQteG.7dn#O.V.V.V.V#W.z.7c7b5bEQtQtQtQtQtb2es.7cKbQacb##JaGbyalaqbs.7elcbQtQtQtQtQtQteveH.7eIeJ.V.V.V.Va1dg.7eKeLQtQtQtQt",
"QtQtQtQtQtQteM.Feo.V.V.Va2bJdteNeOQtQtQtQtQtQtQtQtbEeP.kaD.hbX.M.Mabc7eHaK.L.nQtQtQtQtQtQtQtQtekd9c2.7aA.V.V.Va4.7dz.#QtQtQtQtQt",
"QtQtQtQtQtQtcReleQ#4.Vb9eR.ferQtQtQtQtQtQtQtQtQtQtQtQtQt.Kdiasaj.6eS.ndyQtQtQtQtQtQtQtQtQtQtQtQtQt#6eT.2eU.V.Vah.7eVQtQtQtQtQtQt",
"QtQtQtQtQtQt#ZdDcd.U.Vcv.7eWQtQtQtQtQtQtQtQtQtQtQtQtQtQtQtQtQtQtQtQtQtQtQtQtQtQtQtQtQtQtQtQtQtQtQtQtcQbSc6.V.VeX.F.aQtQtQtQtQtQt",
"QtQtQtQtQtQtQteTbd.VdYbsaDcEQtQtQtQtQtQtQtQtQtQtQtQtQtQtQtQtQtQtQtQtQtQtQtQtQtQtQtQtQtQtQtQtQtQtQtQtQtcO#Lb0#4dhbSdvQtQtQtQtQtQt",
"QtQtQtQtQtQtQteYdLbb.De.aXQtQtQtQtQtQtQtQtQtQtQtQtQtQtQtQtQtQtQtQtQtQtQtQtQtQtQtQtQtQtQtQtQtQtQtQtQtQt.5eZ.7e0bse1aWQtQtQtQtQtQt",
"QtQtQtQtQtQtQt#He2cAdze3QtQtQtQtQtQtQtQtQtQtQtQtQtQtQtQtQtQtQtQtQtQtQtQtQtQtQtQtQtQtQtQtQtQtQtQtQtQtQtQtdye4dse5ceQtQtQtQtQtQtQt",
"QtQtQtQtQtQtQtQtQtQtQtQtQtQtQtQtQtQtQtQtQtQtQtQtQtQtQtQtQtQtQtQtQtQtQtQtQtQtQtQtQtQtQtQtQtQtQtQtQtQtQtQtQtQtQtQtQtQtQtQtQtQtQtQt"};
