/* XPM */
static char *dummy[]={
"64 64 234 2",
".f c #000000",
"ak c #000006",
"b# c #000008",
"a# c #000101",
"aO c #010101",
".q c #020202",
".4 c #030303",
".z c #040404",
".k c #040416",
".P c #050505",
".L c #060606",
"#g c #070707",
"#F c #080808",
"aA c #090909",
"ao c #0a0a0a",
"#h c #0a0a12",
"ac c #0b0b0b",
"bs c #0b0b12",
"aU c #0c0c0c",
"#Z c #0c1111",
".y c #0d0d0d",
".O c #0f0f0f",
".Z c #101010",
"aw c #111111",
"#G c #130913",
"#R c #131313",
"an c #151515",
"#o c #161616",
".j c #181818",
"bG c #181821",
".V c #191919",
".v c #1a1a1a",
"az c #1b1b25",
"#d c #1c1c1c",
".K c #1d1d1d",
"bv c #1e1e1e",
"aJ c #1e1e35",
".Y c #1f1f1f",
"bJ c #1f1f2a",
"#s c #202020",
"#S c #212121",
"#5 c #21212b",
"aY c #23232c",
"bc c #242424",
"be c #252525",
"ar c #262626",
"aS c #262631",
"#C c #282828",
".H c #282835",
"bo c #2a2a2a",
"ap c #2b2b2b",
"at c #2c2c2c",
".g c #2d2d2d",
".9 c #2e2e2e",
"#w c #2f2f2f",
"#8 c #313131",
"## c #323232",
"bx c #343434",
"#y c #353535",
".u c #363636",
"a4 c #373737",
"#v c #383838",
".U c #3a3a3a",
"by c #3c3c3c",
"a1 c #3c3c49",
"#U c #3d3d3d",
"bD c #3d3d58",
".b c #3e3e3e",
"bh c #3f3f3f",
"aP c #404040",
".r c #414141",
".G c #424242",
"#a c #444444",
".R c #454545",
"aa c #464646",
".e c #474747",
"#p c #494949",
"#z c #4b4b4b",
"#L c #4d4d4d",
"aX c #4f4f4f",
".8 c #505050",
"bp c #505061",
"#W c #545454",
"#M c #555555",
"aV c #575757",
"bz c #5a5a5a",
"al c #5a5a67",
"#X c #5b5b5b",
".E c #5d5d5d",
"aN c #5e5e5e",
"bd c #5f5f5f",
"a7 c #606060",
".o c #616161",
".a c #636363",
"af c #656565",
"#e c #666666",
"b. c #666676",
"bK c #675c66",
"aE c #676767",
"ag c #678585",
".5 c #686868",
"#B c #6a6a6a",
"#D c #6b6b6b",
"#2 c #6c6c6c",
"br c #6d6d81",
"#l c #6e6e6e",
"bj c #6f6f6f",
"bk c #707090",
"#Y c #727272",
"aB c #737373",
"bE c #757575",
".Q c #767676",
"bN c #767678",
"#i c #76768d",
"#O c #787878",
"aj c #7a7a7a",
"#P c #7c7c7c",
".3 c #7d7d7d",
"#0 c #819797",
".D c #828282",
".A c #838383",
"bm c #888888",
".n c #898989",
"aL c #8c8c8c",
"am c #8d8d8d",
"ad c #8d8d92",
"ba c #8f8f8f",
"#m c #909090",
".l c #909092",
"#E c #929292",
"bt c #939393",
".0 c #969696",
"ay c #9696a6",
"#H c #979697",
"#c c #999999",
"bH c #9999a6",
".N c #9c9c9c",
"a9 c #9d9da4",
"#Q c #9e9e9e",
"a8 c #9f9f9f",
"aK c #a0a0a0",
"#4 c #a1a1af",
"aZ c #a2a2b3",
"aC c #a2a2b7",
"bF c #a3a3a3",
".M c #a5a5a5",
".w c #a9a9a9",
"#V c #ababab",
"au c #adadad",
"#t c #aeaeae",
"aT c #aeaebc",
".x c #afafaf",
".i c #b0b0b0",
"bb c #b1b1b1",
"ab c #b2b2b2",
"aI c #b2b2b9",
"#9 c #b4b4b4",
"#n c #b5b5b5",
"#b c #b6b6b9",
"bB c #b9b9b9",
"bu c #b9b9bc",
".X c #bababa",
"#I c #bbbbbb",
"bA c #bcbcbc",
"bI c #bcbcbd",
"aF c #bdbdbd",
"a0 c #bdbdcc",
".W c #bebebe",
".h c #bfbfcd",
"aH c #c1c1c1",
"a2 c #c4c4c4",
".I c #c4c4c5",
".t c #c5c5c5",
".J c #c6c6c6",
"a3 c #c8c8c8",
"#x c #c9c9c9",
"#6 c #c9caca",
"#T c #cacaca",
"aR c #cbcbcb",
"bf c #cdcdcd",
"as c #ceced1",
"#u c #cfcfcf",
"bn c #d0d0d0",
"#. c #d2d2d2",
"bC c #d2d2d4",
"#3 c #d3d3d3",
"bw c #d4d4d4",
"aq c #d5d5d5",
".S c #d7d7d7",
"bL c #d7d7d9",
"#7 c #d8d8d8",
"#K c #d9d9d9",
"#J c #dac4da",
".T c #dadada",
"#A c #dbdbdb",
".s c #dcdcdc",
".d c #dedede",
"aQ c #dedee1",
"ax c #dfdfdf",
"#r c #e0e0e0",
"aG c #e0e0e7",
"av c #e1e1e1",
"a5 c #e2e2e3",
".6 c #e4e4e4",
"a. c #e4e4e6",
"#1 c #e5e5e5",
"#f c #e6e6e6",
"bq c #e6e6e7",
"#q c #e8e8e8",
".c c #eaeaea",
".F c #eaeaf0",
"#N c #ebebeb",
"bg c #ececec",
"bl c #ececed",
"ah c #eceeee",
".p c #ededed",
"bM c #ededf2",
"aW c #eeeeee",
"bi c #efefef",
"ae c #f0f0f0",
".7 c #f1f1f1",
".C c #f2f2f2",
"a6 c #f2f2f4",
"ai c #f3f3f3",
"aD c #f5f5f5",
"aM c #f6f6f6",
"#j c #f7f7f7",
".# c #f8f8f8",
".2 c #f9f9f9",
".m c #fbfbfb",
"#k c #fcfcfc",
".B c #fdfdfd",
".1 c #fefefe",
"Qt c none",
"QtQtQtQtQtQtQtQtQtQtQtQtQtQtQtQtQtQtQtQtQtQtQtQtQtQtQtQtQtQt.#.a.b.cQtQtQtQtQtQtQtQtQtQtQtQtQtQtQtQtQtQtQtQtQtQtQtQtQtQtQtQtQtQt",
"QtQtQtQtQtQtQtQtQtQtQtQtQtQtQtQtQtQtQtQtQtQtQtQtQtQtQtQtQt.d.e.f.f.g.hQtQtQtQtQtQtQtQtQtQtQtQtQtQtQtQtQtQtQtQtQtQtQtQtQtQtQtQtQt",
"QtQtQtQtQtQtQtQtQtQtQtQtQtQtQtQtQtQtQtQtQtQtQtQtQtQtQtQt.i.j.f.f.f.f.k.l.mQtQtQtQtQtQtQtQtQtQtQtQtQtQtQtQtQtQtQtQtQtQtQtQtQtQtQt",
"QtQtQtQtQtQtQtQtQtQtQtQtQtQtQtQtQtQtQtQtQtQtQtQtQtQtQt.n.f.f.f.f.f.f.f.f.o.mQtQtQtQtQtQtQtQtQtQtQtQtQtQtQtQtQtQtQtQtQtQtQtQtQtQt",
"QtQtQtQtQtQtQtQtQtQtQtQtQtQtQtQtQtQtQtQtQtQtQtQtQt.p.a.q.f.f.f.f.f.f.f.f.f.r.sQtQtQtQtQtQtQtQtQtQtQtQtQtQtQtQtQtQtQtQtQtQtQtQtQt",
"QtQtQtQtQtQtQtQtQtQtQtQtQtQtQtQtQtQtQtQtQtQtQtQt.t.u.f.f.f.f.f.f.f.f.f.f.f.f.v.wQtQtQtQtQtQtQtQtQtQtQtQtQtQtQtQtQtQtQtQtQtQtQtQt",
"QtQtQtQtQtQtQtQtQtQtQtQtQtQtQtQtQtQtQtQtQtQtQt.x.y.f.f.f.f.f.f.f.f.f.f.f.f.f.f.z.A.BQtQtQtQtQtQtQtQtQtQtQtQtQtQtQtQtQtQtQtQtQtQt",
"QtQtQtQtQtQtQtQtQtQtQtQtQtQtQtQtQtQtQtQtQt.C.D.z.f.f.f.f.f.f.f.f.f.f.f.f.f.f.f.f.f.E.FQtQtQtQtQtQtQtQtQtQtQtQtQtQtQtQtQtQtQtQtQt",
"QtQtQtQtQtQtQtQtQtQtQtQtQtQtQtQtQtQtQtQt.d.G.f.f.f.f.f.f.f.f.f.f.f.f.f.f.f.f.f.f.f.f.H.IQtQtQtQtQtQtQtQtQtQtQtQtQtQtQtQtQtQtQtQt",
"QtQtQtQtQtQtQtQtQtQtQtQtQtQtQtQtQtQtQt.J.K.f.f.f.f.f.f.f.f.f.f.f.f.f.f.f.f.f.f.f.f.f.f.L.MQtQtQtQtQtQtQtQtQtQtQtQtQtQtQtQtQtQtQt",
"QtQtQtQtQtQtQtQtQtQtQtQtQtQtQtQtQtQt.N.O.f.f.f.f.f.f.f.f.f.f.f.f.f.f.f.f.f.f.f.f.f.f.f.f.P.Q.BQtQtQtQtQtQtQtQtQtQtQtQtQtQtQtQtQt",
"QtQtQtQtQtQtQtQtQtQtQtQtQtQtQtQt.p.o.q.f.f.f.f.f.f.f.f.f.f.f.f.f.f.f.f.f.f.f.f.f.f.f.f.f.f.f.R.SQtQtQtQtQtQtQtQtQtQtQtQtQtQtQtQt",
"QtQtQtQtQtQtQtQtQtQtQtQtQtQtQt.T.U.f.f.f.f.f.f.f.f.f.f.f.f.f.f.f.f.f.f.f.f.f.f.f.f.f.f.f.f.f.f.V.WQtQtQtQtQtQtQtQtQtQtQtQtQtQtQt",
"QtQtQtQtQtQtQtQtQtQtQtQtQtQt.X.Y.f.f.f.f.f.f.f.f.f.f.f.f.f.f.f.f.f.f.f.f.f.f.f.f.f.f.f.f.f.f.f.f.Z.0.1QtQtQtQtQtQtQtQtQtQtQtQtQt",
"QtQtQtQtQtQtQtQtQtQtQtQt.2.3.P.f.f.f.f.f.f.f.f.f.f.f.f.f.f.f.f.f.f.f.f.f.f.f.f.f.f.f.f.f.f.f.f.f.f.4.5.6QtQtQtQtQtQtQtQtQtQtQtQt",
"QtQtQtQtQtQtQtQtQtQtQt.7.8.f.f.f.f.f.f.f.f.f.f.f.f.f.f.f.f.f.f.f.f.f.f.f.f.f.f.f.f.f.f.f.f.f.f.f.f.f.f.9.dQtQtQtQtQtQtQtQtQtQtQt",
"QtQtQtQtQtQtQtQtQtQt#.##.f.f.f.f.f.f.f.f.f.f.f.f.f.f.f.f.f.f.f###a.f.f.f.f.f.f.f.f.f.f.f.f.f.f.f.f.f.f.f.j#bQtQtQtQtQtQtQtQtQtQt",
"QtQtQtQtQtQtQtQtQt#c#d.f.f.f.f.f.f.f.f.f.f.f.f.f.f.f.f.f.f.f#e#f.2.n#g.f.f.f.f.f.f.f.f.f.f.f.f.f.f.f.f.f.f#h#i#jQtQtQtQtQtQtQtQt",
"QtQtQtQtQtQtQt#k#l.f.f.f.f.f.f.f.f.f.f.f.f.f.f.f.f.f.f.f.4#mQtQtQtQt#n#o.f.f.f.f.f.f.f.f.f.f.f.f.f.f.f.f.f.f.f#p#qQtQtQtQtQtQtQt",
"QtQtQtQtQtQt#r.8.f.f.f.f.f.f.f.f.f.f.f.f.f.f.f.f.f.f.f#s#tQtQtQtQtQtQt#u#v.f.f.f.f.f.f.f.f.f.f.f.f.f.f.f.f.f.f.f#w#xQtQtQtQtQtQt",
"QtQtQtQtQtQt#y.f.f.f.f.f.f.f.f.f.f.f.f.f.f.f.f.f.f.f#z#AQtQtQtQtQtQtQtQt.7#B.q.f.f.f.f.f.f.f.f.f.f.f.f.f.f.f.f.f.f#CQtQtQtQtQtQt",
"QtQtQtQtQtQt.O.f.f.f.f.f.f.f.f.f.f.f.f.f.f.f.f.f.f#D.BQtQtQtQtQtQtQtQtQtQtQt#E#F.f.f.f.f.f.f.f.f.f.f.f.f.f.f.f.f.f.OQtQtQtQtQtQt",
"QtQtQtQtQtQt.O.f.f.f.f.f.f.f.f.f.f.f.f.f.f.f.f#G#HQtQtQtQtQtQtQtQtQtQtQtQtQtQt#I.j.f.f.f.f.f.f.f.f.f.f.f.f.f.f.f.f.OQtQtQtQtQtQt",
"QtQtQtQtQtQt.O.f.f.f.f.f.f.f.f.f.f.f.f.f.f.f###JQtQtQtQtQtQtQtQtQtQtQtQtQtQtQtQt#K#L.f.f.f.f.f.f.f.f.f.f.f.f.f.f.f.OQtQtQtQtQtQt",
"QtQtQtQtQtQt.O.f.f.f.f.f.f.f.f.f.f.f.f.f.f#M#NQtQtQtQtQtQtQtQtQtQtQtQtQtQtQtQtQtQtQt#O.f.f.f.f.f.f.f.f.f.f.f.f.f.f.OQtQtQtQtQtQt",
"QtQtQtQtQtQt.O.f.f.f.f.f.f.f.f.f.f.f.f.4#P#jQtQtQtQtQtQtQtQtQtQtQtQtQtQtQtQtQtQtQtQt.B#Q#R.f.f.f.f.f.f.f.f.f.f.f.f.OQtQtQtQtQtQt",
"QtQtQtQtQtQt.O.f.f.f.f.f.f.f.f.f.f.f#S.xQtQtQtQtQtQtQtQtQtQtQtQtQtQtQtQtQtQtQtQtQtQtQtQt#T#U.f.f.f.f.f.f.f.f.f.f.f.OQtQtQtQtQtQt",
"QtQtQtQtQtQt.O.f.f.f.f.f.f.f.f.f.f###AQtQtQtQtQtQtQtQtQtQtQtQt.W#VQtQtQtQtQtQtQtQtQtQtQtQt.C#W.f.f.f.f.f.f.f.f.f.f.OQtQtQtQtQtQt",
"QtQtQtQtQtQt.O.f.f.f.f.f.f.f.f.f#X.pQtQtQtQtQtQtQtQtQtQtQtQt#E.O.f#Y.#QtQtQtQtQtQtQtQtQtQtQt.B.3.P.f.f.f.f.f.f.f.f.OQtQtQtQtQtQt",
"QtQtQtQtQtQt.O.f.f.f.f.f.f.f#Z#0.mQtQtQtQtQtQtQtQtQtQtQt#1#2.P.f.f.f.e#3QtQtQtQtQtQtQtQtQtQtQtQt#4#5.f.f.f.f.f.f.f.OQtQtQtQtQtQt",
"QtQtQtQtQtQt.O.f.f.f.f.f.f.K#6QtQtQtQtQtQtQtQtQtQtQtQt#7#8.f.f.f.f.f.f.V#9QtQtQtQtQtQtQtQtQtQtQtQta..U.f.f.f.f.f.f.OQtQtQtQtQtQt",
"QtQtQtQtQtQt.O.f.f.f.fa#aa#KQtQtQtQtQtQtQtQtQtQtQtQtab.K.f.f.f.f.f.f.f.facad.1QtQtQtQtQtQtQtQtQtQtQtaeaf.f.f.f.f.f.OQtQtQtQtQtQt",
"QtQtQtQtQtQt.O.f.f.facagahQtQtQtQtQtQtQtQtQtQtQtaiaj#g.f.f.f.f.f.f.f.f.f.fakal#1QtQtQtQtQtQtQtQtQtQtQt#jaman.f.f.f.OQtQtQtQtQtQt",
"QtQtQtQtQtQt.O.f.fao.MQtQtQtQtQtQtQtQtQtQtQtQt.7.e.f.f.f.f.f.f.f.f.f.f.f.f.f.fapaqQtQtQtQtQtQtQtQtQtQtQtQt.Jar.f.f.OQtQtQtQtQtQt",
"QtQtQtQtQtQt.O.f#C.JQtQtQtQtQtQtQtQtQtQtQtQtasat.f.f.f.f.f.f.f.f.f.f.f.f.f.f.f.f#oauQtQtQtQtQtQtQtQtQtQtQtQtavaa.f.OQtQtQtQtQtQt",
"QtQtQtQtQtQtaw#MaxQtQtQtQtQtQtQtQtQtQtQt.Bayaz.f.f.f.f.f.f.f.f.f.f.f.f.f.f.f.f.f.faA.3aiQtQtQtQtQtQtQtQtQtQtQt#jaB.jQtQtQtQtQtQt",
"QtQtQtQtQtQtaC.mQtQtQtQtQtQtQtQtQtQtQtaDaE.f.f.f.f.f.f.f.f.f.f.f.f.f.f.f.f.f.f.f.f.f.f.b#qQtQtQtQtQtQtQtQtQtQtQtQtaFQtQtQtQtQtQt",
"QtQtQtQtQtQtQtQtQtQtQtQtQtQtQtQtQtQtaG.R.f.f.f.f.f.f.f.f.f.f.f.f.f.f.f.f.f.f.f.f.f.f.f.fataHQtQtQtQtQtQtQtQtQtQtQtQtQtQtQtQtQtQt",
"QtQtQtQtQtQtQtQtQtQtQtQtQtQtQtQtQtaIaJ.f.f.f.f.f.f.f.f.f.f.f.f.f.f.f.f.f.f.f.f.f.f.f.f.f.f.jaK#jQtQtQtQtQtQtQtQtQtQtQtQtQtQtQtQt",
"QtQtQtQtQtQtQtQtQtQtQtQtQtQtQtQtaL.f.f.f.f.f.f.f.f.f.f.f.f.f.f.f.f.f.f.f.f.f.f.f.f.f.f.f.f.f.f.a.2QtQtQtQtQtQtQtQtQtQtQtQtQtQtQt",
"QtQtQtQtQtQtQtQtQtQtQtQtQtQtaMaNaO.f.f.f.f.f.f.f.f.f.f.f.f.f.f.f.f.f.f.f.f.f.f.f.f.f.f.f.f.f.f.faPaQQtQtQtQtQtQtQtQtQtQtQtQtQtQt",
"QtQtQtQtQtQtQtQtQtQtQtQtQtaRaP.f.f.f.f.f.f.f.f.f.f.f.f.f.f.f.f.f.f.f.f.f.f.f.f.f.f.f.f.f.f.f.f.f.faSaTQtQtQtQtQtQtQtQtQtQtQtQtQt",
"QtQtQtQtQtQtQtQtQtQtQtQt.Mao.f.f.f.f.f.f.f.f.f.f.f.f.f.f.f.f.f.f.f.f.f.f.f.f.f.f.f.f.f.f.f.f.f.f.f.faO#PQtQtQtQtQtQtQtQtQtQtQtQt",
"QtQtQtQtQtQtQtQtQtQt.2#PaA.f.f.f.f.f.f.f.f.f.f.f.f.f.f.f.f.f.faoaU.f.f.f.f.f.f.f.f.f.f.f.f.f.f.f.f.f.f.faVaWQtQtQtQtQtQtQtQtQtQt",
"QtQtQtQtQtQtQtQtQt.SaX.f.f.f.f.f.f.f.f.f.f.f.f.f.f.f.f.f.f.faYaZa0a1.f.f.f.f.f.f.f.f.f.f.f.f.f.f.f.f.f.f.f.ra2QtQtQtQtQtQtQtQtQt",
"QtQtQtQtQtQtQtQta3#d.f.f.f.f.f.f.f.f.f.f.f.f.f.f.f.f.f.f.fa4a5QtQta6a7.f.f.f.f.f.f.f.f.f.f.f.f.f.f.f.f.f.f.f.ya8QtQtQtQtQtQtQtQt",
"QtQtQtQtQtQtQta9.y.f.f.f.f.f.f.f.f.f.f.f.f.f.f.f.f.f.f.fa7.CQtQtQtQt#k.n.q.f.f.f.f.f.f.f.f.f.f.f.f.f.f.f.f.f.f.4.Q.BQtQtQtQtQtQt",
"QtQtQtQtQtQtb.b#.f.f.f.f.f.f.f.f.f.f.f.f.f.f.f.f.f.fanba#jQtQtQtQtQtQtQtbbbc.f.f.f.f.f.f.f.f.f.f.f.f.f.f.f.f.f.f.fbdQtQtQtQtQtQt",
"QtQtQtQtQtQt.O.f.f.f.f.f.f.f.f.f.f.f.f.f.f.f.f.f.fbebfQtQtQtQtQtQtQtQtQtQtbgbh.f.f.f.f.f.f.f.f.f.f.f.f.f.f.f.f.f.f.OQtQtQtQtQtQt",
"QtQtQtQtQtQt.O.f.f.f.f.f.f.f.f.f.f.f.f.f.f.f.f.f#z#rQtQtQtQtQtQtQtQtQtQtQtQtbibj.f.f.f.f.f.f.f.f.f.f.f.f.f.f.f.f.f.OQtQtQtQtQtQt",
"QtQtQtQtQtQt.O.f.f.f.f.f.f.f.f.f.f.f.f.f.f.facbkblQtQtQtQtQtQtQtQtQtQtQtQtQtQt.Bbm#o.f.f.f.f.f.f.f.f.f.f.f.f.f.f.f.OQtQtQtQtQtQt",
"QtQtQtQtQtQt.O.f.f.f.f.f.f.f.f.f.f.f.f.f.fan#VQtQtQtQtQtQtQtQtQtQtQtQtQtQtQtQtQtQtbnbo.f.f.f.f.f.f.f.f.f.f.f.f.f.f.OQtQtQtQtQtQt",
"QtQtQtQtQtQt.O.f.f.f.f.f.f.f.f.f.f.f.f.fat#uQtQtQtQtQtQtQtQtQtQtQtQtQtQtQtQtQtQtQtQt.6aX.f.f.f.f.f.f.f.f.f.f.f.f.f.OQtQtQtQtQtQt",
"QtQtQtQtQtQt.O.f.f.f.f.f.f.f.f.f.f.f.qbpbqQtQtQtQtQtQtQtQtQtQtQtQtQtQtQtQtQtQtQtQtQtQtaMbrbs.f.f.f.f.f.f.f.f.f.f.f.OQtQtQtQtQtQt",
"QtQtQtQtQtQt.O.f.f.f.f.f.f.f.f.f.f.qbtQtQtQtQtQtQtQtQtQtQtQtQtQtQtQtQtQtQtQtQtQtQtQtQtQtQtbu.O.f.f.f.f.f.f.f.f.f.f.OQtQtQtQtQtQt",
"QtQtQtQtQtQt.O.f.f.f.f.f.f.f.f.fbv#nQtQtQtQtQtQtQtQtQtQtQtQtQtQtQtQtQtQtQtQtQtQtQtQtQtQtQtQtbwbx.f.f.f.f.f.f.f.f.f.OQtQtQtQtQtQt",
"QtQtQtQtQtQt.O.f.f.f.f.f.f.f.fbya3QtQtQtQtQtQtQtQtQtQtQtQtQtQtQtQtQtQtQtQtQtQtQtQtQtQtQtQtQtQt#rbz.z.f.f.f.f.f.f.f.OQtQtQtQtQtQt",
"QtQtQtQtQtQt.O.f.f.f.f.f.f.fbj#kQtQtQtQtQtQtQtQtQtQtQtQtQtQtQtQtQtQtQtQtQtQtQtQtQtQtQtQtQtQtQtQtQt#cac.f.f.f.f.f.f.OQtQtQtQtQtQt",
"QtQtQtQtQtQt.O.f.f.f.f.f.O.0QtQtQtQtQtQtQtQtQtQtQtQtQtQtQtQtQtQtQtQtQtQtQtQtQtQtQtQtQtQtQtQtQtQtQtQtbA#s.f.f.f.f.f.OQtQtQtQtQtQt",
"QtQtQtQtQtQt.O.f.f.f.f#8bBQtQtQtQtQtQtQtQtQtQtQtQtQtQtQtQtQtQtQtQtQtQtQtQtQtQtQtQtQtQtQtQtQtQtQtQtQtQtbCbDaO.f.f.f.OQtQtQtQtQtQt",
"QtQtQtQtQtQt.O.f.f.f.8.CQtQtQtQtQtQtQtQtQtQtQtQtQtQtQtQtQtQtQtQtQtQtQtQtQtQtQtQtQtQtQtQtQtQtQtQtQtQtQtQtQtbE.f.f.f.OQtQtQtQtQtQt",
"QtQtQtQtQtQt.O.faO.3.2QtQtQtQtQtQtQtQtQtQtQtQtQtQtQtQtQtQtQtQtQtQtQtQtQtQtQtQtQtQtQtQtQtQtQtQtQtQtQtQtQtQt.1bFac.f.OQtQtQtQtQtQt",
"QtQtQtQtQtQtaUbGbH.1QtQtQtQtQtQtQtQtQtQtQtQtQtQtQtQtQtQtQtQtQtQtQtQtQtQtQtQtQtQtQtQtQtQtQtQtQtQtQtQtQtQtQtQtQtbIbJaUQtQtQtQtQtQt",
"QtQtQtQtQtQtbKbLQtQtQtQtQtQtQtQtQtQtQtQtQtQtQtQtQtQtQtQtQtQtQtQtQtQtQtQtQtQtQtQtQtQtQtQtQtQtQtQtQtQtQtQtQtQtQtQtbMbNQtQtQtQtQtQt"};
