/* XPM */
static char *dummy[]={
"64 64 172 2",
".t c #000000",
".s c #010101",
"#m c #020202",
"ar c #030303",
".Z c #040404",
".V c #050505",
"#s c #070707",
"#o c #080808",
".W c #090909",
"aE c #0a0a0a",
"aa c #0b0b0b",
".u c #0e0e0e",
".A c #101010",
"#8 c #111111",
"#F c #131313",
"#c c #141414",
"ax c #151515",
".4 c #161616",
"#U c #181818",
"aw c #191919",
"a. c #1a1a1a",
"#Z c #1c1c1c",
".z c #1d1d1d",
".J c #1e1e1e",
"aN c #1f1f1f",
".P c #212121",
"#x c #222222",
"#J c #242424",
"#u c #252525",
"#k c #262626",
"aC c #272727",
"#y c #282828",
".M c #292929",
".d c #2d2d2d",
".r c #2e2e2e",
"am c #2f2f2f",
"#B c #313131",
".m c #333333",
"aO c #343434",
"## c #363636",
".l c #373737",
".S c #383838",
"#6 c #393939",
"aH c #3a3a3a",
".7 c #3c3c3c",
"#a c #3e3e3e",
"az c #3f3f3f",
".8 c #404040",
".c c #414141",
"al c #444444",
"aK c #464646",
"#q c #494949",
"aA c #4a4a4a",
"#S c #4e4e4e",
"au c #4f4f4f",
"ap c #505050",
"af c #555555",
"aI c #565656",
".e c #575757",
"#f c #585858",
"aB c #595959",
".L c #5b5b5b",
".0 c #5c5c5c",
"#e c #5d5d5d",
".n c #5e5e5e",
".5 c #606060",
"aG c #626262",
".k c #646464",
".6 c #656565",
".v c #696969",
"#I c #6d6d6d",
".D c #6e6e6e",
".R c #6f6f6f",
"ah c #707070",
".I c #717171",
"aM c #727272",
".b c #737373",
"aD c #747474",
".9 c #757575",
"ay c #767676",
".y c #7a7a7a",
"#E c #848484",
"ab c #858585",
"#Y c #878787",
"ac c #888888",
"ae c #8a8a8a",
"#R c #8b8b8b",
"aq c #8c8c8c",
"#h c #8d8d8d",
"#V c #909090",
"#i c #919191",
".f c #949494",
"aj c #969696",
"ak c #979797",
"#5 c #999999",
"aJ c #9a9a9a",
"#n c #9b9b9b",
"#l c #9c9c9c",
"aF c #9d9d9d",
"#b c #9e9e9e",
"ao c #9f9f9f",
"#9 c #a1a1a1",
".q c #a3a3a3",
"#Q c #a4a4a4",
".1 c #a6a6a6",
"at c #a7a7a7",
".3 c #a8a8a8",
"as c #a9a9a9",
"ad c #aaaaaa",
"#G c #acacac",
".2 c #adadad",
".j c #aeaeae",
"#A c #afafaf",
".T c #b0b0b0",
"#P c #b7b7b7",
"#w c #b8b8b8",
"#7 c #b9b9b9",
"#O c #bababa",
".O c #bcbcbc",
"#H c #c1c1c1",
".a c #c2c2c2",
"#K c #c4c4c4",
"aL c #c7c7c7",
"#4 c #c9c9c9",
"aP c #cacaca",
"a# c #cbcbcb",
"#M c #cccccc",
"#g c #cecece",
"#D c #d0d0d0",
".E c #d1d1d1",
"#z c #d2d2d2",
"#2 c #d3d3d3",
".w c #d5d5d5",
"#C c #d7d7d7",
"#T c #d8d8d8",
"#N c #d9d9d9",
".Y c #dadada",
"#X c #dbdbdb",
"#W c #dcdcdc",
".o c #dddddd",
"#. c #dedede",
".g c #dfdfdf",
"#3 c #e0e0e0",
".U c #e2e2e2",
".K c #e3e3e3",
"#0 c #e5e5e5",
".G c #e6e6e6",
"an c #e7e7e7",
"#t c #e8e8e8",
".X c #e9e9e9",
"#1 c #eaeaea",
"av c #ebebeb",
".B c #ececec",
".i c #ededed",
".x c #eeeeee",
"ai c #efefef",
"#p c #f0f0f0",
"#L c #f1f1f1",
".F c #f2f2f2",
".# c #f3f3f3",
"#v c #f4f4f4",
".N c #f5f5f5",
"#d c #f6f6f6",
"#j c #f7f7f7",
"#r c #f8f8f8",
".p c #f9f9f9",
"ag c #fafafa",
".H c #fbfbfb",
".h c #fcfcfc",
".C c #fdfdfd",
".Q c #fefefe",
"Qt c none",
"QtQtQtQtQtQtQtQtQt.#.a.b.c.d.e.f.g.hQtQtQtQtQtQtQtQtQtQtQtQtQtQtQtQtQtQtQtQtQtQtQtQtQtQtQt.i.j.k.l.m.n.j.oQtQtQtQtQtQtQtQtQtQtQt",
"QtQtQtQtQtQtQt.p.q.r.s.t.t.t.t.t.u.v.wQtQtQtQtQtQtQtQtQtQtQtQtQtQtQtQtQtQtQtQtQtQtQtQt.x.y.z.t.t.t.t.t.t.A.y.BQtQtQtQtQtQtQtQtQt",
"QtQtQtQtQtQt.C.D.t.t.t.t.t.t.t.t.t.t.A.EQtQtQtQtQtQtQtQtQtQtQtQtQtQtQtQtQtQtQtQtQtQt.F.r.t.t.t.t.t.t.t.t.t.t.m.GQtQtQtQtQtQtQtQt",
"QtQtQtQtQt.H.I.t.t.t.t.t.t.t.t.t.t.t.t.J.KQtQtQtQtQtQtQtQtQtQtQtQtQtQtQtQtQtQtQtQt.p.L.t.t.t.t.t.t.t.t.t.t.t.t.M.NQtQtQtQtQtQtQt",
"QtQtQtQtQt.O.t.t.t.t.t.t.t.t.t.t.t.t.t.t.P.#QtQtQtQtQtQtQtQtQtQtQtQtQtQtQtQtQtQt.Q.R.t.t.t.t.t.t.t.t.t.t.t.t.t.t.b.QQtQtQtQtQtQt",
"QtQtQtQt.H.S.t.t.t.t.t.t.t.t.t.t.t.t.t.t.t.TQtQtQtQtQtQtQtQtQtQtQtQtQtQtQtQtQtQt.U.V.t.t.t.t.t.t.t.t.t.t.t.t.t.t.W.XQtQtQtQtQtQt",
"QtQtQtQt.Y.Z.t.t.t.t.t.t.t.t.t.t.t.t.t.t.t.0.QQtQtQtQtQtQtQtQtQtQtQtQtQtQtQtQtQt.1.t.t.t.t.t.t.t.t.t.t.t.t.t.t.t.t.2QtQtQtQtQtQt",
"QtQtQtQt.3.t.t.t.t.t.t.t.t.t.t.t.t.t.t.t.t.4.#QtQtQtQtQtQtQtQtQtQtQtQtQtQtQtQt.Q.5.t.t.t.t.t.t.t.t.t.t.t.t.t.t.t.t.6QtQtQtQtQtQt",
"QtQtQtQt.y.t.t.t.t.t.t.t.t.t.t.t.t.t.t.t.t.W.KQtQtQtQtQtQtQtQtQtQtQtQtQtQtQtQt.H.7.t.t.t.t.t.t.t.t.t.t.t.t.t.t.t.t.8QtQtQtQtQtQt",
"QtQtQtQt.9.t.t.t.t.t.t.t.t.t.t.t.t.t.t.t.t.W#.QtQtQtQtQtQtQtQtQtQtQtQtQtQtQtQt.p##.t.t.t.t.t.t.t.t.t.t.t.t.t.t.t.t#aQtQtQtQtQtQt",
"QtQtQtQt#b.t.t.t.t.t.t.t.t.t.t.t.t.t.t.t.t#c#dQtQtQtQtQtQtQtQtQtQtQtQtQtQtQtQt.Q#e.t.t.t.t.t.t.t.t.t.t.t.t.t.t.t.t#fQtQtQtQtQtQt",
"QtQtQtQt#g.t.t.t.t.t.t.t.t.t.t.t.t.t.t.t.t.c.hQtQtQtQtQtQtQtQtQtQtQtQtQtQtQtQtQt#h.t.t.t.t.t.t.t.t.t.t.t.t.t.t.t.t#iQtQtQtQtQtQt",
"QtQtQtQt#j#k.t.t.t.t.t.t.t.t.t.t.t.t.t.t.t#lQtQtQtQtQtQtQtQtQtQtQtQtQtQtQtQtQtQt.w#m.t.t.t.t.t.t.t.t.t.t.t.t.t.t.Z#.QtQtQtQtQtQt",
"QtQtQtQtQt#n.t.t.t.t.t.t.t.t.t.t.t.t.t.t#o#pQtQtQtQtQtQtQtQtQtQtQtQtQtQtQtQtQtQt.h#a.t.t.t.t.t.t.t.t.t.t.t.t.t.t#q.CQtQtQtQtQtQt",
"QtQtQtQtQt#r.m.t.t.t.t.t.t.t.t.t.t.t.t#s.TQtQtQtQtQtQtQtQtQtQtQtQtQtQtQtQtQtQtQtQt#t#u.t.t.t.t.t.t.t.t.t.t.t.t#s#.QtQtQtQtQtQtQt",
"QtQtQtQtQtQt#v.e.t.t.t.t.t.t.t.t.t.t.W#wQtQtQtQtQtQtQtQtQtQtQtQtQtQtQtQtQtQtQtQtQtQt.G#x.t.t.t.t.t.t.t.t.t.t#y#zQtQtQtQtQtQtQtQt",
"QtQtQtQtQtQtQt.N#f.V.t.t.t.t.t.t.t.P#A.QQtQtQtQtQtQtQtQtQtQtQtQtQtQtQtQtQtQtQtQtQtQtQt.g#B#m.t.t.t.t.t.t.s.S#CQtQtQtQtQtQtQtQtQt",
"QtQtQtQtQtQtQtQt.p#D#E#a.J#F.d.L#G.BQtQtQtQtQtQtQtQtQtQtQtQtQtQtQtQtQtQtQtQtQtQtQtQtQtQt#v#H#I#B.t.t#J.D#K#pQtQtQtQtQtQtQtQtQtQt",
"QtQtQtQtQtQtQtQtQtQtQt.p.##L#j.hQtQtQtQtQtQtQtQtQtQtQtQtQtQtQtQtQtQtQtQtQtQtQtQtQtQtQtQtQtQt.Q#M.t.t.1.QQtQtQtQtQtQtQtQtQtQtQtQt",
"QtQtQtQtQtQtQtQtQtQtQtQtQtQtQtQtQtQtQtQtQtQtQtQtQtQtQtQtQtQtQtQtQtQtQtQtQtQtQtQtQtQtQtQtQtQtQt#N.t.t#OQtQtQtQtQtQtQtQtQtQtQtQtQt",
"QtQtQtQtQtQtQtQtQtQtQtQtQtQtQtQtQtQtQtQtQtQtQtQtQtQtQtQtQtQtQtQtQtQtQtQtQtQtQtQtQtQtQtQtQtQtQt.Q#P#Q#rQtQtQtQtQtQtQtQtQtQtQtQtQt",
"QtQtQtQtQtQtQtQtQtQtQtQtQtQtQtQtQtQtQtQtQtQtQtQtQtQtQtQtQtQtQtQtQtQtQtQtQtQtQtQtQtQtQtQtQtQtQtQtQtQtQtQtQtQtQtQtQtQtQtQtQtQtQtQt",
"QtQtQtQtQtQtQtQtQtQtQtQtQt.HQtQtQtQtQtQtQtQtQtQtQtQtQtQtQtQtQtQtQtQtQtQtQtQtQtQtQtQtQtQtQtQtQtQtQtQtQtQtQtQtQtQtQtQtQtQtQtQtQtQt",
"QtQtQtQtQtQtQtQtQtQtQt.p#R#S#TQtQtQtQtQtQtQtQtQtQtQtQtQtQtQtQtQtQtQtQtQtQtQtQtQtQtQtQtQtQtQtQtQtQtQtQtQtQtQtQtQtQtQtQtQtQtQtQtQt",
"QtQtQtQtQtQtQtQtQtQt.Q.y.t.t#U#CQtQtQtQtQtQtQtQtQtQtQtQtQtQtQtQtQtQtQtQtQtQtQtQtQtQtQtQtQtQtQtQtQtQtQtQtQtQtQtQtQtQtQtQtQtQtQtQt",
"QtQtQtQtQtQtQtQtQt.Q#V.t.t.t.t.z#WQtQtQtQtQtQtQtQtQtQtQtQtQtQtQtQtQtQtQtQtQtQtQtQtQtQtQtQtQtQtQt#X#N.QQtQtQtQtQtQtQtQtQtQtQtQtQt",
"QtQtQtQtQtQtQtQt.Q#Y.t.t.t.t.t.t#Z#0QtQtQtQtQtQtQtQtQtQtQtQtQtQtQtQtQtQtQtQtQtQtQtQtQtQtQtQtQt#1#c#s#2QtQtQtQtQtQtQtQtQtQtQtQtQt",
"QtQtQtQtQtQtQt.Q#i.t.t#c#s.t#k#s.t.r#3QtQtQtQtQtQtQtQtQtQtQtQtQtQtQtQtQtQtQtQtQtQtQtQtQtQtQtQt#4.s.t#QQtQtQtQtQtQtQtQtQtQtQtQtQt",
"QtQtQtQtQtQtQt#5.t.t#6#7#8.t#9#A.V.ta..XQtQtQtQtQtQtQtQtQtQtQtQtQtQtQtQtQtQtQtQtQtQtQtQtQtQtQta#.Z.t.1QtQtQtQtQtQtQtQtQtQtQtQtQt",
"QtQtQtQtQtQt#raa.t.u#T#0#s.t#5Qtab.t.tacQtQtQtQtQtQtQtQtQtQtQtQtQtQtQtQtQtQtQtQtQtQtQtQtQtQtQt#M.t.tadQtQtQtQtQtQtQtQtQtQtQtQtQt",
"QtQtQtQtQtQt.Haeaf.EQt#N#s.t.fQt#r#R#q#.QtQtQtQtQtQtQtQtQtQtQtQtQtQtQtQtQtQtQtQtQtQtQtQtQtQtQtagah.naiQtQtQtQtQtQtQtQtQtQtQtQtQt",
"QtQtQtQtQtQtQt.Q.hQtQt#N#s.tajQtQtQt.hQtQtQtQtQtQtQtQtQtQtQtQtQtQtQtQtQtQtQtQtQtQtQtQtQtQtQtQtQt.Q.CQtQtQtQtQtQtQtQtQtQtQtQtQtQt",
"QtQtQtQtQtQtQtQtQtQtQt#N#s.tajQtQtQtQtQtQtQtQtQtQtQtQtQtQtQtQtQtQtQtQtQtQtQtQtQtQtQtQtQtQtQtQtQtQtQtQtQtQtQtQtQtQtQtQtQtQtQtQtQt",
"QtQtQtQtQtQtQtQtQtQtQt#N#s.tajQtQtQtQtQtQtQtQtQtQtQtQtQtQtQtQtQtQtQtQtQtQtQtQtQtQtQtQtQtQtQtQtQtQtQtQtQtQtQtQtQtQtQtQtQtQtQtQtQt",
"QtQtQtQtQtQtQtQtQtQtQt#N#s.tajQtQtQtQtQtQtQtQtQtQtQtQtQtQtQtQtQtQtQtQtQtQtQtQtQtQtQtQtQtQtQtQtQtQtQtQtQtQtQtQtQtQtQtQtQtQtQtQtQt",
"QtQtQtQtQtQtQtQtQtQtQt#N#s.tajQtQtQtQtQtQtQtQtQtQtQtQtQtQtQtQtQtQtQtQtQtQtQtQtQtQtQtQtQtQtQtQtQt.p#jQtQtQtQtQtQtQtQtQtQtQtQtQtQt",
"QtQtQtQtQtQtQtQtQtQtQt#N#s.takQtQtQtQtQtQtQtQtQtQtQtQtQtQtQtQtQtQtQtQtQtQtQtQtQtQtQtQtQtQtQtQt.NalamanQtQtQtQtQtQtQtQtQtQtQtQtQt",
"QtQtQtQtQtQtQtQtQtQtQt#N#s.taoQtQtQtQtQtQtQtQtQtQtQtQtQtQtQtQtQtQtQtQtQtQtQtQtQtQtQtQtQtQtQtQt#2.s.t#QQtQtQtQtQtQtQtQtQtQtQtQtQt",
"QtQtQtQtQtQtQtQtQtQtQt#T#s.tapaq#R#R#R#R#R#R#R#R#R#R#R#R#R#R#R#R#R#R#R#R#R#R#R#R#R#R#R#R#R#Rae#Iar.t.3QtQtQtQtQtQtQtQtQtQtQtQtQt",
"QtQtQtQtQtQtQtQtQtQtQt#N.s.t.t.t.t.t.t.t.t.t.t.t.t.t.t.t.t.t.t.t.t.t.t.t.t.t.t.t.t.t.t.t.t.t.t.t.t.tadQtQtQtQtQtQtQtQtQtQtQtQtQt",
"QtQtQtQtQtQtQtQtQtQtQt.pap#o#s#s#s#s#s#s#s#s#s#s#s#s#s#s#s#s#s#s#s#s#s#s#s#s#s#s#s#s#s#s#s#s#o#o.t.t#GQtQtQtQtQtQtQtQtQtQtQtQtQt",
"QtQtQtQtQtQtQtQtQtQtQtQtag.Y#T#N#N#N#N#N#N#N#N#N#N#N#N#N#N#N#N#N#N#N#N#N#N#N#N#N#N#N#N#N#N#N.Y#A#m.tasQtQtQtQtQtQtQtQtQtQtQtQtQt",
"QtQtQtQtQtQtQtQtQtQtQtQtQtQtQtQtQtQtQtQtQtQtQtQtQtQtQtQtQtQtQtQtQtQtQtQtQtQtQtQtQtQtQtQtQtQtQt#z.Z.t.3QtQtQtQtQtQtQtQtQtQtQtQtQt",
"QtQtQtQtQtQtQtQtQtQtQtQtQtQtQtQtQtQtQtQtQtQtQtQtQtQtQtQtQtQtQtQtQtQtQtQtQtQtQtQtQtQtQtQtQtQtQt#M.Z.t.3QtQtQtQtQtQtQtQtQtQtQtQtQt",
"QtQtQtQtQtQtQtQtQtQtQtQtQtQtQtQtQtQtQtQtQtQtQtQtQtQtQtQtQtQtQtQtQtQtQtQtQtQtQtQtQtQtQtQtQtQtQt#M.Z.tatQtQtQtQtQtQtQtQtQtQtQtQtQt",
"QtQtQtQtQtQtQtQtQtQtQtQtQtQtQtQtQtQtQtQtQtQtQtQtQtQtQtQtQtQtQtQtQtQtQtQtQtQtQtQtQtQtQtQtQtQtQt#2ar.t#GQtQtQtQtQtQtQtQtQtQtQtQtQt",
"QtQtQtQtQtQtQtQtQtQtQtQtQtQtQtQtQtQtQtQtQtQtQtQtQtQtQtQtQtQtQtQtQtQtQtQtQtQtQtQtQtQtQtQt.Q.Xas.v.t.tauad.B.CQtQtQtQtQtQtQtQtQtQt",
"QtQtQtQtQtQtQtQtQtQtQtQtQtQtQtQtQtQtQtQtQtQtQtQtQtQtQtQtQtQtQtQtQtQtQtQtQtQtQtQtQtQtQtav.yaw.t.t.t.t.t.taxay#1QtQtQtQtQtQtQtQtQt",
"QtQtQtQtQtQtQtQtQtQtQtQtQtQtQtQtQtQtQtQtQtQtQtQtQtQtQtQtQtQtQtQtQtQtQtQtQtQtQtQtQtQt.Naz.t.t.t.t.t.t.t.t.t.taA.FQtQtQtQtQtQtQtQt",
"QtQtQtQtQtQtQtQtQtQtQtQtQtQtQtQtQtQtQtQtQtQtQtQtQtQtQtQtQtQtQtQtQtQtQtQtQtQtQtQtQt#jaB.t.t.t.t.t.t.t.t.t.t.t.taC.#QtQtQtQtQtQtQt",
"QtQtQtQtQtQtQtQtQtQtQtQtQtQtQtQtQtQtQtQtQtQtQtQtQtQtQtQtQtQtQtQtQtQtQtQtQtQtQtQt.Q.I.t.t.t.t.t.t.t.t.t.t.t.t.t.taD.QQtQtQtQtQtQt",
"QtQtQtQtQtQtQtQtQtQtQtQtQtQtQtQtQtQtQtQtQtQtQtQtQtQtQtQtQtQtQtQtQtQtQtQtQtQtQtQtanaE.t.t.t.t.t.t.t.t.t.t.t.t.t.t.u.BQtQtQtQtQtQt",
"QtQtQtQtQtQtQtQtQtQtQtQtQtQtQtQtQtQtQtQtQtQtQtQtQtQtQtQtQtQtQtQtQtQtQtQtQtQtQtQtaF.t.t.t.t.t.t.t.t.t.t.t.t.t.t.t.t.3QtQtQtQtQtQt",
"QtQtQtQtQtQtQtQtQtQtQtQtQtQtQtQtQtQtQtQtQtQtQtQtQtQtQtQtQtQtQtQtQtQtQtQtQtQtQt.QaG.t.t.t.t.t.t.t.t.t.t.t.t.t.t.t.t.vQtQtQtQtQtQt",
"QtQtQtQtQtQtQtQtQtQtQtQtQtQtQtQtQtQtQtQtQtQtQtQtQtQtQtQtQtQtQtQtQtQtQtQtQtQtQt.Haz.t.t.t.t.t.t.t.t.t.t.t.t.t.t.t.t.8QtQtQtQtQtQt",
"QtQtQtQtQtQtQtQtQtQtQtQtQtQtQtQtQtQtQtQtQtQtQtQtQtQtQtQtQtQtQtQtQtQtQtQtQtQtQt.p.S.t.t.t.t.t.t.t.t.t.t.t.t.t.t.t.taHQtQtQtQtQtQt",
"QtQtQtQtQtQtQtQtQtQtQtQtQtQtQtQtQtQtQtQtQtQtQtQtQtQtQtQtQtQtQtQtQtQtQtQtQtQtQt.QaI.t.t.t.t.t.t.t.t.t.t.t.t.t.t.t.t.LQtQtQtQtQtQt",
"QtQtQtQtQtQtQtQtQtQtQtQtQtQtQtQtQtQtQtQtQtQtQtQtQtQtQtQtQtQtQtQtQtQtQtQtQtQtQtQt#V.t.t.t.t.t.t.t.t.t.t.t.t.t.t.t.taJQtQtQtQtQtQt",
"QtQtQtQtQtQtQtQtQtQtQtQtQtQtQtQtQtQtQtQtQtQtQtQtQtQtQtQtQtQtQtQtQtQtQtQtQtQtQtQt#2.t.t.t.t.t.t.t.t.t.t.t.t.t.t.t.t#WQtQtQtQtQtQt",
"QtQtQtQtQtQtQtQtQtQtQtQtQtQtQtQtQtQtQtQtQtQtQtQtQtQtQtQtQtQtQtQtQtQtQtQtQtQtQtQt.p#a.t.t.t.t.t.t.t.t.t.t.t.t.t.taK.HQtQtQtQtQtQt",
"QtQtQtQtQtQtQtQtQtQtQtQtQtQtQtQtQtQtQtQtQtQtQtQtQtQtQtQtQtQtQtQtQtQtQtQtQtQtQtQtQt.X.M.t.t.t.t.t.t.t.t.t.t.t.t#s.KQtQtQtQtQtQtQt",
"QtQtQtQtQtQtQtQtQtQtQtQtQtQtQtQtQtQtQtQtQtQtQtQtQtQtQtQtQtQtQtQtQtQtQtQtQtQtQtQtQtQt.Eaa.t.t.t.t.t.t.t.t.t.taE.2QtQtQtQtQtQtQtQt",
"QtQtQtQtQtQtQtQtQtQtQtQtQtQtQtQtQtQtQtQtQtQtQtQtQtQtQtQtQtQtQtQtQtQtQtQtQtQtQtQtQtQtQt#D.S#m.t.t.t.t.t.t.s.S#gQtQtQtQtQtQtQtQtQt",
"QtQtQtQtQtQtQtQtQtQtQtQtQtQtQtQtQtQtQtQtQtQtQtQtQtQtQtQtQtQtQtQtQtQtQtQtQtQtQtQtQtQtQtQt.paLaM.laN.JaOaDaP.FQtQtQtQtQtQtQtQtQtQt"};
