/* XPM */
static char *dummy[]={
"64 64 211 2",
".p c #000000",
".o c #010101",
"#y c #020202",
".T c #030303",
".y c #040404",
".Q c #050505",
".s c #060606",
"#d c #070707",
"aS c #080808",
"a1 c #090909",
".5 c #0a0a0a",
"bo c #0b0b0b",
"#W c #0c0c0c",
"#B c #0d0d0d",
"#0 c #0e0e0e",
"aB c #0f0f0f",
"an c #101010",
"#Q c #111111",
".z c #121212",
"aq c #131313",
"#t c #141414",
"#M c #151515",
"#m c #161616",
".E c #171717",
"#P c #181818",
".8 c #191919",
".f c #1a1a1a",
".F c #1b1b1b",
"aK c #1c1c1c",
"as c #1d1d1d",
".n c #1e1e1e",
".e c #1f1f1f",
"av c #202020",
"#1 c #212121",
"#4 c #222222",
"ax c #232323",
"ar c #242424",
".7 c #252525",
"ae c #262626",
"aX c #272727",
"bg c #282828",
"aL c #292929",
".J c #2a2a2a",
"at c #2b2b2b",
"au c #2d2d2d",
"bf c #2e2e2e",
"#z c #2f2f2f",
"#e c #313131",
"aZ c #323232",
"bl c #333333",
"a0 c #343434",
"bp c #353535",
".g c #373737",
"af c #383838",
"#E c #393939",
"#V c #3a3a3a",
"a9 c #3b3b3b",
"#S c #3d3d3d",
"bn c #3f3f3f",
"ay c #404040",
".H c #414141",
"bh c #424242",
".9 c #434343",
"#r c #454545",
"aY c #464646",
".U c #474747",
"#K c #484848",
"#R c #494949",
"aw c #4a4a4a",
".v c #4b4b4b",
"ap c #4c4c4c",
"bm c #4d4d4d",
"bd c #4e4e4e",
"#9 c #4f4f4f",
"#D c #515151",
"aU c #535353",
"a4 c #565656",
"ad c #595959",
"#O c #5a5a5a",
"bb c #5b5b5b",
"aC c #5d5d5d",
".K c #5e5e5e",
"ao c #5f5f5f",
"be c #606060",
"#l c #636363",
"#Y c #646464",
"#Z c #656565",
"aM c #676767",
".h c #686868",
"ag c #696969",
"az c #6a6a6a",
"#I c #6b6b6b",
"#J c #6d6d6d",
".0 c #6e6e6e",
".m c #6f6f6f",
".q c #707070",
"aI c #717171",
"#. c #737373",
"#6 c #747474",
".V c #757575",
"a. c #767676",
".P c #777777",
"ab c #787878",
"aP c #797979",
"a7 c #7c7c7c",
"aJ c #7d7d7d",
"#7 c #7f7f7f",
"aO c #828282",
"#o c #838383",
"#f c #848484",
"#q c #858585",
"am c #868686",
"aE c #878787",
"a3 c #888888",
"b. c #898989",
"ah c #8a8a8a",
".L c #8b8b8b",
"aT c #8d8d8d",
"#N c #919191",
"bq c #939393",
"a5 c #969696",
"a# c #979797",
".i c #9a9a9a",
".W c #9c9c9c",
"## c #9e9e9e",
"a6 c #a0a0a0",
".b c #a1a1a1",
"aa c #a4a4a4",
".6 c #a5a5a5",
"ba c #a6a6a6",
"#3 c #a7a7a7",
"#v c #a8a8a8",
"#w c #a9a9a9",
"aQ c #aaaaaa",
"ak c #acacac",
"aH c #adadad",
"#8 c #aeaeae",
"a8 c #afafaf",
"a2 c #b0b0b0",
"#X c #b1b1b1",
"#c c #b3b3b3",
".M c #b4b4b4",
"aG c #b6b6b6",
"#F c #b7b7b7",
"aF c #bababa",
"aj c #bcbcbc",
"#a c #bebebe",
"#5 c #bfbfbf",
"b# c #c0c0c0",
".X c #c1c1c1",
"#s c #c2c2c2",
".l c #c3c3c3",
"bi c #c4c4c4",
".R c #c5c5c5",
"aV c #c6c6c6",
"#U c #c7c7c7",
"#j c #c8c8c8",
".u c #c9c9c9",
"al c #cbcbcb",
"#T c #cccccc",
".c c #cdcdcd",
".2 c #cecece",
".4 c #cfcfcf",
".3 c #d0d0d0",
"#C c #d1d1d1",
"ai c #d2d2d2",
".G c #d3d3d3",
".a c #d4d4d4",
".t c #d5d5d5",
"#A c #d6d6d6",
".N c #d7d7d7",
"aN c #d8d8d8",
"#u c #d9d9d9",
"#L c #dadada",
".x c #dbdbdb",
"bj c #dcdcdc",
"aD c #dddddd",
"#x c #dedede",
".Y c #dfdfdf",
"#n c #e0e0e0",
"#b c #e1e1e1",
"ac c #e2e2e2",
"#i c #e3e3e3",
"#p c #e4e4e4",
"#2 c #e5e5e5",
".r c #e6e6e6",
"aW c #e7e7e7",
"bk c #e8e8e8",
"bc c #e9e9e9",
".S c #eaeaea",
".j c #ebebeb",
"#G c #ececec",
".d c #ededed",
"#k c #eeeeee",
"aA c #efefef",
"#g c #f0f0f0",
".# c #f1f1f1",
".O c #f2f2f2",
"aR c #f3f3f3",
"#h c #f4f4f4",
".D c #f5f5f5",
"#H c #f6f6f6",
".k c #f7f7f7",
".B c #f8f8f8",
".1 c #f9f9f9",
".A c #fafafa",
".Z c #fbfbfb",
".I c #fcfcfc",
".w c #fdfdfd",
".C c #fefefe",
"Qt c none",
"QtQtQtQtQtQtQtQtQtQtQtQtQtQtQtQtQtQtQtQtQtQtQt.#.a.b.cQtQtQtQtQt.d.e.f.g.h.i.jQtQtQtQtQtQtQtQtQtQtQtQtQtQtQtQtQtQtQtQtQtQtQtQtQt",
"QtQtQtQtQtQtQtQtQtQtQtQtQtQtQtQtQtQtQtQt.k.l.m.n.o.p.qQtQtQtQtQt.r.s.p.p.p.p.tQtQtQtQtQtQtQtQtQtQtQtQtQtQtQtQtQtQtQtQtQtQtQtQtQt",
"QtQtQtQtQtQtQtQtQtQtQtQtQtQtQtQtQtQtQtQt.u.p.p.p.p.p.v.wQtQtQtQt.x.y.p.p.p.z.#QtQtQtQt.A.B.CQtQtQtQtQtQtQtQtQtQtQtQtQtQtQtQtQtQt",
"QtQtQtQtQtQtQtQtQtQtQtQtQtQtQtQtQtQtQtQt.D.E.p.p.p.p.F.kQtQtQtQt.G.o.p.p.p.H.IQtQtQtQt.t.J.K.L.M.N.O.IQtQtQtQtQtQtQtQtQtQtQtQtQt",
"QtQtQtQtQtQtQtQtQtQtQtQtQtQt.CQtQtQtQtQtQt.P.p.p.p.p.Q.rQtQtQtQt.R.p.p.p.p.PQtQtQtQtQt.S.o.p.p.p.T.f.U.V.W.X.Y.O.ZQtQtQtQtQtQtQt",
"QtQtQtQtQtQtQtQtQtQtQtQtQt.t.0.1QtQtQtQtQt.2.p.p.p.p.p.3QtQtQtQt.4.J.F.5.p.6QtQtQtQtQt.B.7.p.p.p.p.p.p.p.p.p.Q.8.9#.###a#bQtQtQt",
"QtQtQtQtQtQtQtQtQtQtQt.w#c#d.p##QtQtQtQtQt.1.f.o#e#f#a#gQtQtQtQt.w.k#h#i#j#kQtQtQtQtQt.C#l.p.p.p.p.p.p.p.p.p.p.p.p.p.p#m#nQtQtQt",
"QtQtQtQtQtQtQtQtQtQt.w#o.p.p.p.y#bQtQtQtQtQt.4.t.BQtQtQtQtQtQtQtQtQtQtQtQtQtQtQtQtQtQtQt.W.p.p.p.p.p.p.p.p.p.p.p.p.p.E#pQtQtQtQt",
"QtQtQtQtQtQtQtQtQt.C#q.p.p.p.p.p#r.IQtQtQtQtQtQtQtQtQtQtQtQtQtQtQtQtQtQtQtQtQtQtQtQtQtQt#s.p.p.p.p.p.p.p.p.p.p.p.p#t#uQtQtQtQtQt",
"QtQtQtQtQtQtQtQtQt#v.p.p.p.p.p.p.p#wQtQtQtQtQtQtQtQtQtQtQtQtQtQtQtQtQtQtQtQtQtQtQtQtQtQt#x#y.p.p.p.p.p.p.p.p.p.p#m#uQtQtQtQtQtQt",
"QtQtQtQtQtQtQtQt.M.p.p.p.p.p.p.p#z#AQtQtQtQtQtQtQtQtQtQtQtQtQtQtQtQtQtQtQtQtQtQtQtQtQtQt.#.z.p.p.p.p.p.p.p.p.p#B.YQtQtQtQtQtQtQt",
"QtQtQtQtQtQtQt#C.p.p.p.p.p.p.p#D#kQtQtQtQtQtQtQtQtQtQtQtQtQtQtQtQtQtQtQtQtQtQtQtQtQtQtQt.I#E.p.p.p.p.p.p.p.p.p.y#FQtQtQtQtQtQtQt",
"QtQtQtQtQtQt#G#t.p.p.p.p.p.p.m.kQtQtQtQtQtQtQtQtQtQtQtQtQtQtQtQtQtQtQtQtQtQtQtQtQtQtQtQtQt.0.p.p.p.p.p.p.p.p.p.p.p.NQtQtQtQtQtQt",
"QtQtQtQtQt.Z#r.p.p.p.p.p.p.q.ZQtQtQtQtQtQtQtQtQtQtQtQtQtQtQtQtQtQtQtQtQtQtQtQtQtQtQtQtQtQt.W.p.p.p.p.p.p.p.p.p.p.p.e#HQtQtQtQtQt",
"QtQtQtQtQt.W.p.p.p.p.p.p#I.IQtQtQtQtQtQtQtQtQtQtQtQtQtQtQtQtQtQtQtQtQtQtQtQtQtQtQtQtQtQtQt#s.p.p.p.p.p.Q.p.p.p.p.p.p#J.CQtQtQtQt",
"QtQtQtQt.j.s.p.p.p.p.p#K.ZQtQtQtQtQtQtQtQtQtQtQtQtQtQtQtQtQtQtQtQtQtQtQtQtQtQtQtQtQtQtQtQt#L.o.p.p.p#M.Y#N.p.p.p.p.p.p.NQtQtQtQt",
"QtQtQt.w#O.p.p.p.p.p#P#gQtQtQtQtQtQtQtQtQtQtQtQtQtQtQtQtQtQtQtQtQtQtQtQtQtQtQtQtQtQtQtQtQt#g#Q.p.p#t#LQt.I#R.p.p.p.p.p#S.ZQtQtQt",
"QtQtQt#T.p.p.p.p.p.p#UQtQtQtQtQtQtQtQtQtQtQtQtQtQtQtQtQtQtQtQtQtQtQtQtQtQtQtQtQtQtQtQtQtQt.I#V.p#M#uQtQtQt.j#W.p.p.p.p.p#XQtQtQt",
"QtQt.w#r.p.p.p.p.p#Y.CQtQtQtQtQtQtQtQtQtQtQtQtQtQtQtQtQtQtQtQtQtQtQtQtQtQtQtQtQtQtQtQtQtQtQt#Z#0#xQtQtQtQtQt##.p.p.p.p.p#1.1QtQt",
"QtQt#u.p.p.p.p.p.Q#2QtQtQtQtQtQtQtQtQtQtQtQtQtQtQtQtQtQtQtQtQtQtQtQtQtQtQtQtQtQtQtQtQtQtQtQt#3.3QtQtQtQtQtQt.B#4.p.p.p.p.p#5QtQt",
"QtQt#6.p.p.p.p.p#7QtQtQtQtQtQtQtQtQtQtQtQtQtQtQtQtQtQtQtQtQtQtQtQtQtQtQtQtQtQtQtQtQtQtQtQtQt.IQtQtQtQtQtQtQtQt#8.p.p.p.p.p#9.CQt",
"Qt.##B.p.p.p.p#W.dQtQtQtQtQtQtQtQtQtQtQtQtQtQtQtQtQtQtQtQtQtQtQtQtQtQtQtQtQtQtQtQtQtQtQtQtQtQtQtQtQtQtQtQtQtQt#H.8.p.p.p.p#y#bQt",
"Qt#5.p.p.p.p.pa.QtQtQtQtQtQtQtQtQtQtQtQtQtQtQtQtQtQtQtQtQtQtQtQtQtQtQtQtQtQtQtQtQtQtQtQtQtQtQtQtQtQtQtQtQtQtQtQta#.p.p.p.p.paaQt",
"Qtab.p.p.p.p.p.cQtQtQtQtQtQtQtQtQtQtQtQtQtQtQtQtQtQtQtQtQtQtQtQtQtQtQtQtQtQtQtQtQtQtQtQtQtQtQtQtQtQtQtQtQtQtQtQtac#y.p.p.p.pad.C",
".Bae.p.p.p.p.8.kQtQtQtQtQtQtQtQtQtQtQtQtQtQtQtQtQtQtQtQtQtQtQtQtQtQtQtQtQtQtQtQtQtQtQtQtQtQtQtQtQtQtQtQtQtQtQtQt.Iaf.p.p.p.p.z.O",
".Y#y.p.p.p.pagQtQtQtQtQtQtQtQtQtQtQtQtQtQtQtQtQtQtQtQtQtQtQtQtQtQtQtQtQtQtQtQtQtQtQtQtQtQtQtQtQtQtQtQtQtQtQtQtQtQtah.p.p.p.p.pai",
"#a.p.p.p.p.p.6QtQtQtQtQtQtQtQtQtQtQtQtQtQtQtQtQtQtQtQtQtQtQtQtQtQtQtQtQtQtQtQtQtQtQtQtQtQtQtQtQtQtQtQtQtQtQtQtQtQtaj.p.p.p.p.pak",
".i.p.p.p.p.palQtQtQtQtQtQtQtQtQtQtQtQtQtQtQtQtQtQtQtQtQtQtQtQtQtQtQtQtQtQtQtQtQtQtQtQtQtQtQtQtQtQtQtQtQtQtQtQtQtQt.x.o.p.p.p.pam",
".q.p.p.p.p.sacQtQtQtQtQtQtQtQtQtQtQtQtQtQtQtQtQtQtQtQtQtQtQtQtQtQtQtQtQtQtQtQtQtQtQtQtQtQtQtQtQtQtQtQtQtQtQtQtQtQt.dan.p.p.p.pao",
"ap.p.p.p.paq#gQtQtQtQtQtQtQtQtQtQtQtQtQtQtQtQtQtQtQtQtQtQtQtQtQtQtQtQtQtQtQtQtQtQtQtQtQtQtQtQtQtQtQtQtQtQtQtQtQtQt.1ar.p.p.p.p.H",
"#e.p.p.p.pas.kQtQtQtQtQtQtQtQtQtQtQtQtQtQtQtQtQtQtQtQtQtQtQtQtQtQtQtQtQtQtQtQtQtQtQtQtQtQtQtQtQtQtQtQtQtQtQtQtQtQt.A#E.p.p.p.pat",
"ae.p.p.p.p.J.IQtQtQtQtQtQtQtQtQtQtQtQtQtQtQtQtQtQtQtQtQtQtQtQtQtQtQtQtQtQtQtQtQtQtQtQtQtQtQtQtQtQtQtQtQtQtQtQtQtQt.wap.p.p.p.p.e",
".7.p.p.p.pau.wQtQtQtQtQtQtQtQtQtQtQtQtQtQtQtQtQtQtQtQtQtQtQtQtQtQtQtQtQtQtQtQtQtQtQtQtQtQtQtQtQtQtQtQtQtQtQtQtQtQt.w.v.p.p.p.pav",
"#e.p.p.p.p.e.kQtQtQtQtQtQtQtQtQtQtQtQtQtQtQtQtQtQtQtQtQtQtQtQtQtQtQtQtQtQtQtQtQtQtQtQtQtQtQtQtQtQtQtQtQtQtQtQtQtQt.A#E.p.p.p.p.J",
"aw.p.p.p.p#t.OQtQtQtQtQtQtQtQtQtQtQtQtQtQtQtQtQtQtQtQtQtQtQtQtQtQtQtQtQtQtQtQtQtQtQtQtQtQtQtQtQtQtQtQtQtQtQtQtQtQt.1ax.p.p.p.pay",
"az.p.p.p.p#d#iQtQtQtQtQtQtQtQtQtQtQtQtQtQtQtQtQtQtQtQtQtQtQtQtQtQtQtQtQtQtQtQtQtQtQtQtQtQtQtQtQtQtQtQtQtQtQtQtQtQtaAaB.p.p.p.paC",
"a#.p.p.p.p.p.2QtQtQtQtQtQtQtQtQtQtQtQtQtQtQtQtQtQtQtQtQtQtQtQtQtQtQtQtQtQtQtQtQtQtQtQtQtQtQtQtQtQtQtQtQtQtQtQtQtQtaD.o.p.p.p.paE",
"aF.p.p.p.p.p#wQtQtQtQtQtQtQtQtQtQtQtQtQtQtQtQtQtQtQtQtQtQtQtQtQtQtQtQtQtQtQtQtQtQtQtQtQtQtQtQtQtQtQtQtQtQtQtQtQtQtaG.p.p.p.p.paH",
"#L.o.p.p.p.paIQtQtQtQtQtQtQtQtQtQtQtQtQtQtQtQtQtQtQtQtQtQtQtQtQtQtQtQtQtQtQtQtQtQtQtQtQtQtQtQtQtQtQtQtQtQtQtQtQtQtaJ.p.p.p.p.p.a",
"#HaK.p.p.p.pav.BQtQtQtQtQtQtQtQtQtQtQtQtQtQtQtQtQtQtQtQtQtQtQtQtQtQtQtQtQtQtQtQtQtQtQtQtQtQtQtQtQtQtQtQtQtQtQtQt.AaL.p.p.p.p.z#h",
"QtaM.p.p.p.p.p.tQtQtQtQtQtQtQtQtQtQtQtQtQtQtQtQtQtQtQtQtQtQtQtQtQtQtQtQtQtQtQtQtQtQtQtQtQtQtQtQtQtQtQtQtQtQtQtQtaN.p.p.p.p.pad.C",
"Qt#c.p.p.p.p.paOQtQtQtQtQtQtQtQtQtQtQtQtQtQtQtQtQtQtQtQtQtQtQtQtQtQtQtQtQtQtQtQtQtQtQtQtQtQtQtQtQtQtQtQtQtQtQtQtaP.p.p.p.p.paQQt",
"Qt#G.Q.p.p.p.p#taRQtQtQtQtQtQtQtQtQtQtQtQtQtQtQtQtQtQtQtQtQtQtQtQtQtQtQtQtQtQtQtQtQtQtQtQtQtQtQtQtQtQtQtQtQtQt#kaS.p.p.p.p#y#2Qt",
"Qt.Cad.p.p.p.p.pahQtQtQtQtQtQtQtQt.CQtQtQtQtQtQtQtQtQtQtQtQtQtQtQtQtQtQtQtQtQtQtQtQtQtQtQtQtQtQtQtQtQtQtQtQtQtaT.p.p.p.p.paU.CQt",
"QtQtaV.p.p.p.p.p#W#kQtQtQtQtQtQtaW#wQtQtQtQtQtQtQtQtQtQtQtQtQtQtQtQtQtQtQtQtQtQtQtQtQtQtQtQtQtQtQtQtQtQtQtQt.S.5.p.p.p.p.p#5QtQt",
"QtQt.Aae.p.p.p.p.p.PQtQtQtQtQt#kaXaY.CQtQtQtQtQtQtQtQtQtQtQtQtQtQtQtQtQtQtQtQtQtQtQtQtQtQtQtQtQtQtQtQtQtQtQt#6.p.p.p.p.pax.BQtQt",
"QtQtQt#w.p.p.p.p.p.o.NQtQtQt#kaZ.pax.BQtQtQtQtQtQtQtQtQtQtQtQtQtQtQtQtQtQtQtQtQtQtQtQtQtQtQtQtQtQtQtQtQtQt.G.p.p.p.p.p.p#XQtQtQt",
"QtQtQt.1aZ.p.p.p.p.pae.kQt#kaZ.p.paS.SQtQtQtQtQtQtQtQtQtQtQtQtQtQtQtQtQtQtQtQtQtQtQtQtQtQtQtQtQtQtQtQtQt#Hae.p.p.p.p.pay.ZQtQtQt",
"QtQtQtQtai.p.p.p.p.p.paz.Sa0.p.p.p.palQtQtQtQtQtQtQtQtQtQtQtQtQtQtQtQtQtQtQtQtQtQtQtQtQtQtQtQtQtQtQtQt.wad.p.p.p.p.p.p.GQtQtQtQt",
"QtQtQtQt.C.0.p.p.p.p.p.pa1.p.p.p.p.pa2QtQtQtQtQtQtQtQtQtQtQtQtQtQtQtQtQtQtQtQtQtQtQtQtQtQtQtQtQtQtQt.Ca3.p.p.p.p.p.paz.CQtQtQtQt",
"QtQtQtQtQt#h.e.p.p.p.p.p.p.p.p.p.p.paEQtQtQtQtQtQtQtQtQtQtQtQtQtQtQtQtQtQtQtQtQtQtQtQtQtQtQtQtQtQt.C#N.p.p.p.p.p.paK.OQtQtQtQtQt",
"QtQtQtQtQtQt.t.o.p.p.p.p.p.p.p.p.p.pa4.CQtQtQtQtQtQtQtQtQtQtQtQtQtQtQtQtQtQtQtQtQtQtQtQtQtQtQtQt.wa5.p.p.p.p.p.p.paiQtQtQtQtQtQt",
"QtQtQtQtQtQtQt#c.y.p.p.p.p.p.p.p.p.par.1QtQtQtQtQtQtQtQtQtQtQtQtQtQtQtQtQtQtQtQtQtQtQtQtQtQtQt#H#6.p.p.p.p.p.p.pa6QtQtQtQtQtQtQt",
"QtQtQtQtQtQtQt#Gan.p.p.p.p.p.p.p.p.pa1.SQtQtQtQtQtQtQtQtQtQtQtQtQtQtQtQtQtQtQtQtQtQtQtQtQt.CaN#K.p.p.p.p.p.p.pa7.CQtQtQtQtQtQtQt",
"QtQtQtQtQtQt.d.g.p.p.p.p.p.p.p.p.p.p.p#CQtQtQtQtQtQtQtQtQtQtQtQtQtQtQtQtQtQtQtQtQtQtQtQtQt.C#I.p.p.p.p.p.p.p#Y.wQtQtQtQtQtQtQtQt",
"QtQtQtQtQtaAaZ.p.p.p.p.p.p.p.p.p.p.p.pa8QtQtQtQtQtQtQtQtQtQtQtQtQtQtQtQtQtQtQtQtQtQtQtQtQtQt#gaq.p.p.p.p.paC.kQtQtQtQtQtQtQtQtQt",
"QtQtQtQtaRa9.p.p.p.p.p.p.p.p.p.p.p.p.pb.QtQtQtQtQtQtQtQtQtQtQtQtQtQtQtQtQtQtQt#kb#ba.CQtQtQtQtaH.p.p.p.p#I#HQtQtQtQtQtQtQtQtQtQt",
"QtQtQt#Gat.p.p.p.p.p.p.p.p.p.p.p.p.p.pbb.CQtQtQtQtQt.waNbc.k.Z.CQtQtQtQt#G.baMaK.p.o.dQtQtQtQt.wbd.p#d#c.CQtQtQtQtQtQtQtQtQtQtQt",
"QtQtQtaD#w.Lbebf#0.o.p.p.p.p.p.p.p.p.pae.AQtQtQtQtQt.#.z#0bgbhbiQtQtQtQtbj.p.p.p.p.paHQtQtQtQtQtbc.v#AQtQtQtQtQtQtQtQtQtQtQtQtQt",
"QtQtQtQtQtQt.C.1bk#C#Xb.#lbl#B.p.p.p.p.o.rQtQtQtQtQtaN.p.p.p.pa8QtQtQtQt#h#m.p.p.p.p#r.wQtQtQtQtQt.ZQtQtQtQtQtQtQtQtQtQtQtQtQtQt",
"QtQtQtQtQtQtQtQtQtQtQtQt.C.1bk#U.baPbm#P#jQtQtQtQtQt#F.p.p.p.p.lQtQtQtQt.Ibn.p.p.p.p.p#nQtQtQtQtQtQtQtQtQtQtQtQtQtQtQtQtQtQtQtQt",
"QtQtQtQtQtQtQtQtQtQtQtQtQtQtQtQtQtQt.I.O.DQtQtQtQtQta3.p.p.p.p.2QtQtQtQtQt.0.p.p.p.pbo.lQtQtQtQtQtQtQtQtQtQtQtQtQtQtQtQtQtQtQtQt",
"QtQtQtQtQtQtQtQtQtQtQtQtQtQtQtQtQtQtQtQtQtQtQtQtQt.Ibp.p.p.p.o#AQtQtQtQtQtbq.paq#Daa#2.wQtQtQtQtQtQtQtQtQtQtQtQtQtQtQtQtQtQtQtQt",
"QtQtQtQtQtQtQtQtQtQtQtQtQtQtQtQtQtQtQtQtQtQtQtQtQt.w.Wag#Kbg.nacQtQtQtQtQt.raV.d.wQtQtQtQtQtQtQtQtQtQtQtQtQtQtQtQtQtQtQtQtQtQtQt"};
