/* XPM */
static char *dummy[]={
"64 64 176 2",
".n c #000000",
"#x c #010101",
".Z c #030303",
"## c #040404",
"#4 c #050505",
"#3 c #070707",
"ab c #080808",
"aq c #090909",
".O c #0a0a0a",
".J c #0b0b0b",
".E c #0c0c0c",
"aA c #0d0d0d",
".R c #0e0e0e",
".e c #0f0f0f",
"ax c #101010",
".7 c #111111",
".f c #131313",
".K c #151515",
".d c #161616",
"#M c #181818",
"#G c #1a1a1a",
".I c #1b1b1b",
".B c #1c1c1c",
"an c #1d1d1d",
"ai c #1e1e1e",
".g c #1f1f1f",
".w c #202020",
"aD c #212121",
"#J c #222222",
"aj c #232323",
"#2 c #242424",
".3 c #252525",
".c c #262626",
".m c #2a2a2a",
"ap c #2b2b2b",
"aR c #2c2c2c",
"aQ c #2d2d2d",
"at c #2e2e2e",
".y c #303030",
"av c #313131",
"af c #323232",
"aa c #333333",
"#s c #343434",
"aO c #363636",
"#Z c #373737",
"aB c #383838",
"aw c #393939",
".F c #3b3b3b",
".Y c #3c3c3c",
"#A c #3d3d3d",
".W c #3f3f3f",
"as c #404040",
"#n c #414141",
"aS c #434343",
"aJ c #444444",
".o c #464646",
".C c #484848",
"#V c #494949",
".r c #4a4a4a",
"#z c #4c4c4c",
"aP c #4e4e4e",
".s c #4f4f4f",
"#L c #505050",
".4 c #525252",
"ac c #545454",
"#5 c #555555",
"aT c #595959",
".P c #5a5a5a",
".h c #5c5c5c",
"ak c #5d5d5d",
"ae c #5f5f5f",
"#l c #616161",
"#q c #626262",
".0 c #656565",
"#y c #676767",
"aM c #686868",
"#1 c #6b6b6b",
".T c #6c6c6c",
".b c #6d6d6d",
"#g c #6e6e6e",
"#v c #6f6f6f",
"#a c #707070",
".M c #747474",
"#e c #777777",
"#X c #787878",
"#S c #7d7d7d",
".V c #7e7e7e",
"az c #808080",
"al c #818181",
"#D c #838383",
"#p c #878787",
"aF c #888888",
"#K c #898989",
"#O c #8a8a8a",
"#c c #8d8d8d",
"#k c #909090",
"#b c #919191",
".l c #929292",
".6 c #939393",
"#R c #969696",
"#r c #979797",
".i c #989898",
"#j c #999999",
"#I c #9f9f9f",
"#U c #a0a0a0",
"#w c #a2a2a2",
".L c #a4a4a4",
"#8 c #a5a5a5",
"#f c #a6a6a6",
"#u c #a7a7a7",
"#6 c #a8a8a8",
".N c #a9a9a9",
"#C c #aaaaaa",
".9 c #ababab",
"#d c #acacac",
"#9 c #afafaf",
".D c #b0b0b0",
".a c #b2b2b2",
".x c #b3b3b3",
".U c #b4b4b4",
"a. c #b6b6b6",
"#H c #b7b7b7",
"au c #bababa",
"aK c #bbbbbb",
"#0 c #bcbcbc",
"ad c #bfbfbf",
"#W c #c0c0c0",
"#Q c #c1c1c1",
"#B c #c3c3c3",
".A c #c4c4c4",
"aH c #c7c7c7",
"aE c #c8c8c8",
"ah c #cacaca",
"#Y c #cbcbcb",
".v c #cccccc",
".G c #cdcdcd",
"#P c #cecece",
"#i c #cfcfcf",
"#m c #d0d0d0",
".X c #d2d2d2",
"aI c #d3d3d3",
"aN c #d4d4d4",
".8 c #d5d5d5",
"#. c #d6d6d6",
"ag c #d7d7d7",
"ao c #d9d9d9",
".Q c #dbdbdb",
"#E c #dcdcdc",
"aG c #dedede",
".q c #dfdfdf",
"am c #e0e0e0",
".1 c #e1e1e1",
".H c #e3e3e3",
"#t c #e4e4e4",
"#7 c #e5e5e5",
"aL c #e7e7e7",
"#T c #e9e9e9",
".5 c #ebebeb",
"#F c #eeeeee",
"#N c #efefef",
"ay c #f0f0f0",
"#o c #f1f1f1",
".p c #f2f2f2",
".t c #f3f3f3",
".j c #f4f4f4",
".# c #f5f5f5",
"a# c #f6f6f6",
".z c #f7f7f7",
".2 c #f8f8f8",
".u c #f9f9f9",
".k c #fafafa",
"ar c #fbfbfb",
"aC c #fcfcfc",
"#h c #fdfdfd",
".S c #fefefe",
"Qt c none",
"QtQtQtQtQtQtQtQtQtQtQtQtQtQtQtQtQtQtQtQtQtQtQtQtQtQtQtQtQtQtQtQtQtQtQtQtQtQtQtQtQtQtQtQtQt.#.a.b.c.d.e.f.g.h.i.jQtQtQtQtQtQtQtQt",
"QtQtQtQtQtQtQtQtQtQtQtQtQtQtQtQtQtQtQtQtQtQtQtQtQtQtQtQtQtQtQtQtQtQtQtQtQtQtQtQtQtQtQt.k.l.m.n.n.n.n.n.n.n.n.o.pQtQtQtQtQtQtQtQt",
"QtQtQtQtQtQtQtQtQtQtQtQtQtQtQtQtQtQtQtQtQtQtQtQtQtQtQtQtQtQtQtQtQtQtQtQtQtQtQtQtQtQt.q.r.n.n.n.n.n.n.n.n.n.s.tQtQtQtQtQtQtQtQtQt",
"QtQtQtQtQtQtQtQt.uQtQtQtQtQtQtQtQtQtQtQtQtQtQtQtQtQtQtQtQtQtQtQtQtQtQtQtQtQtQtQtQt.v.w.n.n.n.n.n.n.n.n.n.s.jQtQtQtQtQtQtQtQtQtQt",
"QtQtQtQtQtQtQt.x.y.i.zQtQtQtQtQtQtQtQtQtQtQtQtQtQtQtQtQtQtQtQtQtQtQtQtQtQtQtQtQt.A.B.n.n.n.n.n.n.n.n.n.C.jQtQtQtQtQtQtQtQtQtQtQt",
"QtQtQtQtQtQt.D.E.n.n.F.GQtQtQtQtQtQtQtQtQtQtQtQtQtQtQtQtQtQtQtQtQtQtQtQtQtQtQt.H.I.n.n.n.n.n.n.n.n.n.s.tQtQtQtQtQtQtQtQtQtQtQtQt",
"QtQtQtQtQt.D.J.n.n.n.n.K.LQtQtQtQtQtQtQtQtQtQtQtQtQtQtQtQtQtQtQtQtQtQtQtQtQtQt.M.n.n.n.n.n.n.n.n.n.s.jQtQtQtQtQtQtQtQtQtQtQtQtQt",
"QtQtQtQt.N.O.n.n.n.n.n.n.n.P.HQtQtQtQtQtQtQtQtQtQtQtQtQtQtQtQtQtQtQtQtQtQtQt.Q.R.n.n.n.n.n.n.n.n.s.jQtQtQtQtQtQtQtQtQtQtQtQtQtQt",
"QtQtQt.S.T.n.n.n.n.n.n.n.n.n.c.UQtQtQtQtQtQtQtQtQtQtQtQtQtQtQtQtQtQtQtQtQtQt.V.n.n.n.n.n.n.n.n.W.jQtQtQtQtQtQtQtQtQtQtQtQtQt.X.z",
"QtQtQtQt.j.Y.n.n.n.n.n.n.n.n.n.Z.0.1QtQtQtQtQtQtQtQtQtQtQtQtQtQtQtQtQtQtQt.2.3.n.n.n.n.n.n.n.4.5QtQtQtQtQtQtQtQtQtQtQtQtQt.6.7.v",
"QtQtQtQtQt.8.E.n.n.n.n.n.n.n.n.n.n.w.9.kQtQtQtQtQtQtQtQtQtQtQtQtQtQtQtQtQt#.##.n.n.n.n.n.n.n#aQtQtQtQtQtQtQtQtQtQtQtQtQt#b.n.n.6",
"QtQtQtQtQtQt#c.n.n.n.n.n.n.n.n.n.n.n.B.5QtQtQtQtQtQtQtQtQtQtQtQtQtQtQtQtQt#d.n.n.n.n.n.n.n.n.n#eQtQtQtQtQtQtQtQtQtQtQt#f.n.n.n#g",
"QtQtQtQtQtQt#h.r.n.n.n.n.n.n.n.n.n.c#iQtQtQtQtQtQtQtQtQtQtQtQtQtQtQtQtQtQt#j.n.n.n.n.n.n.n.n.n.n#kQtQtQtQtQtQtQtQtQt.D.J.n.n.n#l",
"QtQtQtQtQtQtQt#m.O.n.n.n.n.n.n.n.n#n#oQtQtQtQtQtQtQtQtQtQtQtQtQtQtQtQtQtQt.l.n.n.n.n.n.n.n.n.n.n.n#pQtQtQtQtQtQtQt#f.J.n.n.n.n#q",
"QtQtQtQtQtQtQtQt#r.n.n.n.n.n.n.n.n.n#s#tQtQtQtQtQtQtQtQtQtQtQtQtQtQtQtQtQt#u.n.n.n.n.n.n.n.n.n.n.n.n#vQtQtQtQtQt#w#x.n.n.n.n.n#y",
"QtQtQtQtQtQtQtQt.S#z.n.n.n.n.n.n.n.n.n#A.jQtQtQtQtQtQtQtQtQtQtQtQtQtQtQtQt#B#x.n.n.n.n.n.n.n.n.n.n.n.n#eQtQtQt#C##.n.n.n.n.n.n#D",
"QtQtQtQtQtQtQtQtQt#E.f.n.n.n.n.n.n.n.n.n.s.jQtQtQtQtQtQtQtQtQtQtQtQtQtQtQt#F#G.n.n.n.n.n.n.n.n.n.n.n.n.n#bQt.x.J.n.n.n.n.n.n.n#H",
"QtQtQtQtQtQtQtQtQtQt#I.n#J#K.R.n.n.n.n.n.n.s.tQtQtQtQtQtQtQtQtQtQtQtQtQtQtQt#L.n.n.n.n.n.n.n.n.n.n.n.n.n#x.0.d.n.n.n.n.n.n.n#M#N",
"QtQtQtQtQtQtQtQtQtQtQt#O#PQt#Q.I.n.n.n.n.n.n.W#tQtQtQtQtQtQtQtQtQtQtQtQtQt#R.7.n.n.n.n.n.n.n.n.n.n.n.n.n.n.n.n.n.n.n.n.n.n.n#SQt",
"QtQtQtQtQtQtQtQtQtQtQtQtQtQtQt#Q.J.n.n.n.n.n.n#A.jQtQtQtQtQtQtQtQtQtQtQt#b.n.n.n.n.n.n.n.n.n.n.n.n.n.n.n.n.n.n.n.n.n.n.n.n.I#TQt",
"QtQtQtQtQtQtQtQtQtQtQtQtQtQtQtQt.D.J.n.n.n.n.n.n.s.jQtQtQtQtQtQtQtQtQt#f.n.n.n.n.n.n.n.n.n.n.n.n.n.n.n.n.n.n.n.n.n.n.n.n.n#UQtQt",
"QtQtQtQtQtQtQtQtQtQtQtQtQtQtQtQtQt.D.O.n.n.n.n.n.n.s.#QtQtQtQtQtQtQt.D.J.n.n.n.n.n.n.n.n.n.n.n.n.n.n.n.n.n.n.n.n.n.n.n.n#qQtQtQt",
"QtQtQtQtQtQtQtQtQtQtQtQtQtQtQtQtQtQt.x.K.n.n.n.n.n.n#z#TQtQtQtQtQt#f.J.n.n.n.n.n.n.n.n.n.n.n.n.n.n.n.n.n.n.n.n.n.n.n.n#V.jQtQtQt",
"QtQtQtQtQtQtQtQtQtQtQtQtQtQtQtQtQtQtQt#W.J.n.n.n.n.n.n.W.jQtQt#h#k.n.n.n.n.n.n.n.n.n.n.n.n.n.n.n.n.n.n.n.n.n.n.n.n.Z#X.#QtQtQtQt",
"QtQtQtQtQtQtQtQtQtQtQtQtQtQtQtQtQtQtQtQt.D.J.n.n.n.n.n.n.s.jQt#Y.n.n.n.n.n.n.n.n.n.n.n.n.n.n.n.n.n.n.n.n.n.n.n.n#Z#0QtQtQtQtQtQt",
"QtQtQtQtQtQtQtQtQtQtQtQtQtQtQtQtQtQtQtQtQt.D.J.n.n.n.n.n.n.s.j.u.b.n.n.n.n.n.n.n.n.n.n.n.n#s#1#2#3.n.n.n#4.B#5#6.uQtQtQtQtQtQtQt",
"QtQtQtQtQtQtQtQtQtQtQtQtQtQtQtQtQtQtQtQtQtQt.D.E.n.n.n.n.n.n.s.#Qt#v.n.n.n.n.n.n.n.n.n.n#s#7Qt.#.X#H#8#9.v#oQtQtQtQtQtQtQtQtQtQt",
"QtQtQtQtQtQtQtQtQtQtQtQtQtQtQtQtQtQtQtQtQtQtQta..J.n.n.n.n.n.n.Ca#Qt#p.n.n.n.n.n.n.n.n.F#TQtQtQtQtQtQtQtQtQtQtQtQtQtQtQtQtQtQtQt",
"QtQtQtQtQtQtQtQtQtQtQtQtQtQtQtQtQtQtQtQtQtQtQtQt.D.J.n.n.n.n.n.n.sa#Qt#p.n.n.n.n.n.naa#tQtQtQtQtQtQtQtQtQtQtQtQtQtQtQtQtQtQtQtQt",
"QtQtQtQtQtQtQtQtQtQtQtQtQtQtQtQtQtQtQtQtQtQtQtQtQt.D.J.n.n.n.n.n.n.s.#Qt#v.n.n.n.naa.HQtQtQtQtQtQtQtQtQtQtQtQtQtQtQtQtQtQtQtQtQt",
"QtQtQtQtQtQtQtQtQtQtQtQtQtQtQtQtQtQtQtQtQtQtQtQtQtQt.D.J.n.n.n.n.n.n.sa#Qt#v.n.naa.HQtQtQtQtQtQtQtQtQtQtQtQtQtQtQtQtQtQtQtQtQtQt",
"QtQtQtQtQtQtQtQtQtQtQtQtQtQtQtQtQtQtQtQtQtQtQtQt#9.XQt#Cab.n.n.n.n.n.nac.2Qt#aaa.HQtQtQtQtQtQtQtQtQtQtQtQtQtQtQtQtQtQtQtQtQtQtQt",
"QtQtQtQtQtQtQtQtQtQtQtQtQtQtQtQtQtQtQtQtQtQtQt#f.n.I.GQt#9.J.n.n.n.n.n.n.sa#Qt.#QtQtQtQtQtQtQtQtQtQtQtQtQtQtQtQtQtQtQtQtQtQtQtQt",
"QtQtQtQtQtQtQtQtQtQtQtQtQtQtQtQtQtQtQtQtQtQt.D.J.n.n.B#iQt.D.J.n.n.n.n.n.n.sa#QtQtQtad.uQtQtQtQtQtQtQtQtQtQtQtQtQtQtQtQtQtQtQtQt",
"QtQtQtQtQtQtQtQtQtQtQtQtQtQtQtQtQtQtQtQtQt.D.J.n.n.n.n.c.HQt.D.J.n.n.n.n.n.n.s.#Qt#k##.MQtQtQtQtQtQtQtQtQtQtQtQtQtQtQtQtQtQtQtQt",
"QtQtQtQtQtQtQtQtQtQtQtQtQtQtQtQtQtQtQtQt.D.J.n.n.n.n.n.naa#tQt#f.n.n.n.n.n.n.nae.6.n.n.n#kQtQtQtQtQtQtQtQtQtQtQtQtQtQtQtQtQtQtQt",
"QtQtQtQtQtQtQtQtQtQtQtQtQtQtQtQtQtQtQta..J.n.n.n.n.n.n.n.nafagQt#Rab.n.n.n.n.n.n.n.n.n.n.n#pQtQtQtQtQtQtQtQtQtQtQtQtQtQtQtQtQtQt",
"QtQtQtQtQtQtQtQtQtQt.#.1ahahag.jQtQt.D.E.n.n.n.n.n.n.n.n.n.nai#iQt#9.J.n.n.n.n.n.n.n.n.n.n.n#vQtQtQtQtQtQtQtQtQtQtQtQtQtQtQtQtQt",
"QtQtQtQtQtQtQt.j#U.Paj.J####abaiakal.E.n.n.n.n.n.n.n.n.n.n.n.n.w.1Qt.D.E.n.n.n.n.n.n.n.n.n.n.n#eQtQtQtQtQtQtQtQtQtQtQtQtQtQtQtQt",
"QtQtQtQtQtQt.9#s.n.n.n.n.n.n.n.n.n.n.n.n.n.n.n.n.n.n.n.n.n.n.n.wamQtQt.9##.n.n.n.n.n.n.n.n.n.n.n#kQtQtQtQtQtQtQtQtQtQtQtQtQtQtQt",
"QtQtQtQt#T.h.n.n.n.n.n.n.n.n.n.n.n.n.n.n.n.n.n.n.n.n.n.n.n.nan#PQtQtQt#C##.n.n.n.n.n.n.n.n.n.n.n.n#kQtQtQtQtQtQtQtQtQtQtQtQtQtQt",
"QtQtQtaoap.n.n.n.n.n.n.n.n.n.n.n.n.n.n.n.n.n.n.n.n.n.n.n.naf.XQtQt.k#kaq.n.n.n.n.n.n.n.n.n.n.n.n.n.n#eQtQtQtQtQtQtQtQtQtQtQtQtQt",
"QtQt.paa.n.n.n.n.n.n.n.n.n.n.n.n.n.n.n.n.n.n.n.n.n.n.n.naa.HQtQtQt.5.I.n.n.n.n.n.n.n.n.n.n.n.n.n.n.n.n#eQtQtQtQtQtQtQtQtQtQtQtQt",
"QtQt#y.n.n.n.n.n.n.n.n.n.n.n.n.n.n.n.n.n.n.n.n.n.n.n.n.c.HQtQtQtQtQtah.I.n.n.n.n.n.n.n.n.n.n.n.n.n.n.n.n#kQtQtQtQtQtQtQtQtQtQtQt",
"Qt#0#x.n.n.n.n.n.n.n.n.n.n.n.n.n.n.n.n.n.n.n.n.n.n.n.B#PQtQtQtQtQtQtQt#Q.J.n.n.n.n.n.n.n.n.n.n.n.n.n.n.n.n#kQtQtQtQtQtQtQtQtQtQt",
"aras.n.n.n.n.n.n.n.n.n.n.n.n.n.n.n.n.n.n.n.n.n.n.nat.GQtQtQtQtQtQtQtQtQt.x.d.n.n.n.n.n.n.n.n.n.n.n.n.n.n.n.n#pQtQtQtQtQtQtQtQtQt",
"au.n.n.n.n.n.n.n.n#s#s.n.n.n.n.n.n.n.n.n.n.n.n.n#x#CQtQtQtQtQtQtQtQtQtQtQt#Y.B.n.n.n.n.n.n.n.n.n.n.n.n.n.n.n.n#eQtQtQtQtQtQtQtQt",
"#1.n.n.n.n.n.n.naa#T#Tav.n.n.n.n.n.n.n.n.n.n.n.n.n.bQtQtQtQtQtQtQtQtQtQtQtQt.v.I.n.n.n.n.n.n.n.n.n.n.n.n.n.n.n.n#kQtQtQtQtQtQtQt",
"aw.n.n.n.n.n.n.c.HQtQtao.B.n.n.n.n.n.n.n.n.n.n.n.n#ZarQtQtQtQtQtQtQtQtQtQtQtQt#Q.J.n.n.n.n.n.n.n.n.n.n.n.n.n.n.n.n#kQtQtQtQtQtQt",
".d.n.n.n.n.nai#PQtQtQtQt.vai.n.n.n.n.n.n.n.n.n.n.nax#oQtQtQtQtQtQtQtQtQtQtQtQtQt.D.E.n.n.n.n.n.n.n.n.n.n.n.n.n.n.n.n#kQtQtQtQtQt",
".R.n.n.n.naf#.QtQtQtQtQtQt#.af.n.n.n.n.n.n.n.n.n.n.RayQtQtQtQtQtQtQtQtQtQtQtQtQtQt#W.B.n.n.n.n.n.n.n.n.n.n.n.n.n.n.n.nazQtQtQtQt",
"aA.n.n.naa.HQtQtQtQtQtQtQtQt.Hav.n.n.n.n.n.n.n.n.n.RayQtQtQtQtQtQtQtQtQtQtQtQtQtQtQt.v.I.n.n.n.n.n.n.n.n.n.n.n.n.n.n.n.n#kQtQtQt",
"#G.n.n.c.HQtQtQtQtQtQtQtQtQtQtao.B.n.n.n.n.n.n.n.n.d.pQtQtQtQtQtQtQtQtQtQtQtQtQtQtQtQt#Q.J.n.n.n.n.n.n.n.n.n.n.n.n.n.n.n.n#kQtQt",
"#n.n.B#PQtQtQtQtQtQtQtQtQtQtQtQt.8.g.n.n.n.n.n.n.naBaCQtQtQtQtQtQtQtQtQtQtQtQtQtQtQtQtQt.D.O.n.n.n.n.n.n.n.n.n.n.n.n.n.n.n.n#kQt",
"#aaD.GQtQtQtQtQtQtQtQtQtQtQtQtQtaE.g.n.n.n.n.n.n.n#aQtQtQtQtQtQtQtQtQtQtQtQtQtQtQtQtQtQtQt.x.d.n.n.n.n.n.n.n.n.n.n.n.n.n.n.n.naF",
"aoaGQtQtQtQtQtQtQtQtQtQtQtQtQt#iaA.n.n.n.n.n.n.n#xaHQtQtQtQtQtQtQtQtQtQtQtQtQtQtQtQtQtQtQtQt#Y.I.n.n.n.n.n.n.n.n.n.n.n.n.n.n.nac",
"QtQtQtQtQtQtQtQtQtQtQtQtQtQtaI.c.n.n.n.n.n.n.n.naJaCQtQtQtQtQtQtQtQtQtQtQtQtQtQtQtQtQtQtQtQtQt#Q.J.n.n.n.n.n.n.n.n.n.n.n.n.n.s.p",
"QtQtQtQtQtQtQtQtQtQtQtQtQt#Eaj.n.n.n.n.n.n.n.n#xaKQtQtQtQtQtQtQtQtQtQtQtQtQtQtQtQtQtQtQtQtQtQtQt.D.J.n.n.n.n.n.n.n.n.n.n.n.s.jQt",
"QtQtQtQtQtQtQtQtQtQtQtQt#m.m.n.n.n.n.n.n.n.n.n.4QtQtQtQtQtQtQtQtQtQtQtQtQtQtQtQtQtQtQtQtQtQtQtQtQt.D.E.n.n.n.n.n.n.n.n.n.s.jQtQt",
"QtQtQtQtQtQtQtQtQtQtQtah.g.n.n.n.n.n.n.n.n.n#saLQtQtQtQtQtQtQtQtQtQtQtQtQtQtQtQtQtQtQtQtQtQtQtQtQtQt#W.I.n.n.n.n.n.n.nac.zQtQtQt",
"QtQtQtQtQtQtQtQtQtQtao.w.n.n.n.n.n.n.n.n.n.Y.HQtQtQtQtQtQtQtQtQtQtQtQtQtQtQtQtQtQtQtQtQtQtQtQtQtQtQtQt#Q.J.n.n.n.n.n.s.jQtQtQtQt",
"QtQtQtQtQtQtQtQtQt.Q.c.n.n.n.n.n.n.n.n.naM.pQtQtQtQtQtQtQtQtQtQtQtQtQtQtQtQtQtQtQtQtQtQtQtQtQtQtQtQtQtQt.D.J.n.n.n.s.jQtQtQtQtQt",
"QtQtQtQtQtQtQtQtaN.B.n.n.n.n.n.n.n.naO.9QtQtQtQtQtQtQtQtQtQtQtQtQtQtQtQtQtQtQtQtQtQtQtQtQtQtQtQtQtQtQtQtQt.D.O.naP.jQtQtQtQtQtQt",
"QtQtQtQtQtQtQtQt#i.b#zaQ#M#MaRaS#a.a.uQtQtQtQtQtQtQtQtQtQtQtQtQtQtQtQtQtQtQtQtQtQtQtQtQtQtQtQtQtQtQtQtQtQtQt.9aT.tQtQtQtQtQtQtQt"};
