/* XPM */
static const char *BLUEDOT_2_11X11[]={
"11 11 3 1",
"  c None",
". c #0066cc",
"# c #ffff00",
"           ",
"           ",
"           ",
"   .....   ",
"   .....   ",
"   .....   ",
"   .....   ",
"   .....   ",
"           ",
"           ",
"           "};
