/* XPM */
static const char *BLUEDOT_1_11X11[]={
"11 11 2 1",
"  c None",
". c #0066cc",
"           ",
"           ",
"           ",
"           ",
"    ...    ",
"    ...    ",
"    ...    ",
"           ",
"           ",
"           ",
"           "};
