/* XPM */
static const char *BLUESPLAT_11X11[]={
"11 11 2 1",
"  c None",
". c #334c66",
"           ",
"           ",
"    ...    ",
"   .....   ",
"  .......  ",
"  .......  ",
"  .......  ",
"   .....   ",
"    ...    ",
"           ",
"           "};
