/* XPM */
static const char *BRIDGE_WW_11X11[]={
"11 11 3 1",
"  c None",
"# c #804000",
". c #F0C000",
"           ",
"           ",
"           ",
"......     ",
"######     ",
"######     ",
"######     ",
"......     ",
"           ",
"           ",
"           "};
