/* XPM */
static const char *FRONTLINE_DOTTED_SE_11X11[]={
"11 11 2 1",
"  c None",
"# c #ffff00",
"           ",
"           ",
"           ",
"           ",
"           ",
"           ",
"           ",
"          #",
"        #  ",
"       #   ",
"     #     "};
