/* XPM */
static const char *HEXBORDER_11X11[]={
"11 11 2 1",
"  c None",
"# c #000000",
"     #     ",
"   ## ##   ",
" ##     ## ",
"#         #",
"#         #",
"#         #",
"#         #",
"#         #",
" ##     ## ",
"   ## ##   ",
"     #     "};
