/* XPM */
static const char *HEXMASK_C_11X11[]={
"11 11 2 1",
". c #000000",
"# c #ffffff",
".....#.....",
"...#####...",
".#########.",
"##########.",
"##########.",
"##########.",
"##########.",
".#########.",
"...#####...",
".....#.....",
"..........."};
