/* XPM */
static const char *RAILR_NE_11X11[]={
"11 11 2 1",
"  c None",
"# c #8080C0",
"           ",
"      ##   ",
"     ## ## ",
"     # ##  ",
"    ## #   ",
"      ##   ",
"      #    ",
"           ",
"           ",
"           ",
"           "};
