/* XPM */
static const char *REDDOT_1_11X11[]={
"11 11 2 1",
"  c None",
". c #ff3300",
"           ",
"           ",
"           ",
"           ",
"    ...    ",
"    ...    ",
"    ...    ",
"           ",
"           ",
"           ",
"           "};
