/* XPM */
static const char *REDDOT_2_11X11[]={
"11 11 3 1",
"  c None",
". c #ff3300",
"# c #ffff00",
"           ",
"           ",
"           ",
"   .....   ",
"   .....   ",
"   .....   ",
"   .....   ",
"   .....   ",
"           ",
"           ",
"           "};
