/* XPM */
static const char *ROAD2_WW_11X11[]={
"11 11 2 1",
"  c None",
"# c #AA5500",
"           ",
"           ",
"           ",
"           ",
"           ",
"######     ",
"           ",
"           ",
"           ",
"           ",
"           "};
