/* XPM */
static const char *ROAD1_SE_11X11[]={
"11 11 2 1",
"  c None",
"# c #C0C0C0",
"           ",
"           ",
"           ",
"           ",
"      #    ",
"     ###   ",
"    ####   ",
"     ####  ",
"     ##### ",
"      ##   ",
"           "};
