/* XPM */
static const char *ROAD2_EE_11X11[]={
"11 11 2 1",
"  c None",
"# c #AA5500",
"           ",
"           ",
"           ",
"           ",
"           ",
"     ######",
"           ",
"           ",
"           ",
"           ",
"           "};
