/* XPM */
static const char *TRAML_SE_11X11[]={
"11 11 2 1",
"  c None",
"# c #80A0C0",
"           ",
"           ",
"           ",
"           ",
"      #    ",
"      ##   ",
"    ## #   ",
"     # ##  ",
"     ## ## ",
"      ##   ",
"           "};
