/* XPM */
static const char *VHEX_NEUTRAL_11X11[]={
"11 11 3 1",
". c None",
"# c #cccccc",
"X c #6699cc",
"...........",
"...........",
".....X.....",
"...XX#XX...",
"..X#####X..",
"..X#####X..",
"..X#####X..",
"...XX#XX...",
".....X.....",
"...........",
"..........."};
