/* XPM */
static char *dummy[]={
"50 25 16 1",
"e c #030303",
"h c #1b1b1b",
"i c #292929",
"d c #373737",
"j c #4b4b4b",
"m c #585858",
"k c #717171",
"c c #7b7b7b",
"n c #888888",
"l c #979797",
"b c #a7a7a7",
"a c #b8b8b8",
"f c #c6c6c6",
"g c #dadada",
"# c None",
". c None",
"..................................................",
"..................................................",
"..................................................",
"................#ab#..............................",
"..............cddeef..............................",
"..........gfaaheeeeibg##....................#.....",
"..........jeeeeeeeeeehhhjklf......................",
"..........meeeeeeeeeeeeeeeeeddddmcnnclaafafffgfalf",
"..........meeeeeeeeeeeeeeeeeeeeeeeeeeedddidddjdeed",
"gmijkkcklameeeeeeeeeeeeeeeedabbfg#ggg#.........gf#",
"#heeeeeeeeeeeeeeeeeeeeeeeeehjhhdcf................",
".deeeeeeeeeeeeeeeeeeeeeeeeeeeeeeema#..............",
".meeeeeeeeeeeeeeeeeeeeeeeeeeeeeeec................",
".ceeeeeeeeeeeeeeeeeeeeeeeeeeeeeeeeimlg............",
".leeeeeeeeeeeeeeeeeeeeeeeeeeeeeeeeeeen............",
".aheeeeeeeeeeeeeeeeeeeeeeeeeeeeeeeeeek............",
".#gceeeeeeeeeeeeeeeeeeeeeeeeeeeeeeeeea............",
"...meeeeeeeeeeeeeeeeeeeeeeeeeeeeeeeei.............",
".#.leeeeeeeeeeeeeeeeeeeeeeeeeeeeeeeeb.#...........",
"...#kheeeeeeeeeeeeeeeeeeeeeeeeeeehcf..............",
".....#anjjiihihhdhiiiiiiidhhihhdbg................",
"..........###..#.##..#.#..##.#g...................",
"..................................................",
"..................................................",
".................................................."};
