/* XPM */
static char *no_such_icon_xpm[]={
"32 32 36 1",
"a c #000000",
"o c #040404",
"G c #0b0b0b",
"z c #161616",
"m c #181818",
"k c #1b1b1b",
"v c #1d1d1d",
"s c #1e1e1e",
"A c #484848",
"r c #4c4c4c",
"F c #5e5e5e",
"e c #656565",
"d c #696969",
"i c #6e6e6e",
"H c #6f6f6f",
"D c #727272",
"w c #787878",
"h c #7a7a7a",
"# c #808080",
"B c #8d8d8d",
"b c #b3b3b3",
"j c #bfbfbf",
"t c #dddddd",
"n c #dedede",
"u c #e2e2e2",
"l c #e9e9e9",
"C c #efefef",
"f c #f5f5f5",
"E c #f6f6f6",
"g c #f7f7f7",
"x c #f8f8f8",
"c c #f9f9f9",
"p c #fafafa",
"q c #fcfcfc",
"y c #fefefe",
". c #ffffff",
"................................",
".#aaaaaaaaaaaaaaaaaaaaaaaaaaaa#.",
".a............................a.",
".a............................a.",
".a............................a.",
".a..ab..a.cdaaef..............a.",
".a..aag.a.ha..ai..............a.",
".a..aj#.a.kl..lm..............a.",
".a..a.ana.op..qo..............a.",
".a..a.jra.st..uv..............a.",
".a..a..aa.ha..aw..............a.",
".a..a..ja.xeaadx..............a.",
".a............................a.",
".a............................a.",
".a............................a.",
".a............................a.",
".a............................a.",
".a............................a.",
".a............................a.",
".a............................a.",
".a...a.y#zoA.cdaaef.ab..a..a..a.",
".a...a.BaC...ha..ai.aag.a..a..a.",
".a...a.a.....kl..lm.aj#.a..a..a.",
".a...a.a.....op..qo.a.ana..a..a.",
".a...a.a.....st..uv.a.jra..a..a.",
".a...a.Daf...ha..aw.a..aa.....a.",
".a...a.EFGGH.xeaadx.a..ja..a..a.",
".a............................a.",
".a............................a.",
".a............................a.",
".#aaaaaaaaaaaaaaaaaaaaaaaaaaaa#.",
"................................"};
