/* XPM */
static char *windows_icon_genappl_xpm[]={
"32 32 186 2",
"Qt c none",
"#x c #00409d",
"#A c #0042a0",
"#u c #00439e",
"#q c #00439f",
"#s c #00449f",
"#r c #00459f",
"#t c #0045a0",
"#p c #0046a2",
"#v c #0049a4",
"#z c #0049a6",
"#y c #004aa6",
"#C c #004ba0",
"#o c #004ca9",
"#w c #0053aa",
"#n c #0059b3",
"#D c #0059ba",
".0 c #0066be",
"#c c #0069cf",
"#f c #006acf",
".1 c #006bcb",
".3 c #006bd1",
"## c #006cd1",
"#. c #006dcf",
".6 c #006dd1",
".2 c #006dd2",
".5 c #006ed0",
".4 c #006ed1",
"#b c #006fcf",
"#a c #006fd1",
".7 c #0271d2",
".8 c #0372d2",
".9 c #0571d1",
".Y c #0578d9",
".v c #067fe5",
".u c #0b83e8",
".x c #0d75d0",
".p c #0d7ad9",
".r c #0d7bd9",
".s c #0d7bda",
".t c #0d82e3",
"#B c #0e4989",
".# c #0e7ad5",
".o c #1380db",
".q c #1480dc",
".h c #1680dc",
".f c #1681dc",
".e c #1781dc",
".n c #1782dc",
".g c #1883dc",
".d c #1982dc",
".i c #1a83dd",
".c c #1a84dc",
".j c #1a84dd",
".k c #1b84dd",
"#F c #1c7dd4",
".m c #1c85dd",
"aH c #1d4ba1",
".l c #1f86dd",
"aK c #214ea2",
".b c #2186dd",
".Q c #218eed",
"aM c #224da0",
"aN c #224da1",
"aO c #224da2",
"aL c #224ea1",
"aP c #224ea2",
"aS c #224fa4",
"aQ c #244fa1",
"aJ c #244fa4",
"#5 c #247bd2",
"#1 c #247fd7",
".S c #2490ed",
"a. c #267ad0",
".N c #2692ef",
"ab c #2778cd",
".P c #2791ed",
"aI c #2853a6",
"aR c #2953a4",
"ae c #2a77cb",
"#X c #2a86de",
".y c #2a89db",
".a c #2a89dd",
".O c #2a94f0",
".R c #2b94f0",
"ag c #2c76c9",
"ai c #2d73c6",
".M c #2d95ef",
"a0 c #2e4570",
"aZ c #2e4572",
"al c #2e72c3",
".H c #2f96ee",
".G c #2f97ee",
"aW c #304777",
"aX c #304877",
"a1 c #304878",
"aY c #304978",
"ao c #3070c1",
"aV c #314978",
"aq c #316fbe",
"a2 c #334c7e",
".E c #3398f0",
".T c #3399f2",
"as c #356ebb",
".K c #359aee",
".U c #359ef5",
"au c #366cb7",
".L c #369af0",
"aw c #3769b5",
"#V c #378dd4",
".V c #3795e8",
".J c #379bf0",
".D c #379bf1",
".I c #389bf0",
"az c #3a68b3",
".X c #3b8bd5",
".B c #3b9cf0",
".A c #3d9df0",
"#i c #3e669c",
".C c #3f9df0",
".F c #3f9ff1",
"aB c #406ab2",
"#d c #4097e5",
"aE c #416cb4",
"aU c #425989",
"#h c #44a2f6",
"aD c #4f5258",
"ay c #4f5259",
"an c #4f5359",
"ak c #4f535a",
"ad c #4f545a",
"#0 c #4f545b",
"aT c #50545c",
"#g c #51a1ec",
".z c #56a7ed",
"#W c #5b5d5e",
"a3 c #5d5f62",
".W c #5f8bc0",
"#E c #606060",
"#9 c #62a3e0",
"#4 c #62a3e2",
"#e c #62abf0",
"#Z c #63a9e7",
"aa c #65a2df",
"ac c #66a1dd",
"af c #689edb",
"ah c #699dd9",
"aj c #6a9cd7",
"am c #6b9bd5",
"ap c #6c9ad2",
"ar c #6d99d0",
"at c #6e97ce",
".w c #70aee2",
"av c #7196cc",
"ax c #7295ca",
"aA c #7394c8",
"aG c #7397c9",
"#l c #747474",
"aC c #7a97c7",
"#m c #808080",
"#k c #87727e",
".Z c #9ea4a8",
"#T c #aad2e3",
"#O c #b3cdd6",
"#R c #b4cfd8",
"#S c #b4d1dd",
"#Q c #b5cfd8",
"#N c #b6cfd8",
"#P c #b7d1d9",
"#M c #b8d3d9",
"#I c #b9d2d9",
"#K c #b9d2da",
"#L c #b9d3d9",
"#J c #b9d3da",
"#H c #bdd5da",
"#U c #c3dcde",
"#G c #cedfdc",
"#j c #fd6a2e",
"aF c #fffff7",
"#6 c #fffff9",
"#2 c #fffffa",
"#8 c #fffffb",
"#7 c #fffffc",
"#3 c #fffffd",
"a# c #fffffe",
"#Y c #ffffff",
"QtQtQtQtQtQtQtQtQtQtQtQtQtQtQtQtQtQtQtQtQtQtQtQtQtQtQtQtQtQtQtQt",
"QtQtQtQtQtQtQtQtQtQtQtQtQtQtQtQtQtQtQtQtQtQtQtQtQtQtQtQtQtQtQtQt",
"QtQtQtQtQtQtQtQtQtQtQtQtQtQtQtQtQtQtQtQtQtQtQtQtQtQtQtQtQtQtQtQt",
"QtQtQtQtQtQtQtQtQtQtQtQtQtQtQtQtQtQtQtQtQtQtQtQtQtQtQtQtQtQtQtQt",
"QtQt.#.a.b.c.d.e.f.g.f.h.i.j.k.l.m.n.g.f.o.p.p.q.r.s.t.u.v.wQtQt",
"Qt.x.y.z.A.B.C.D.E.F.G.H.I.J.K.L.M.N.O.P.Q.R.E.S.T.U.V.W.X.Y.ZQt",
"Qt.0.1.2.3.4.5.4.6.7.8.8.9.4.4#.##.4#a#b#c#d#e#f#g#h#i#j#k#b#l#m",
"Qt#n#o#p#q#r#s#r#q#q#q#s#q#q#t#q#s#r#r#r#u#v#w#x#y#z#A#B#C#D#E#m",
"Qt#F#G#H#I#I#J#J#K#J#J#J#J#I#L#I#K#K#K#I#M#N#O#P#Q#R#S#T#U#V#W#m",
"Qt#X#Y#Y#Y#Y#Y#Y#Y#Y#Y#Y#Y#Y#Y#Y#Y#Y#Y#Y#Y#Y#Y#Y#Y#Y#Y#Y#Y#Z#0#m",
"Qt#1#Y#Y#2#2#2#2#2#2#2#2#2#2#2#2#2#2#2#2#2#2#2#2#2#2#3#Y#Y#4#0#m",
"Qt#5#Y#Y#2#Y#Y#6#2#2#2#2#2#2#2#6#Y#7#6#2#2#2#2#8#6#8#6#8#Y#9#0#m",
"Qta.#Y#Y#6#6#6#2#2#2#2#2#2#2#2#2#6#6#2#2#2#2#8#3#8a##6#Y#Yaa#0#m",
"Qtab#Ya##6#6#6#2#2#2#2#2#2#2#2#2#2#2#2#2#2#2#2#2#2#6#6#Y#Yacad#m",
"Qtae#Y#Y#6#7#7#8#8#2#2#2#2#2#2#2#2#2#2#2#2#2#2#2#2#2#6#Y#Yafad#m",
"Qtag#Y#Y#2#6#8#7#7#8#2#2#2#2#2#2#2#2#2#2#2#2#2#2#2#2#2#7#Yahad#m",
"Qtai#Y#Y#6#2#2#6#6#2#2#2#2#2#2#2#2#2#2#2#2#2#2#2#2#2#2#2#Yajak#m",
"Qtal#Y#Y#6#2#2#2#2#2#2#2#2#2#2#2#2#2#2#2#2#2#2#2#2#2#2#8#Yaman#m",
"Qtao#Y#Y#6#2#2#2#2#2#2#2#2#2#2#2#2#2#2#2#2#2#2#2#2#2#2#8#Yapan#m",
"Qtaq#Y#Y#6#2#2#2#2#2#2#2#2#2#2#2#2#2#2#2#2#2#2#2#2#2#2#8#Yaran#m",
"Qtas#Ya##6#6#6#2#2#2#2#2#2#2#2#2#2#2#2#2#2#2#2#2#2#2#2#8#Yatan#m",
"Qtau#Ya##8#7#7#8#2#2#2#2#2#2#2#2#2#2#2#2#2#2#2#2#2#2#2#8#Yavan#m",
"Qtaw#Y#3#2#6#8#8#2#2#2#2#2#2#2#2#2#2#2#2#2#2#2#2#2#2#2#8#Yaxay#m",
"Qtaz#Y#7#7#8#2#2#2#2#2#2#2#2#2#2#2#2#2#2#2#2#2#2#2#2#2#7#YaAay#m",
"QtaB#Y#Ya#a#a#a##Y#Y#Ya#a#a#a#a#a#a#a#a#a#a#a#a#a#a#a##Y#YaCaD#m",
"QtaE#Y#Y#Y#Y#Y#Y#2aF#8#Y#Y#Y#Y#Y#Y#Y#Y#Y#Y#Y#Y#Y#Y#Y#Y#3#YaGaD#m",
"QtaHaIaJaKaKaKaKaLaMaNaOaOaOaOaOaOaOaOaOaOaOaOaOaPaMaMaQaRaSaT#m",
"QtQtaUaVaWaWaWaWaXaXaXaXaXaXaXaXaXaXaXaXaXaXaXaXaYaZa0a1a1a2a3#m",
"QtQtQt#m#m#m#m#m#m#m#m#m#m#m#m#m#m#m#m#m#m#m#m#m#m#m#m#m#m#m#m#m",
"QtQtQtQtQtQtQtQtQtQtQtQtQtQtQtQtQtQtQtQtQtQtQtQtQtQtQtQtQtQtQtQt",
"QtQtQtQtQtQtQtQtQtQtQtQtQtQtQtQtQtQtQtQtQtQtQtQtQtQtQtQtQtQtQtQt",
"QtQtQtQtQtQtQtQtQtQtQtQtQtQtQtQtQtQtQtQtQtQtQtQtQtQtQtQtQtQtQtQt"};
