/* XPM */
static char *windows_icon_information_xpm[]={
"32 32 255 2",
"Qt c none",
".G c #000f53",
".N c #001c77",
"#U c #00227e",
".W c #002686",
"ae c #002988",
"ao c #002a85",
"aY c #002a86",
".O c #002a91",
"#5 c #002b93",
"a9 c #002e95",
"af c #00339a",
"#4 c #00349c",
".F c #0e245d",
"#T c #143a87",
"bi c #1445aa",
"b0 c #190439",
".9 c #1a4599",
"aT c #200c40",
".Y c #2358bb",
"be c #24194d",
"aN c #2e56a1",
"bq c #2f2e62",
".X c #2f61c5",
".P c #31508e",
"ap c #3158a0",
".M c #32437a",
"bN c #332150",
"aU c #342250",
"bZ c #34386d",
"#6 c #355aa2",
"#I c #375080",
"bx c #3f4174",
".Z c #3f63a9",
"b2 c #402e5a",
"aM c #4a5586",
"#. c #4c7bd1",
"al c #4d3d66",
"a4 c #506495",
"ab c #514169",
"bO c #53608c",
"bt c #5682cf",
"bV c #5f5176",
"#H c #5f6e99",
"bh c #5f80b2",
"b8 c #638fc2",
"#G c #657ba3",
"bd c #6888b1",
"bu c #6a98e7",
"bU c #6c93bb",
"bW c #6d6285",
"aF c #6e86ad",
"#D c #706688",
"a8 c #7091c0",
"b1 c #71759b",
"b6 c #729fcb",
"bp c #7396ba",
"bT c #7799ba",
"bX c #7896b8",
"bz c #7b97b6",
"aB c #7b99c4",
"bQ c #7b9aba",
"bP c #7c99b6",
"bj c #7ca1d0",
"az c #7d8eb1",
"bR c #7d9cbe",
"bI c #7e9bb8",
"by c #7f8bae",
"bG c #7f9fbe",
"#t c #808bae",
"an c #819cc4",
"bs c #829db6",
"aS c #82a3c4",
"#2 c #837794",
"#1 c #8392b3",
"b7 c #83afdb",
"b4 c #84a9cd",
"bA c #87a1bb",
"a5 c #889fb7",
"ad c #88a2c9",
"b5 c #88b4e1",
"aa c #8996b4",
"br c #8999bb",
"bF c #89aac9",
"bo c #8aa7c4",
"bY c #8cb3da",
"a3 c #8daac7",
"b3 c #8daacd",
"bJ c #8dafd0",
"bc c #8fabc7",
"bH c #9298b2",
"bK c #92b6db",
"bn c #93b3d3",
"bf c #94abc3",
"bL c #96badd",
".E c #99a7bc",
"aV c #99afca",
"#S c #9ab4d3",
"aW c #9baec1",
"aL c #9bb5cf",
"bw c #9bbde0",
"bS c #9bc3eb",
"aR c #9eb9d4",
"bE c #a2c6ea",
"bm c #a3c5e6",
"bv c #a4c9ee",
".8 c #a5bbd4",
".H c #a6b6c9",
"ay c #a7c2dd",
"bb c #a7c7e8",
"a2 c #a9c8e6",
"## c #abc3e2",
"b. c #aecff2",
"bM c #aed4fc",
"#h c #afafc3",
".x c #b0b5c3",
".T c #b1bccf",
"bl c #b1d5f9",
"aA c #b2c1d0",
"a# c #b3c9dd",
"ba c #b3d8fb",
"aK c #b4d2f0",
"#C c #b5cde4",
"#g c #b6c6da",
"am c #b7c4cf",
"ax c #b8d0e9",
"a1 c #b8d8f9",
"bk c #b8dbff",
"aQ c #b9d8f8",
"b# c #baddff",
"#u c #bbc6d1",
"aO c #bcdaf8",
"bD c #bce1ff",
"a0 c #bddeff",
"#R c #becad6",
"bg c #bedcfa",
"aZ c #bfe0ff",
"bB c #bfe3ff",
"bC c #bfe4ff",
"#Q c #c0d2e4",
"ak c #c0d7ef",
"aP c #c0e0ff",
"aC c #c1dcf8",
"aJ c #c3e1ff",
"aI c #c4e1ff",
"aH c #c4e2ff",
"a6 c #c5e0fb",
".J c #c7cfdc",
"#k c #c7dbf1",
"aq c #c7dff8",
"aE c #c7e3ff",
"aw c #c9e3ff",
"aD c #c9e4ff",
"ag c #cae2f9",
"#P c #cbdef1",
"av c #cbe5ff",
"au c #cbe6ff",
"aX c #cbe9ff",
".A c #ccd5e2",
".5 c #cddbea",
"at c #cde6ff",
"#v c #ced4dc",
"#3 c #cee2f5",
"as c #cee7ff",
"#7 c #d0e3f8",
"#E c #d1d7dd",
"ar c #d1e7ff",
"ai c #d1e8ff",
"ah c #d2e9ff",
".S c #d3dfec",
"#V c #d3e6f9",
"aj c #d3ebff",
"a7 c #d3f1ff",
"#9 c #d4e9ff",
"#s c #d5e4f2",
"#8 c #d5eaff",
"aG c #d5edff",
".w c #d6dce3",
"#f c #d6e2ee",
"#Y c #d7ebff",
"#X c #d8ebff",
"#W c #d8ecff",
"#B c #d9eaf8",
"a. c #d9efff",
".q c #dadde4",
"#M c #dbedff",
".4 c #dce4ed",
"#L c #dcedff",
"#Z c #dcf0ff",
"#e c #ddeaf6",
"#K c #ddeeff",
".K c #dfe2e3",
"#y c #dfefff",
"#O c #dff0fc",
".f c #e0e9f2",
"#J c #e0f0ff",
"#0 c #e0f4ff",
".s c #e1e4e7",
"#j c #e1ecfb",
".b c #e2e8ee",
"#x c #e2f1ff",
"ac c #e3f2ff",
".B c #e4ecf6",
"#p c #e4f1ff",
"#o c #e5f2ff",
".L c #e6e7e9",
".e c #e6ebf0",
".a c #e6eef6",
"#m c #e7f3ff",
"#n c #e7f4ff",
".r c #e8f0f7",
".c c #e9ebed",
".g c #e9f1f9",
"#l c #e9f3ff",
"#c c #e9f5ff",
"#z c #e9f7ff",
"#N c #e9faff",
".t c #eaeced",
"#r c #eaf6fd",
".i c #ebeef2",
".h c #ebf1f6",
"#b c #ebf5ff",
"#q c #ebf7ff",
".C c #ececec",
"#F c #ecf4fb",
"#w c #ecf4ff",
"#a c #ecf6ff",
".d c #eeeeee",
".1 c #eef7ff",
"#i c #eef8ff",
".u c #f0eff0",
".j c #f1f0ee",
".k c #f1f2f2",
".z c #f1f5f8",
".2 c #f1f8ff",
"#d c #f1faff",
".p c #f2f4f5",
".6 c #f3f9ff",
".0 c #f3fbff",
"#A c #f3fdff",
".# c #f4f7fa",
".I c #f4f8fc",
".V c #f5faff",
".o c #f6f7f9",
".l c #f7f6f7",
".U c #f7fcff",
".v c #f8f9fa",
".R c #f8fcfe",
".3 c #f9fbfe",
".7 c #f9feff",
".y c #fafdfe",
".m c #fbfcfc",
".Q c #fbffff",
".D c #fdffff",
".n c #ffffff",
"QtQtQtQtQtQtQtQtQt.#.a.b.c.d.d.d.d.d.e.f.g.#QtQtQtQtQtQtQtQtQtQt",
"QtQtQtQtQtQtQt.h.i.c.j.k.l.m.n.n.n.m.o.p.k.e.q.rQtQtQtQtQtQtQtQt",
"QtQtQtQtQt.s.b.t.u.p.v.m.n.n.w.x.w.n.n.y.#.z.i.e.AQtQtQtQtQtQtQt",
"QtQtQtQt.B.s.C.k.v.D.n.n.n.E.F.G.F.H.n.n.n.y.I.h.e.A.JQtQtQtQtQt",
"QtQtQt.f.K.L.p.y.n.n.D.D.h.M.N.O.N.P.a.Q.Q.n.n.R.r.b.S.TQtQtQtQt",
"QtQt.f.K.L.h.y.n.Q.U.V.U.z.P.W.X.Y.Z.g.0.1.2.U.n.3.B.4.5.EQtQtQt",
"Qt.s.w.s.i.R.n.U.6.6.2.2.7.8.9#.#.##.U#a#b#b#c#d.D.V#e#f#g#hQtQt",
"Qt.w.q.b.I.D.V.2.2.2#i.1#a.0#j#k#j#i#l#l#m#n#o#p#q.Q#r#s.5#tQtQt",
"#u#v.q.a.7.6.1.1#a#a#w.1#d#i#d#d#i#b#o#p#p#p#x#x#y#z#A#B.5#C#DQt",
"#u#E.4#F.0#w#b#l#l#l#q#g#G#G#G#H#I#G#B#o#J#y#y#K#L#M#N#O#P#Q#HQt",
"#R#v.4#a#b#m#m#m#o#p#q#S#T#U.W.W.N.P#V#x#L#M#M#W#X#Y#Z#0#P#Q#1#2",
"#u.J#f#n#m#o#p#x#x#J#J#x#3.Z.O#4#5#6#7#Z#W#Y#Y#Y#8#9#8a.#ka#aaab",
"#u#R#fac#x#J#y#y#K#K#L#K#Nadaeaf.O#6aga.#8#9#9ahahaiaiajaka#aaal",
"am#R.S#y#K#K#L#L#M#M#W#X#0anaoaf.Oapaq#Yararasasasatasasaka#aaal",
".T#u.5#M#M#M#W#Y#Y#8#8#9#Zanaoaf.Oapaqajatatauavavavavawaxayazal",
".HaA#Q#V#Y#8#8#9#9ahaiaia.aBaoaf.OapaCasavaDaDawawaEaDaC#C.8aFal",
".E.H#g#kaiaiaiaiaiasatataGaBaoaf.OapaCataEaEaEaHaIaHaJaKayaLaMab",
".E.E.8#CagaratatavavaDaDajaBaoaf.OaNaOaDaJaJaPaPaPaPaQ##aRaSaTaU",
"QtaVaW.8axagauaDaDaDaEaEaXaBaYaf.OaNaQaHaPaZa0a0a0a1a2aRa3a4aUQt",
"Qta5a5aW.8axa6aEaHaHaIaJa7a8aea9.O#Tb.aXa0b#b#b#babb#SbcbdbeaUQt",
"QtQta5a5bf.8#CbgaJaJaJa1bh.9bi.X.XbiaNbjbkb#bkblbmbnbobpbqaUQtQt",
"QtQtQtbrbsbfaLayaKa1aZb.#6#.btbtbtbububtbablbvbwbnbobpbxaTQtQtQt",
"QtQtQtQtbybzbAbc#Saybbb.aZaZbBbBbCbDb#babEbwbnbFbGbdbqaTQtQtQtQt",
"QtQtQtQtQtbH#GbIbAbobcbJbKbLbwbvbMbMbvbLbJbobGbpa4bebNQtQtQtQtQt",
"QtQtQtQtQtQtbHbObOaFbPbQbQbRaSbJbSbvbLbFbTbUaMbqaTbVQtQtQtQtQtQt",
"QtQtQtQtQtQtQtQtbObWbxbO#H#GbXaSbKbSbYbdbZbeb0aUQtQtQtQtQtQtQtQt",
"QtQtQtQtQtQtQtQtQtQtQt#2#2bWb1bRbJbSbYaMb2b0QtQtQtQtQtQtQtQtQtQt",
"QtQtQtQtQtQtQtQtQtQtQtQtQtQtQtb3b4bSb5aMb0QtQtQtQtQtQtQtQtQtQtQt",
"QtQtQtQtQtQtQtQtQtQtQtQtQtQtQtQtbUbYb5.Mb0QtQtQtQtQtQtQtQtQtQtQt",
"QtQtQtQtQtQtQtQtQtQtQtQtQtQtQtQtQtb6b7.Mb0QtQtQtQtQtQtQtQtQtQtQt",
"QtQtQtQtQtQtQtQtQtQtQtQtQtQtQtQtQtQtb8.Mb0QtQtQtQtQtQtQtQtQtQtQt",
"QtQtQtQtQtQtQtQtQtQtQtQtQtQtQtQtQtQtQtaUb0QtQtQtQtQtQtQtQtQtQtQt"};
