/* XPM */
static const char *BLUEDOT_13_21X21[]={
"21 21 4 1",
". c None",
"+ c None",
"% c #003366",
"# c #0066cc",
".....................",
".....................",
"..........+..........",
"........++.++........",
"......++.....++......",
".....###.%%%.###.....",
".....###.%%%.###.....",
"..+..###.%%%.###..+..",
"..+...............+..",
"..+..%%%.%%%.%%%..+..",
"..+..%%%.%%%.%%%..+..",
"..+..%%%.%%%.%%%..+..",
"..+...............+..",
"..+..###.%%%.###..+..",
".....###.%%%.###.....",
".....###.%%%.###.....",
"......++.....++......",
"........++.++........",
"..........+..........",
".....................",
"....................."}; 
