/* XPM */
static const char *BLUEDOT_9_21X21[]={
"21 21 3 1",
". c None",
"+ c None",
"# c #0066cc",
".....................",
".....................",
"..........+..........",
"........++.++........",
"......++.....++......",
".....###.###.###.....",
".....###.###.###.....",
"..+..###.###.###..+..",
"..+...............+..",
"..+..###.###.###..+..",
"..+..###.###.###..+..",
"..+..###.###.###..+..",
"..+...............+..",
"..+..###.###.###..+..",
".....###.###.###.....",
".....###.###.###.....",
"......++.....++......",
"........++.++........",
"..........+..........",
".....................",
"....................."}; 
