/* XPM */
static const char *HEXBORDER_21X21[]={
"21 21 2 1",
". c None",
"# c #000000",
"..........#..........",
"........##.##........",
"......##.....##......",
".....#.........#.....",
"...##...........##...",
".##...............##.",
"#...................#",
"#...................#",
"#...................#",
"#...................#",
"#...................#",
"#...................#",
"#...................#",
"#...................#",
"#...................#",
".##...............##.",
"...##...........##...",
".....#.........#.....",
"......##.....##......",
"........##.##........",
"..........#.........."};
