/* XPM */
static const char *HEXMASK_RE_21X21[]={
"21 21 2 1",
". c #000000",
"# c #ffffff",
"..........#..........",
"........#####........",
"......#########......",
".....###########.....",
"...###############...",
".###################.",
"#####################",
"#####################",
"#####################",
"#####################",
"#####################",
"#####################",
"#####################",
"#####################",
".###################.",
"...###############...",
".....###########.....",
"......#########......",
"........#####........",
"..........#..........",
"....................."}; 
