/* XPM */
static const char *HEXMASK_C_21X21[]={
"21 21 2 1",
". c #000000",
"# c #ffffff",
"..........#..........",
"........#####........",
"......#########......",
".....###########.....",
"...###############...",
".###################.",
"####################.",
"####################.",
"####################.",
"####################.",
"####################.",
"####################.",
"####################.",
"####################.",
".###################.",
"...###############...",
".....###########.....",
"......#########......",
"........#####........",
"..........#..........",
"....................."}; 
