/* XPM */
static const char *BRIDGE_SW_21X21[]={
"21 21 3 1",
". c None",
"a c #804000",
"# c #f0c000",
".....................",
".....................",
".....................",
".....................",
".....................",
".....................",
"......##.............",
"......##.............",
"....##aaaa...........",
"....##aaaa...........",
"..##aaaaaaa..........",
"..##aaaaaaaaa##......",
"..##aaaaaaaaa##......",
"##aaaaaaaaaaa##......",
"##aaaaaaaaaaa##......",
"..aaaaaaaaa##........",
"..aaaaaaaaa##........",
"......aaaa#..........",
"......aaaa#..........",
".....................",
"....................."};
