/* XPM */
static const char *ROAD1_NE_21X21[]={
"21 21 2 1",
". c None",
"# c #c0c0c0",
".....................",
".....................",
"...........####......",
"...........####......",
"..........#########..",
"..........#########..",
"..........#######....",
"..........#######....",
"........#######......",
"........#######......",
"..........#####......",
"...........##........",
"...........##........",
".....................",
".....................",
".....................",
".....................",
".....................",
".....................",
".....................",
"....................."};
