/* XPM */
static const char *BRIDGE_NE_21X21[]={
"21 21 3 1",
". c None",
"a c #804000",
"# c #f0c000",
".....................",
".....................",
"..........#aaaa......",
"..........#aaaa......",
"........##aaaaaaaaa..",
"........##aaaaaaaaa..",
"......##aaaaaaaaaaa##",
"......##aaaaaaaaaaa##",
"......##aaaaaaaaa##..",
"......##aaaaaaaaa##..",
"..........aaaaaaa##..",
"...........aaaa##....",
"...........aaaa##....",
".............##......",
".............##......",
".....................",
".....................",
".....................",
".....................",
".....................",
"....................."};
