/* XPM */
static const char *BRIDGE_EE_21X21[]={
"21 21 3 1",
". c None",
"a c #804000",
"# c #f0c000",
".....................",
".....................",
".....................",
".....................",
".....................",
".....................",
"..........###########",
"..........###########",
"..........aaaaaaaaaaa",
"..........aaaaaaaaaaa",
"..........aaaaaaaaaaa",
"..........aaaaaaaaaaa",
"..........aaaaaaaaaaa",
"..........###########",
"..........###########",
".....................",
".....................",
".....................",
".....................",
".....................",
"....................."};
