/* XPM */
static const char *RAILR_EE_21X21[]={
"21 21 2 1",
". c None",
"# c #8080c0",
".....................",
".....................",
".....................",
".....................",
".....................",
".....................",
".....................",
".....................",
"..........###########",
"..........###########",
".....................",
"..........###########",
"..........###########",
".....................",
".....................",
".....................",
".....................",
".....................",
".....................",
".....................",
"....................."};
