/* XPM */
static const char *BRIDGE_NW_21X21[]={
"21 21 3 1",
". c None",
"# c #804000",
"a c #f0c000",
".....................",
".....................",
"......####a..........",
"......####a..........",
"..#########aa........",
"..#########aa........",
"aa###########aa......",
"aa###########aa......",
"..aa#########aa......",
"..aa#########aa......",
"..aa#######..........",
"....aa####...........",
"....aa####...........",
"......aa.............",
"......aa.............",
".....................",
".....................",
".....................",
".....................",
".....................",
"....................."};
