/* XPM */
static const char *REDDOT_12_21X21[]={
"21 21 4 1",
". c None",
"+ c None",
"% c #801a00",
"# c #ff3300",
".....................",
".....................",
"..........+..........",
"........++.++........",
"......++.....++......",
".....%%%.###.%%%.....",
".....%%%.###.%%%.....",
"..+..%%%.###.%%%..+..",
"..+...............+..",
"..+..%%%.%%%.%%%..+..",
"..+..%%%.%%%.%%%..+..",
"..+..%%%.%%%.%%%..+..",
"..+...............+..",
"..+..###.%%%.###..+..",
".....###.%%%.###.....",
".....###.%%%.###.....",
"......++.....++......",
"........++.++........",
"..........+..........",
".....................",
"....................."}; 
