/* XPM */
static const char *REDDOT_2_21X21[]={
"21 21 3 1",
". c None",
"+ c None",
"# c #ff3300",
".....................",
".....................",
"..........+..........",
"........++.++........",
"......++.....++......",
".....+.........+.....",
"...++...........++...",
"..+...............+..",
"..+...............+..",
"..+..###.....###..+..",
"..+..###.....###..+..",
"..+..###.....###..+..",
"..+...............+..",
"..+...............+..",
"...++...........++...",
".....+.........+.....",
"......++.....++......",
"........++.++........",
"..........+..........",
".....................",
"....................."}; 
