/* XPM */
static const char *REDSPLAT_21X21[]={
"21 21 2 1",
". c None",
"# c #663d33",
".....................",
".....................",
".....................",
".....................",
".....................",
"........#####........",
".......#######.......",
"......#########......",
".....###########.....",
".....###########.....",
".....###########.....",
".....###########.....",
".....###########.....",
"......#########......",
".......#######.......",
"........#####........",
".....................",
".....................",
".....................",
".....................",
"....................."}; 
