/* XPM */
static const char *ROAD2_NE_21X21[]={
"21 21 2 1",
". c None",
"# c #aa5500",
".....................",
".....................",
"..............#......",
"..............##.....",
".............####....",
"............####.....",
"............###......",
"...........####......",
"..........####.......",
"..........###........",
"..........##.........",
".....................",
".....................",
".....................",
".....................",
".....................",
".....................",
".....................",
".....................",
".....................",
"....................."};
