/* XPM */
static const char *ROAD2_EE_21X21[]={
"21 21 2 1",
"# c #aa5500",
". c None",
".....................",
".....................",
".....................",
".....................",
".....................",
".....................",
".....................",
".....................",
".....................",
"..........###########",
"..........###########",
"..........###########",
".....................",
".....................",
".....................",
".....................",
".....................",
".....................",
".....................",
".....................",
"....................."};
