/* XPM */
static const char *TRAML_NE_21X21[]={
"21 21 2 1",
". c None",
"# c #80A0C0",
".....................",
".....................",
"...........####......",
"...........####......",
"..........###..####..",
"..........###..####..",
"..........#..####....",
"..........#..####....",
"........###..##......",
"........###..##......",
"...........####......",
"...........##........",
"...........##........",
".....................",
".....................",
".....................",
".....................",
".....................",
".....................",
".....................",
"....................."};
