/* XPM */
static const char *VHEX_CONTESTED_21X21[]={
"21 21 3 1",
". c None",
"# c #804C66",
"X c #6699cc",
".....................",
".....................",
".....................",
".........XXX.........",
".......XX###XX.......",
".....XX#######XX.....",
"...XX###########XX...",
"..X###############X..",
"..X###############X..",
"..X###############X..",
"..X###############X..",
"..X###############X..",
"..X###############X..",
"..X###############X..",
"...XX###########XX...",
".....XX#######XX.....",
".......XX###XX.......",
".........XXX.........",
".....................",
".....................",
"....................."}; 
